<svg xmlns="http://www.w3.org/2000/svg" width="326.335" height="123.575" viewBox="0 0 326.335 123.575">
  <g id="footer__bg" transform="translate(-796.832 -6538.713)">
    <g id="グループ_10" data-name="グループ 10" transform="translate(796.832 6538.713)">
      <path id="パス_9440" data-name="パス 9440" d="M108.725,0V54.323l11.9,11.881h36.282L153.8,51.9H127.718l-4.833-4.825V0Z" transform="translate(169.427)" fill="#1a1311"/>
      <path id="パス_9441" data-name="パス 9441" d="M53.328,14.309H75.966L86.98,25.319V40.884L75.966,51.9H53.328ZM35.637,0l3.382,7.818V58.383L35.637,66.2H81.9l19.389-19.387V19.394L81.9,0Z" transform="translate(55.533)" fill="#1a1311"/>
      <path id="パス_9442" data-name="パス 9442" d="M14.306,40.884V25.319L25.322,14.309H40.889L51.9,25.319V40.884L40.889,51.9H25.322ZM19.394,0,0,19.389V46.817L19.394,66.2h27.42L66.2,46.817V19.389L51.01,4.2,52.824,0Z" transform="translate(0)" fill="#1a1311"/>
      <path id="パス_9443" data-name="パス 9443" d="M86.381,40.884V25.319L97.392,14.309h15.567L123.97,25.319V40.884L112.959,51.9H97.392ZM91.466,0,72.072,19.389V46.817L91.466,66.2h27.417l19.4-19.387V19.389L123.082,4.2,124.9,0Z" transform="translate(112.31)" fill="#1a1311"/>
    </g>
    <g id="グループ_11" data-name="グループ 11" transform="translate(850.807 6632.521)">
      <rect id="長方形_15" data-name="長方形 15" width="3.719" height="7.444" transform="translate(57.51 0.114)" fill="#1a1311"/>
      <rect id="長方形_16" data-name="長方形 16" width="3.713" height="7.441" transform="translate(63.08 0.058)" fill="#1a1311"/>
      <path id="パス_9444" data-name="パス 9444" d="M84.1,62.824l-.479,3.842H76.676V74.1H82.7l-2.288,18.49h7.423L90.124,74.1H98.94v18.49h7.419V66.665H91.048l.464-3.842Z" transform="translate(71.743 -62.822)" fill="#1a1311"/>
      <path id="パス_9445" data-name="パス 9445" d="M95.693,62.823h-.031l-6.67,18.668h7.419l4.017-11.221h10.119l-7.214,22.262h7.423l9.624-29.709Z" transform="translate(97.251 -62.823)" fill="#1a1311"/>
      <path id="パス_9446" data-name="パス 9446" d="M46.9,62.824v3.842H28.346V74.1h6.2l-6.2,18.49h7.423l6.2-18.49H46.9v18.49h7.413V74.1h3.71V66.665h-3.71V62.824Z" transform="translate(-28.346 -62.822)" fill="#1a1311"/>
      <path id="パス_9447" data-name="パス 9447" d="M40.427,62.824V92.588H47.85V77.755l22.265,3.734V74.051L47.85,70.32v-7.5Z" transform="translate(-3.327 -62.822)" fill="#1a1311"/>
      <path id="パス_9448" data-name="パス 9448" d="M55.283,62.824,52.51,92.581h7.426L62.7,62.824Z" transform="translate(21.697 -62.822)" fill="#1a1311"/>
      <path id="パス_9449" data-name="パス 9449" d="M57.344,62.824V92.588H72.19V85.143H64.767V62.824Z" transform="translate(31.708 -62.822)" fill="#1a1311"/>
      <path id="パス_9450" data-name="パス 9450" d="M72.018,62.823l.946,3.716H64.592v7.45H74.877l.961,3.716H64.592v7.441H77.745l1.919,7.444h7.419l-1.916-7.444h9.108V77.7H83.264L82.3,73.989h11.98v-7.45H80.389l-.952-3.716Z" transform="translate(46.719 -62.823)" fill="#1a1311"/>
    </g>
  </g>
</svg>
