<svg xmlns="http://www.w3.org/2000/svg" width="229.75" height="87" viewBox="0 0 229.75 87">
  <g id="グループ_22" data-name="グループ 22" transform="translate(-50 -50)">
    <g id="グループ_10" data-name="グループ 10" transform="translate(-2371.968 424.109)">
      <path id="パス_9440" data-name="パス 9440" d="M108.725,0V38.245l8.379,8.364h25.543l-2.19-10.072H122.1l-3.4-3.4V0Z" transform="translate(2509.07 -374.109)" fill="#1a1311"/>
      <path id="パス_9441" data-name="パス 9441" d="M48.092,10.074H64.03l7.754,7.752V28.784L64.03,36.538H48.092ZM35.637,0l2.381,5.5V41.1l-2.381,5.506h32.57L81.857,32.96V13.654L68.207,0Z" transform="translate(2450.518 -374.109)" fill="#1a1311"/>
      <path id="パス_9442" data-name="パス 9442" d="M10.072,28.784V17.826l7.756-7.752h10.96l7.75,7.752V28.784l-7.75,7.754H17.827ZM13.654,0,0,13.651V32.96L13.654,46.609h19.3L46.608,32.96V13.651l-10.7-10.7L37.19,0Z" transform="translate(2421.968 -374.109)" fill="#1a1311"/>
      <path id="パス_9443" data-name="パス 9443" d="M82.146,28.784V17.826L89.9,10.074h10.96l7.752,7.752V28.784l-7.752,7.754H89.9ZM85.726,0,72.072,13.651V32.96L85.726,46.609h19.3L118.685,32.96V13.651l-10.7-10.7L109.263,0Z" transform="translate(2479.707 -374.109)" fill="#1a1311"/>
    </g>
    <g id="グループ_11" data-name="グループ 11" transform="translate(-2420.226 354.27)">
      <rect id="長方形_15" data-name="長方形 15" width="2.618" height="5.241" transform="translate(2548.715 -238.146)" fill="#1a1311"/>
      <rect id="長方形_16" data-name="長方形 16" width="2.614" height="5.239" transform="translate(2552.636 -238.185)" fill="#1a1311"/>
      <path id="パス_9444" data-name="パス 9444" d="M81.9,62.824l-.337,2.7H76.676v5.232H80.92L79.309,83.778h5.226l1.609-13.018h6.207V83.778h5.224V65.528H86.794l.326-2.7Z" transform="translate(2536.042 -301.048)" fill="#1a1311"/>
      <path id="パス_9445" data-name="パス 9445" d="M93.71,62.823h-.022l-4.7,13.143h5.224l2.828-7.9h7.124L99.089,83.738h5.226l6.776-20.916Z" transform="translate(2550.354 -301.049)" fill="#1a1311"/>
      <path id="パス_9446" data-name="パス 9446" d="M41.407,62.824v2.7H28.346v5.232h4.363L28.346,83.778h5.226l4.365-13.018h3.47V83.778h5.219V70.761h2.612V65.528H46.626v-2.7Z" transform="translate(2479.88 -301.048)" fill="#1a1311"/>
      <path id="パス_9447" data-name="パス 9447" d="M40.427,62.824V83.778h5.226V73.336l15.675,2.629V70.728L45.653,68.1V62.824Z" transform="translate(2493.919 -301.048)" fill="#1a1311"/>
      <path id="パス_9448" data-name="パス 9448" d="M54.463,62.824,52.51,83.774h5.228l1.948-20.95Z" transform="translate(2507.96 -301.048)" fill="#1a1311"/>
      <path id="パス_9449" data-name="パス 9449" d="M57.344,62.824V83.778H67.8V78.537H62.57V62.824Z" transform="translate(2513.577 -301.048)" fill="#1a1311"/>
      <path id="パス_9450" data-name="パス 9450" d="M69.82,62.823l.666,2.616H64.592v5.245h7.241L72.51,73.3H64.592v5.239h9.26L75.2,83.78h5.224l-1.349-5.241h6.413V73.3H77.738l-.681-2.616h8.434V65.439H75.714l-.67-2.616Z" transform="translate(2522 -301.049)" fill="#1a1311"/>
    </g>
  </g>
</svg>
