<svg id="instagram_white" xmlns="http://www.w3.org/2000/svg" width="21.889" height="21.893" viewBox="0 0 21.889 21.893">
  <path id="パス_9477" data-name="パス 9477" d="M15.044,5.977c2.924,0,3.267.013,4.423.065A5.973,5.973,0,0,1,21.5,6.42a3.336,3.336,0,0,1,1.26.821,3.388,3.388,0,0,1,.821,1.26,6.085,6.085,0,0,1,.378,2.033c.052,1.156.065,1.5.065,4.423s-.013,3.267-.065,4.423a5.973,5.973,0,0,1-.378,2.033A3.622,3.622,0,0,1,21.5,23.49a6.085,6.085,0,0,1-2.033.378c-1.156.052-1.5.065-4.423.065s-3.267-.013-4.423-.065a5.973,5.973,0,0,1-2.033-.378,3.621,3.621,0,0,1-2.077-2.081,6.085,6.085,0,0,1-.378-2.033c-.052-1.156-.065-1.5-.065-4.423s.013-3.267.065-4.423A5.973,5.973,0,0,1,6.516,8.5,3.621,3.621,0,0,1,8.592,6.416a6.085,6.085,0,0,1,2.033-.378c1.151-.052,1.5-.065,4.419-.061m0-1.977c-2.972,0-3.345.013-4.514.065a7.986,7.986,0,0,0-2.655.513,5.621,5.621,0,0,0-3.2,3.2,8.022,8.022,0,0,0-.508,2.655C4.113,11.6,4.1,11.977,4.1,14.949s.013,3.345.065,4.514a8,8,0,0,0,.508,2.655,5.314,5.314,0,0,0,1.264,1.938,5.428,5.428,0,0,0,1.938,1.264,8.022,8.022,0,0,0,2.655.508c1.164.052,1.538.065,4.514.065s3.345-.013,4.514-.065a8,8,0,0,0,2.655-.508,5.588,5.588,0,0,0,3.2-3.2,8.022,8.022,0,0,0,.508-2.655c.052-1.164.065-1.542.065-4.514s-.013-3.345-.065-4.514a8,8,0,0,0-.508-2.655,5.359,5.359,0,0,0-1.26-1.938,5.424,5.424,0,0,0-1.942-1.264,8.022,8.022,0,0,0-2.655-.508C18.394,4.017,18.016,4,15.044,4Z" transform="translate(-4.1 -4)"/>
  <path id="パス_9478" data-name="パス 9478" d="M132.222,126.6a5.622,5.622,0,1,0,5.622,5.622h0a5.623,5.623,0,0,0-5.622-5.622Zm0,9.272a3.65,3.65,0,1,1,3.65-3.65,3.649,3.649,0,0,1-3.65,3.65Z" transform="translate(-121.278 -121.273)"/>
  <circle id="楕円形_2" data-name="楕円形 2" cx="1.312" cy="1.312" r="1.312" transform="translate(15.476 3.793)"/>
</svg>
