<svg xmlns="http://www.w3.org/2000/svg" xmlns:xlink="http://www.w3.org/1999/xlink" width="26.508" height="18.555" viewBox="0 0 26.508 18.555">
  <defs>
    <clipPath id="clip-path">
      <rect id="長方形_40" data-name="長方形 40" width="26.508" height="18.555" fill="none"/>
    </clipPath>
  </defs>
  <g id="グループ_37" data-name="グループ 37" clip-path="url(#clip-path)">
    <path id="パス_9479" data-name="パス 9479" d="M25.954,2.9A3.32,3.32,0,0,0,23.611.554C21.543,0,13.254,0,13.254,0S4.965,0,2.9.554A3.32,3.32,0,0,0,.554,2.9,34.489,34.489,0,0,0,0,9.278a34.491,34.491,0,0,0,.554,6.38A3.319,3.319,0,0,0,2.9,18c2.067.554,10.356.554,10.356.554s8.289,0,10.357-.554a3.319,3.319,0,0,0,2.343-2.343,34.491,34.491,0,0,0,.554-6.38,34.489,34.489,0,0,0-.554-6.38M10.6,13.254V5.3L17.49,9.278Z" transform="translate(0 0)" fill="#070203"/>
  </g>
</svg>
