<svg id="グループ_28" data-name="グループ 28" xmlns="http://www.w3.org/2000/svg" width="30" height="30" viewBox="0 0 30 30">
  <g id="パス_9469" data-name="パス 9469" fill="none">
    <path d="M15,0A14.994,14.994,0,1,0,27.866,7.285,15,15,0,0,0,15,0Z" stroke="none"/>
    <path d="M 14.99999904632568 0.9999980926513672 C 11.26046943664551 0.9999980926513672 7.744758605957031 2.456249237060547 5.100509643554688 5.100509643554688 C 2.456249237060547 7.744758605957031 0.9999980926513672 11.26046943664551 0.9999980926513672 14.99999904632568 C 0.9999980926513672 18.73952865600586 2.456249237060547 22.25523948669434 5.100509643554688 24.89948844909668 C 7.744758605957031 27.54374885559082 11.26046943664551 29 14.99999904632568 29 C 18.73952865600586 29 22.25523948669434 27.54374885559082 24.89948844909668 24.89948844909668 C 27.54374885559082 22.25523948669434 29 18.73952865600586 29 14.99999904632568 C 29 12.4555492401123 28.3289794921875 10.03100967407227 27.00545883178711 7.793558120727539 C 25.81275939941406 5.77625846862793 24.09427833557129 4.079288482666016 22.03580856323242 2.886089324951172 C 19.90711975097656 1.652198791503906 17.47417831420898 0.9999980926513672 14.99999904632568 0.9999980926513672 M 14.99999904632568 -1.9073486328125e-06 C 20.50075912475586 -1.9073486328125e-06 25.3099479675293 2.960939407348633 27.86625862121582 7.284618377685547 C 29.24181938171387 9.610048294067383 30 12.21647834777832 30 14.99999904632568 C 30 23.28426933288574 23.28426933288574 30 14.99999904632568 30 C 6.715728759765625 30 -1.9073486328125e-06 23.28426933288574 -1.9073486328125e-06 14.99999904632568 C -1.9073486328125e-06 6.715728759765625 6.715728759765625 -1.9073486328125e-06 14.99999904632568 -1.9073486328125e-06 Z" stroke="none" fill="#000"/>
  </g>
  <path id="Icon_ionic-ios-arrow-round-forward" data-name="Icon ionic-ios-arrow-round-forward" d="M12.812,11.426a.619.619,0,0,1,0,.871L9.939,15.18H20.893a.615.615,0,0,1,0,1.231H9.944l2.878,2.883a.623.623,0,0,1,0,.871.613.613,0,0,1-.866,0l-3.9-3.929h0a.691.691,0,0,1-.128-.194.587.587,0,0,1-.047-.237.617.617,0,0,1,.175-.431l3.9-3.929A.6.6,0,0,1,12.812,11.426Z" transform="translate(0.385 -0.902)"/>
</svg>
