<svg xmlns="http://www.w3.org/2000/svg" width="79.439" height="824.942" viewBox="0 0 79.439 824.942">
  <g id="グループ_4541" data-name="グループ 4541" transform="translate(0 -11.514)">
    <path id="パス_9" data-name="パス 9" d="M15.444,43.889A12.918,12.918,0,0,0,18.479,50.4c3.66,4.107,10.354,4.822,15.53,4.822A120.606,120.606,0,0,0,61.144,52.1a3.738,3.738,0,0,1,.98-.18c1.339,0,1.694,1.608,1.694,5.177,0,1.428-.265,2.856-1.782,3.392-4.018,1.428-21.778,2.589-26.778,2.589-9.014,0-18.922-1.339-24.545-9.282-1.25-1.876-3.213-5.8-3.213-8.123,0-1.964,6.159-3.3,6.248-3.3,1.071,0,1.428.536,1.7,1.517M20.8,8.186A53.143,53.143,0,0,0,36.24,10.15,71.352,71.352,0,0,0,52.486,8.365c.268,0,.713-.089,1.07-.089,2.054,0,2.054,4.283,2.054,5.711,0,2.142-.536,2.412-2.321,2.679a125.358,125.358,0,0,1-16.335.98c-4.015,0-17.047-.445-19.993-2.409a1.789,1.789,0,0,1-.714-1.7,37.506,37.506,0,0,1,.714-4.2c.268-.8.536-1.607,1.607-1.607a9.893,9.893,0,0,1,2.232.446" transform="translate(3.657 3.774)" fill="#fff"/>
    <path id="パス_10" data-name="パス 10" d="M15.444,103.289a12.929,12.929,0,0,0,3.035,6.516c3.66,4.106,10.354,4.82,15.53,4.82A120.521,120.521,0,0,0,61.144,111.5a3.8,3.8,0,0,1,.98-.179c1.339,0,1.694,1.607,1.694,5.177,0,1.428-.265,2.856-1.782,3.392-4.018,1.428-21.778,2.589-26.778,2.589-9.014,0-18.922-1.339-24.545-9.283-1.25-1.874-3.213-5.8-3.213-8.123,0-1.964,6.159-3.3,6.248-3.3,1.071,0,1.428.536,1.7,1.517m5.356-35.7A53.143,53.143,0,0,0,36.24,69.55a71.351,71.351,0,0,0,16.245-1.785c.268,0,.713-.089,1.07-.089,2.054,0,2.054,4.284,2.054,5.713,0,2.142-.536,2.41-2.321,2.678a125.358,125.358,0,0,1-16.335.982c-4.015,0-17.047-.446-19.993-2.41a1.788,1.788,0,0,1-.714-1.7,37.505,37.505,0,0,1,.714-4.2c.268-.8.536-1.607,1.607-1.607a9.893,9.893,0,0,1,2.232.446" transform="translate(3.657 32.742)" fill="#fff"/>
    <path id="パス_11" data-name="パス 11" d="M52.5,130.116c0,.982-1.16,1.607-2.321,2.41-3.3,2.321-17.315,17.049-17.315,18.477a.817.817,0,0,0,.893.714,5.867,5.867,0,0,0,2.053-.536,27.654,27.654,0,0,1,8.925-1.607c11.961,0,21.69,7.943,21.69,20.35,0,10.89-7.587,17.226-17.049,20.976-3.838,1.516-10.622,3.3-14.728,3.3-2.409,0-4.372-6.159-4.372-6.875,0-1.07,1.607-1.07,2.589-1.07h1.874c9.817,0,23.652-5,23.652-16.692,0-8.926-7.855-13.121-15.888-13.121a28.969,28.969,0,0,0-18.654,6.873c-3.927,3.3-6.784,7.676-9.283,12.049-.8,1.519-1.339,2.769-2.41,2.769-1.339,0-5.98-2.946-5.98-4.909,0-.8.714-1.607,2.321-3.481.625-.8,1.428-1.7,2.321-2.767,6.784-8.39,13.389-17.047,20.441-25.17,1.873-2.053,3.66-4.2,5.533-6.337a2.123,2.123,0,0,0,.625-1.16.819.819,0,0,0-.891-.8,10.338,10.338,0,0,0-1.607.357c-2.678.625-14.282,2.856-16.513,2.856s-3.035-5.623-3.035-6.516c0-1.785,1.16-1.7,2.678-1.7,6.427-.178,19.368-1.16,24.814-4.2a5.7,5.7,0,0,1,2.321-.893c2.141,0,7.318,4.909,7.318,6.695" transform="translate(3.013 60.189)" fill="#fff"/>
    <path id="パス_12" data-name="パス 12" d="M23.384,231.029c-1.25,0-12.584,9.1-14.28,10.533-.359.268-.8.714-1.25.714-1.607,0-4.374-5.088-4.374-6.784,0-.893.8-1.16,1.785-1.7,5-2.946,9.729-6.248,14.637-9.192,3.66-2.231,4.106-2.41,4.106-4.822,0-3.3.089-6.6.089-10,0-1.162-.536-2.142-1.874-2.142-.268,0-7.052,1.16-7.943,1.339a11.09,11.09,0,0,1-2.412.266c-.982,0-2.232,0-2.232-5.265,0-2.321.359-2.321,2.053-2.41,3.213-.089,6.605-.536,9.819-.893,1.428-.178,2.5-.625,2.856-2.053.089-.446.357-8.39.357-9.282,0-.983-.089-2.231-.179-3.215,0-.179-.089-.625-.089-.891a1.055,1.055,0,0,1,1.071-1.162c1.16,0,5.98,1.071,7.409,1.34.536.177,1.607.356,1.607,1.071,0,.625-.625,1.16-1.071,1.516-1.071,1.16-1.25,2.947-1.517,5.713a22.034,22.034,0,0,1-.179,2.322v.98a1.265,1.265,0,0,0,1.339,1.339,57.949,57.949,0,0,0,6.695-1.785,6.664,6.664,0,0,1,1.428-.356c1.607,0,1.873,4.462,1.873,5.711,0,2.142-1.07,2.23-8.568,3.481-3.927.625-3.57,1.339-3.57,8.837,0,1.785.089,3.481,1.16,3.481a5.8,5.8,0,0,0,1.964-.716,43.931,43.931,0,0,1,16.155-3.658c9.64,0,19.012,5.8,19.012,16.244a14.744,14.744,0,0,1-7.141,12.853c-4.909,3.123-12.763,3.66-18.475,3.66-1.34,0-3.124-.089-3.572-.714a17.315,17.315,0,0,1-1.337-5.623c0-.893.357-1.7,1.337-1.7,1.162,0,3.749.893,7.5.893,5.891,0,13.925-1.964,13.925-9.282,0-6.339-6.425-9.372-11.872-9.372A36.6,36.6,0,0,0,32.4,225.229a2.874,2.874,0,0,0-1.071,2.319c0,1.428.179,4.82.357,6.428.089,1.605.8,10.442.8,11.067,0,4.106-4.552,5.713-6.695,5.713-1.874,0-2.5-1.785-3.124-3.213A18.193,18.193,0,0,0,17.4,240.4c-.446-.357-1.071-.893-1.071-1.517a1.663,1.663,0,0,1,1.7-1.517c.893,0,3.57,2.41,4.731,2.946a2.813,2.813,0,0,0,1.517.8c.446,0,.536-.357.536-.626,0-.534-.357-3.747-.357-5-.089-3.124.089-4.463-1.071-4.463m36.863-34.274c2.053,1.519,6.516,5.356,8.837,7.141.8.357,4.642,4.106,4.642,4.551,0,1.428-3.035,5-4.552,5-.714,0-1.339-.625-1.874-1.071a133.457,133.457,0,0,0-11.515-9.819c-.625-.536-1.517-1.071-1.517-1.964,0-1.25,3.124-4.642,4.374-4.642a2.77,2.77,0,0,1,1.607.8" transform="translate(1.697 89.771)" fill="#fff"/>
    <path id="パス_13" data-name="パス 13" d="M18.958,247.524c1.25-.179,4.642-.625,5.98-.625,2.321,0,2.142,1.16,2.321,3.035a121.893,121.893,0,0,0,3.3,17.763c.179.893.536,2.321,1.964,2.321S46.718,262.254,48.769,261a5,5,0,0,1,2.321-1.071c1.428,0,4.82,6.248,4.82,7.407,0,.894-1.071,1.073-1.694,1.251-6.516,2.142-17.763,8.033-23.922,11.6-5.534,3.213-14.726,8.569-14.726,15.978,0,3.481,3.39,6.248,6.336,7.319A38.555,38.555,0,0,0,34.311,305.1,146.109,146.109,0,0,0,57.7,302.864a3.043,3.043,0,0,1,.894-.089c1.248,0,1.159,3.123,1.159,4.729,0,2.412-.089,3.393-1.874,3.75-3.481.713-19.993,1.337-24.188,1.337-6.427,0-12.227-.445-17.94-3.747a14.879,14.879,0,0,1-7.767-13.12c0-8.926,6.964-14.729,13.925-19.191,1.071-.714,2.232-1.251,2.232-2.767a4.193,4.193,0,0,0-.357-1.428c-1.339-3.572-3.57-12.139-4.463-16.156a53.017,53.017,0,0,0-1.874-6.427,2.37,2.37,0,0,1-.266-1.071c0-.8,1.07-1.07,1.784-1.16m42.4,5.266c.714,1.34,3.392,4.909,3.392,5.98,0,1.251-3.124,2.946-4.2,2.946-.8,0-.982-.625-1.962-2.319a55.9,55.9,0,0,0-3.84-6.25c-.534-.8-.893-1.248-.893-1.785,0-.891,3.035-2.589,4.017-2.589.893,0,2.946,3.213,3.481,4.017m9.1-5.445c.625.894,3.3,4.82,3.3,5.623,0,1.25-3.124,3.035-4.2,3.035-.714,0-.982-.536-1.339-1.16a72.553,72.553,0,0,0-4.82-7.944c-.179-.266-.625-.713-.625-1.159,0-1.073,3.124-2.679,4.106-2.679.8,0,2.053,1.964,3.57,4.284" transform="translate(3.891 118.534)" fill="#fff"/>
    <path id="パス_14" data-name="パス 14" d="M53,314.009c0,.537-1.25,1.25-1.7,1.519-4.2,2.766-11.336,10.263-14.817,14.1a2.346,2.346,0,0,0-.625,1.339,1,1,0,0,0,1.071.893,10.932,10.932,0,0,0,1.517-.268,19.855,19.855,0,0,1,5.088-.625c11.424,0,21.689,6.873,21.689,19.1,0,15.173-13.655,23.3-27.58,23.3-4.463,0-9.1-.8-12.764-3.57A9.944,9.944,0,0,1,20.6,361.94c0-5.713,5.088-9.906,10.622-9.906,5.623,0,12.853,4.461,12.853,10.71a11.07,11.07,0,0,1-.357,2.231.842.842,0,0,0,.893.893c1.874,0,12.943-4.374,12.943-15.44,0-9.1-7.855-12.854-15.978-12.854a27.465,27.465,0,0,0-20.173,8.569c-3.3,3.212-6.427,6.693-9.46,10.176-.536.625-.893,1.159-1.428,1.159-1.785,0-5.177-3.838-5.177-5.088,0-.98,1.16-1.784,1.785-2.41,11.158-9.728,20.975-20.795,31.061-31.6.446-.536,1.071-1.073,1.071-1.876,0-.713-.625-.98-1.25-.98a10.978,10.978,0,0,0-1.7.268c-5.534,1.339-11.247,2.319-16.87,3.392a19.6,19.6,0,0,1-2.232.356c-1.962,0-2.141-5-2.141-6.425,0-2.053.446-2.231,2.944-2.231h1.608c5.98,0,16.869-1.34,22.492-3.3a12.308,12.308,0,0,1,3.124-.8c3.392,0,7.766,5.8,7.766,7.229M31.4,357.923a4.2,4.2,0,0,0-4.372,4.017c0,3.66,4.908,5.445,7.943,5.445,1.785,0,2.5-2.053,2.5-3.57a5.926,5.926,0,0,0-6.07-5.891" transform="translate(2.604 149.608)" fill="#fff"/>
    <path id="パス_15" data-name="パス 15" d="M33.473,389.83c1.785,0,2.5-.716,2.5-2.5V373.942a33.642,33.642,0,0,0-.357-6.07v-.893c0-.982.714-1.16,1.428-1.16,1.16,0,4.909.357,6.248.446.714.089,1.964.179,1.964,1.071,0,.623-.536.8-1.16,1.248-.982.716-1.071,1.965-1.071,4.909v13.835c0,1.785.714,2.5,2.5,2.5h8.212c1.694,0,2.409-.716,2.409-2.5V374.924a37.927,37.927,0,0,0-.266-5.536,3.021,3.021,0,0,1-.089-.891c0-.982.714-1.071,1.517-1.071,1.159,0,4.908.268,6.157.356.714.091,1.964.178,1.964,1.073,0,.625-.536.893-1.16,1.25-.982.713-1.071,2.053-1.071,5.622v11.6c0,1.785.714,2.5,2.5,2.5h.268c3.66,0,7.23-.179,10.89-.179,1.964,0,2.053.891,2.053,3.747s-.089,3.66-2.053,3.66c-3.66,0-7.23-.179-10.89-.179h-.268c-1.785,0-2.5.714-2.5,2.5v11.245c0,3.838.179,7.676.179,11.6,0,2.589-.714,2.856-3.66,2.856-1.694,0-2.767,0-3.392-.8-.445-.8-.714-1.25-1.7-1.339H44.452c-.625.089-.982.268-1.517,1.25-.714.893-1.7.893-3.481.893-2.946,0-3.66-.268-3.66-2.946,0-4.017.179-7.943.179-11.87v-10.89c0-1.785-.714-2.5-2.5-2.5H24.636c-1.785,0-2.5.714-2.5,2.5v32.669c0,1.784.8,2.5,2.5,2.5H64.355c3.57,0,7.141-.268,10.711-.268,2.053,0,2.053.982,2.053,3.749s0,3.66-2.053,3.66c-3.57,0-7.141-.179-10.711-.179H24.19c-1.339,0-1.607.534-1.873,1.7-.18,1.873-.537,2.41-3.84,2.41-3.212,0-3.927-.359-3.927-3.3,0-4.285.179-8.658.179-12.943v-29.99c0-1.785-.714-2.5-2.409-2.5-3.3-.089-6.695.179-10,.179-1.964,0-2.142-.8-2.142-3.66,0-2.944.179-3.747,2.142-3.747,3.3,0,6.695.266,10,.179,1.694,0,2.409-.716,2.409-2.5V375.9a48.35,48.35,0,0,0-.266-6.336,3.036,3.036,0,0,1-.089-.893c0-.982.625-1.25,1.517-1.25,1.25,0,5.088.356,6.6.446.714.088,1.965.179,1.965,1.16,0,.625-.537.8-1.251,1.25-.98.714-1.071,2.321-1.071,5.266v11.781c0,1.785.714,2.5,2.5,2.5Zm9.551,24.277c0,1.7.982,2.321,2.589,2.321h8.033c1.607,0,2.319-.625,2.5-2.321V399.379c0-1.785-.714-2.5-2.409-2.5H45.523c-1.785,0-2.5.714-2.5,2.5Z" transform="translate(0.088 178.399)" fill="#fff"/>
    <path id="パス_16" data-name="パス 16" d="M28.383,477.171c0,.537.359.716.8.716,2.856.266,4.106.445,4.106,1.25,0,.623-.714.891-1.16,1.159a1.761,1.761,0,0,0-.893,1.339c-.089,10.086-3.033,18.477-11.87,24.011-1.874,1.159-6.605,3.481-8.748,3.481-2.053,0-3.838-3.66-3.838-4.909s1.428-1.428,2.41-1.7c10.533-2.944,14.9-9.728,15.085-20.528-.089-.714-.357-1.339-1.25-1.339a1.451,1.451,0,0,0-.8.268c-3.213,1.964-15.621,8.569-18.923,8.569-1.607,0-3.3-3.481-3.3-4.909,0-1.16,1.339-1.517,2.232-1.874,10.354-3.749,19.547-7.766,27.669-15.263a.966.966,0,0,0,.359-.8c0-.625-.537-.891-1.073-.891H17.763c-.8,0-.893.357-1.964,1.517-.268.268-1.25.625-3.481.625-2.946,0-3.57-.357-3.57-2.142,0-.983.179-4.463.179-5.8V442.093c0-1.7-.179-3.481-.179-5.266,0-3.39,1.874-3.927,4.82-3.927,2.5,0,5,.091,7.5.091H58.732c2.5,0,4.909-.091,7.407-.091,3.035,0,4.911.446,4.911,3.927,0,1.785-.091,3.57-.091,5.266v17.852c0,1.874.179,3.837.179,5.8,0,1.785-.625,2.142-3.66,2.142-.982,0-2.767,0-3.392-.625-.714-.8-1.159-1.428-2.053-1.517H50.074c-.446,0-.982.179-.982.8a.724.724,0,0,0,.357.714A80.875,80.875,0,0,0,76.582,481.9c1.428.448,2.856.8,2.856,2.142,0,1.428-1.7,4.909-3.392,4.909-2.589,0-13.923-5.623-16.69-7.141a2.483,2.483,0,0,0-1.428-.445c-.982,0-1.339.445-1.517,1.337-.089,1.607-.089,3.126-.089,4.731v11.336c0,2.767.268,5.533.268,8.3,0,2.678-.893,2.856-3.749,2.856s-3.749-.179-3.749-2.768c0-2.766.179-5.622.179-8.389V485.206a28.388,28.388,0,0,0-.357-5.446v-.893c0-1.159,1.071-1.071,1.964-1.071.357,0,.8-.179.8-.625a.906.906,0,0,0-.357-.625,93.24,93.24,0,0,1-10.265-8.568,2.4,2.4,0,0,0-1.607-.714,2.073,2.073,0,0,0-1.7.8,90.152,90.152,0,0,1-9.014,8.478.674.674,0,0,0-.359.625M36.417,441.2a2.088,2.088,0,0,0-2.232-2.144H18.12a2.064,2.064,0,0,0-2.142,2.144v3.123a2.015,2.015,0,0,0,2.142,2.144H34.185a2.04,2.04,0,0,0,2.232-2.144Zm0,13.209a2.108,2.108,0,0,0-2.232-2.232H18.12a2.086,2.086,0,0,0-2.142,2.232v3.124a2.061,2.061,0,0,0,2.142,2.141H34.185a2.085,2.085,0,0,0,2.232-2.141Zm25.261-7.943a2.04,2.04,0,0,0,2.232-2.144V441.2a2.088,2.088,0,0,0-2.232-2.144H45.611a2.016,2.016,0,0,0-2.142,2.144v3.123a1.971,1.971,0,0,0,2.142,2.144ZM43.468,457.535a2.013,2.013,0,0,0,2.142,2.141H61.677a2.085,2.085,0,0,0,2.232-2.141v-3.124a2.108,2.108,0,0,0-2.232-2.232H45.611a2.04,2.04,0,0,0-2.142,2.232Z" transform="translate(0 211.112)" fill="#fff"/>
    <path id="パス_17" data-name="パス 17" d="M44.417,509.146c8.035,9.194,16.959,18.3,28.115,23.652.716.359,1.7.8,1.7,1.7,0,1.338-3.393,6.693-5.536,6.693-1.34,0-5.533-2.944-6.784-3.927-7.855-5.8-14.459-12.852-20.887-20.171-1.694-1.962-6.427-8.212-9.191-8.212a5.435,5.435,0,0,0-3.213,1.34c-1.519,1.159-4.909,4.194-6.427,5.533-3.572,3.213-7.23,6.338-10.533,9.819-.536.536-1.43,1.518-2.142,1.518-1.519,0-6.16-5.713-6.16-7.052,0-.982,1.874-1.785,2.856-2.231,4.554-2.321,9.909-6.961,13.837-10.354,3.213-2.856,7.227-7.05,11.782-7.05,5.443,0,9.282,4.909,12.583,8.746" transform="translate(1.638 244.031)" fill="#fff"/>
    <path id="パス_18" data-name="パス 18" d="M60.275,558.109A12.228,12.228,0,1,1,48.048,545.88a12.226,12.226,0,0,1,12.227,12.229m-20.439,0a8.167,8.167,0,1,0,8.212-8.212,8.172,8.172,0,0,0-8.212,8.212" transform="translate(17.468 266.21)" fill="#fff"/>
  </g>
</svg>
