<svg xmlns="http://www.w3.org/2000/svg" width="76.224" height="663.92" viewBox="0 0 76.224 663.92">
  <g id="グループ_4540" data-name="グループ 4540" transform="translate(-159.151 0)">
    <path id="パス_1" data-name="パス 1" d="M144.424,20.707a2.611,2.611,0,0,0,2.589-2.678l-.089-3.749c-.089-3.3-.089-9.015-.625-12.049,0-.359-.089-.8-.089-1.162,0-.891.536-1.07,1.339-1.07a40.466,40.466,0,0,1,6.338.98c1.7.448,2.053.716,2.053,1.162,0,.623-.625,1.159-1.071,1.517-.714.714-.625,2.141-.625,3.212,0,2.41,0,4.909.089,7.319l.089,3.838a2.546,2.546,0,0,0,2.856,2.5l5.622-.089c3.035-.089,9.64-.357,11.247-.357,1.785,0,2.232.625,2.232,4.2,0,2.678-.268,3.392-2.589,3.392-1.7,0-3.392-.089-5-.089-1.962,0-3.838.089-5.8.089l-5.711.089a2.557,2.557,0,0,0-2.678,2.587l.446,22.137c.089,3.838.446,11.068-1.964,14.1-2.856,3.57-9.462,4.017-13.657,4.017-1.25,0-2.232-.18-2.767-1.428a15.191,15.191,0,0,1-1.16-4.909,1.183,1.183,0,0,1,1.339-1.339c.357,0,1.785.089,3.213.089,7.5,0,7.587-1.428,7.587-7.766V53.285L147.28,34.1a1.065,1.065,0,0,0-.982-1.071c-.8,0-1.071.625-1.785,1.517a122.6,122.6,0,0,1-27.58,25.884c-.8.536-2.142,1.517-3.035,1.517-1.517,0-5-3.3-5-4.82,0-.8,1.16-1.428,1.785-1.785a100.094,100.094,0,0,0,26.509-22.492c.536-.625,2.678-3.035,2.678-3.749,0-.8-.714-1.071-1.428-1.071l-15.53.268c-3.213.089-9.372.446-11.068.446-1.874,0-2.232-1.25-2.232-3.927,0-2.856,0-3.749,2.321-3.749,1.964,0,3.927.089,5.8.089,1.7,0,3.392-.089,5-.089Z" transform="translate(53.107)" fill="#fff"/>
    <path id="パス_2" data-name="パス 2" d="M133.308,122.331c0,3.926.179,7.853.179,11.781,0,3.838-.357,4.285-4.463,4.285-2.856,0-4.017-.179-4.017-3.3,0-4.2.179-8.48.179-12.673v-49c0-2.5-.089-5.266-.268-7.23,0-.357-.179-1.25-.179-1.607,0-.8.268-1.16,1.071-1.16s5.713.8,6.695.982c1.071.268,2.142.446,2.142,1.339a1.993,1.993,0,0,1-.536,1.16c-.714.893-.714,1.517-.714,2.946-.089,2.41-.089,4.909-.089,7.319Zm18.3-23.743c1.876,1.517,4.82,4.017,4.82,5.088,0,1.517-3.124,4.909-4.642,4.909a2.7,2.7,0,0,1-1.873-1.071,125.41,125.41,0,0,0-14.282-11.425c-.714-.446-1.607-.982-1.607-1.874,0-1.428,2.678-5.088,4.106-5.088,1.339,0,7.944,5.088,10.979,7.5.8.625,1.694,1.25,2.5,1.964m8.212-19.011c0,1.16-2.678,3.481-3.927,3.481-.536,0-.982-.625-1.25-.982a75.358,75.358,0,0,0-5.98-7.052c-.356-.357-.8-.8-.8-1.25,0-.982,2.856-3.124,3.747-3.124.982,0,8.212,7.944,8.212,8.926M165.351,69.4c.625.625,3.3,3.57,3.3,4.374,0,1.16-2.678,3.481-3.838,3.481-.536,0-.982-.536-1.25-.982a74.61,74.61,0,0,0-6.07-7.052c-.268-.268-.8-.714-.8-1.16,0-.982,2.856-3.213,3.749-3.213.8,0,4.2,3.749,4.909,4.552" transform="translate(60.832 30.929)" fill="#fff"/>
    <path id="パス_3" data-name="パス 3" d="M129.741,131.89c2.053.357,2.856.357,2.856,1.16,0,.446-.536.893-.8,1.25-.625.625-.537,2.41-.537,3.3,0,16.244-.266,30.079-10.8,43.467-.982,1.251-5.713,6.695-7.141,6.695-1.159,0-6.337-2.5-6.337-3.927,0-.623.536-1.07.983-1.427,13.477-10.8,15.619-23.833,15.619-40.166a62.217,62.217,0,0,0-.446-9.1v-.982c0-.714.446-.893,1.071-.893.982,0,4.374.446,5.534.625m21.778,40.076c0,2.5.089,3.569,1.248,3.569a6,6,0,0,0,2.59-1.337,195.136,195.136,0,0,0,22.4-18.565c.443-.448,1.068-1.162,1.694-1.162,1.34,0,3.747,4.285,3.747,5.445,0,1.339-3.389,3.927-4.463,4.82-4.283,3.838-8.745,7.5-13.208,10.979-2.679,2.142-10.265,7.764-12.05,9.283a4.079,4.079,0,0,1-2.412,1.337c-.982,0-4.194-1.607-5.176-2.141-1.16-.625-2.409-1.34-2.409-2.769,0-.534.354-5.622.354-10.71V138.049a51.884,51.884,0,0,0-.266-6.427,9.061,9.061,0,0,1-.177-1.428.8.8,0,0,1,.893-.893c.98,0,5.8.893,6.961,1.071.8.179,1.7.446,1.7,1.16a1.523,1.523,0,0,1-.626,1.16,3.338,3.338,0,0,0-.713,2.231c-.089,2.321-.089,6.248-.089,8.657Z" transform="translate(52.171 63.057)" fill="#fff"/>
    <path id="パス_4" data-name="パス 4" d="M132.9,199.869a2.148,2.148,0,0,0,1.874-2.232,6.028,6.028,0,0,0-.179-1.25l-.357-1.964a81,81,0,0,0-2.142-9.462,3.152,3.152,0,0,1-.268-.982c0-1.07,1.607-1.339,8.123-1.339.536,0,1.874,0,1.874.894s-1.16,1.516-1.16,3.123c0,.982.893,6.07,1.16,7.319l.357,1.962a2.672,2.672,0,0,0,2.946,2.144l8.21-1.16c1.517-.18,11.158-1.787,11.6-1.787,1.071,0,1.428.626,1.607,1.519a22.69,22.69,0,0,1,.625,4.194c0,1.7-1.071,1.7-5.891,2.322-1.785.179-4.017.446-6.962.891l-8.032,1.162a2.233,2.233,0,0,0-1.785,2.767l2.23,11.959A2.569,2.569,0,0,0,149.594,222l15.621-2.232c1.517-.179,11.424-1.874,11.782-1.874a1.521,1.521,0,0,1,1.517.982,25.239,25.239,0,0,1,.714,4.642c0,1.874-.536,1.874-6.248,2.589q-2.544.268-6.695.8l-15.441,2.232a2.208,2.208,0,0,0-1.876,2.678l1.339,7.052c.448,2.319,2.946,13.3,2.946,14.548,0,1.16-.714,1.519-1.694,1.874a18.041,18.041,0,0,1-4.374.8c-1.7,0-1.965-1.607-2.142-3.481a5.358,5.358,0,0,0-.179-1.071c-.536-3.123-1.25-8.123-1.874-11.245l-1.428-7.232a2.6,2.6,0,0,0-2.946-2.141l-16.692,2.41c-1.607.268-10.8,1.784-11.425,1.784a1.573,1.573,0,0,1-1.694-1.337,24.457,24.457,0,0,1-.626-4.463c0-1.607,1.073-1.785,5.536-2.232,1.784-.179,4.194-.446,7.229-.893l16.424-2.41a2.174,2.174,0,0,0,1.964-2.678l-2.321-11.961a2.554,2.554,0,0,0-2.946-2.141l-8.837,1.25c-1.7.266-11.158,1.785-11.782,1.785-1.873,0-2.142-4.375-2.142-5.8,0-1.516,1.339-1.694,5.268-2.141,1.962-.178,4.462-.536,7.675-.982Z" transform="translate(52.756 89.069)" fill="#fff"/>
    <path id="パス_5" data-name="パス 5" d="M120.51,263.759l15.174-.178a2.6,2.6,0,0,0,2.587-2.321c.18-1.25.8-12.049.8-13.655,0-.893-.089-2.144.982-2.144.891,0,6.068,1.251,7.23,1.519.625.179,1.605.357,1.605,1.07a1.767,1.767,0,0,1-.891,1.428c-.983.625-1.073.894-1.427,5.088-.092.982-.182,2.053-.359,3.393-.091,1.159-.269,3.123-.269,3.569a1.852,1.852,0,0,0,1.874,1.964l10.713-.089c1.516,0,5.89-.089,7.23-.177a13.068,13.068,0,0,1,1.873-.179c1.7,0,4.374,2.766,4.374,4.372,0,.714-.714,5.891-.8,7.052-.8,7.141-1.516,14.369-2.946,21.422-.891,4.372-2.231,10.888-5.98,13.745-3.3,2.589-8.746,3.3-12.853,3.3a2.643,2.643,0,0,1-2.767-1.607,12.173,12.173,0,0,1-1.785-4.82,1.314,1.314,0,0,1,1.43-1.428,8.751,8.751,0,0,1,1.516.179c1.071.089,2.142.089,3.3.089,5.891,0,7.946-2.678,9.462-9.906.982-4.82,2.767-17.941,2.767-22.583,0-2.321-.982-2.232-5.534-2.232l-11.068.089c-2.321,0-2.589,2.232-2.766,3.124-2.412,11.247-6.336,20.975-13.3,30.17-1.607,2.23-10.176,12.316-12.5,12.316-1.428,0-5.266-3.213-5.266-4.642,0-.8,1.071-1.428,1.785-1.964,10.8-8.3,18.478-22.047,21.422-35.167a7.435,7.435,0,0,0,.268-1.964,1.716,1.716,0,0,0-1.785-1.7l-14.014.089c-2.5,0-7.319.268-8.748.268-1.785,0-2.053-1.16-2.053-4.017s.268-3.66,2.053-3.66c2.589,0,5.088.178,7.676.178Z" transform="translate(53.546 119.704)" fill="#fff"/>
    <path id="パス_6" data-name="パス 6" d="M158.434,323.671a31.774,31.774,0,0,0,5.8-.446,3.036,3.036,0,0,1,.893-.089c1.607,0,5.088,4.106,5.088,5.177,0,.357-.357.893-.982,1.874-.625,1.071-1.607,2.589-2.767,4.909-8.569,16.87-17.406,30.078-33.65,40.523-1.874,1.159-10.265,6.337-12.05,6.337s-6.337-3.213-6.337-4.642c0-.893,1.16-1.34,1.785-1.607a86.108,86.108,0,0,0,14.014-7.766,76.862,76.862,0,0,0,21.064-21.867c1.517-2.232,7.23-11.782,7.23-14.014,0-1.071-1.428-1.162-2.767-1.162H136.567c-2.232,0-2.678.537-3.927,2.322-1.785,2.41-11.961,14.816-14.371,14.816-.982,0-6.07-2.5-6.07-4.194,0-.537.446-.8.8-1.162,8.926-6.961,19.727-20.707,23.565-31.418.268-.713.536-1.962,1.339-1.962A23.349,23.349,0,0,1,142.1,311c.893.359,1.607.714,1.962.8.625.266,2.142.8,2.142,1.607,0,.445-.536.8-.891.982-1.517.8-1.607.98-2.5,2.766-.445.8-.982,1.875-1.873,3.392a3.745,3.745,0,0,0-.8,1.7c0,.893.625,1.339,1.517,1.428Z" transform="translate(54.716 150.838)" fill="#fff"/>
    <path id="パス_7" data-name="パス 7" d="M113,380.977c13.031-.714,25.973-2.142,38.916-3.66,6.338-.8,14.282-1.607,20.439-2.678a5.222,5.222,0,0,1,1.16-.179c1.16,0,1.339.982,1.517,1.873a29.539,29.539,0,0,1,.536,4.822c0,1.964-1.25,1.964-3.481,1.964-5.177.089-10.263.178-15.173,1.784-7.23,2.41-12.139,6.964-15.8,13.48a35.6,35.6,0,0,0-4.909,17.226c0,5,2.142,10.354,7.052,12.407a26.853,26.853,0,0,0,10.265,1.516c1.16,0,2.41-.088,3.481-.088s2.053,0,2.053,1.25a18.22,18.22,0,0,1-1.25,5.8c-.536,1.16-1.071,1.339-2.41,1.339-14.371,0-27.135-5.088-27.135-21.6a40.874,40.874,0,0,1,11.247-27.58c1.25-1.25,1.7-1.607,1.7-2.053,0-.625-.714-.8-1.16-.8-1.337,0-11.961,1.516-14.1,1.785-4.642.714-9.283,1.428-13.835,2.587a7,7,0,0,1-1.339.269c-1.964,0-2.589-6.962-2.589-7.5,0-1.964,1.16-1.785,4.82-1.964m55.7,14.549c.625.713,3.481,3.837,3.481,4.818,0,1.25-2.856,3.392-4.018,3.392-.536,0-.891-.536-1.159-.982-1.787-2.5-3.84-4.909-5.891-7.319-.18-.266-.714-.8-.714-1.16,0-1.071,2.946-3.033,3.838-3.033s2.767,2.321,4.463,4.285m13.834.177c0,1.16-2.856,3.392-4.017,3.392-.536,0-.893-.625-1.25-1.07a76.392,76.392,0,0,0-5.8-7.232c-.269-.356-.714-.8-.714-1.25,0-.982,2.946-3.035,3.926-3.035s7.855,8.3,7.855,9.194" transform="translate(52.756 182.614)" fill="#fff"/>
    <path id="パス_8" data-name="パス 8" d="M163.8,447.184c0,1.428-3.481,5.622-5.266,5.622-.714,0-1.339-.8-1.785-1.337A52.022,52.022,0,0,0,143.266,439.6c-.625-.357-1.428-.8-1.428-1.7,0-1.428,3.481-5,4.82-5,2.142,0,17.138,12.139,17.138,14.282" transform="translate(69.17 211.114)" fill="#fff"/>
  </g>
</svg>
