<svg xmlns="http://www.w3.org/2000/svg" width="440.19" height="427.84" viewBox="0 0 440.19 427.84">
  <path id="パス_9640" data-name="パス 9640" d="M274.664-19.266c-7.9,0-10.374-3.458-10.374-9.88v-9.386c0-7.41,2.964-10.374,9.88-10.374h45.448c7.41,0,10.374,2.964,10.374,10.374v9.386c0,6.916-2.964,9.88-10.374,9.88Zm44.954-132.886c5.928,0,10.374,3.952,10.374,9.88v4.94c0,5.928-4.446,9.88-10.374,9.88H274.17c-5.928,0-9.88-3.952-9.88-9.88v-4.94c0-5.928,3.952-9.88,9.88-9.88ZM264.29-91.39c0-5.928,3.952-10.374,9.88-10.374h45.448A10.13,10.13,0,0,1,329.992-91.39v6.916c0,5.928-4.446,9.88-10.374,9.88H274.17c-5.928,0-9.88-3.952-9.88-9.88Zm115.1-90.4c-3.952-.494-6.916-1.482-6.916-5.928,0-3.952,7.41-15.314,9.88-19.266,2.47-2.47,3.952-2.964,7.41-3.458,2.964-.494,6.916-.494,6.916-4.446,0-5.434-32.11-19.266-36.062-19.266-3.458,0-4.446,3.458-5.434,5.928-2.47,5.928-15.808,29.146-20.254,35.568-5.928,8.892-9.88,10.868-20.748,10.868H275.158c-1.482-.494-7.41-.494-7.41-6.422,0-4.94,11.362-23.712,15.314-24.7,2.47-.494,7.9-.988,7.9-4.446,0-3.952-6.422-5.928-15.314-9.386-3.952-1.482-19.266-7.41-22.23-7.41s-3.952,2.964-4.94,4.94c-15.808,34.086-41,72.124-65.7,100.282C178.828-124.982,165-110.656,165-106.21c0,6.916,17.784,20.254,24.206,20.254,5.434,0,18.772-18.278,26.676-27.17,1.482-1.482,2.47-2.964,3.458-3.952,1.482-1.482,2.47-1.976,3.952-1.976,2.964,0,3.952,2.964,3.952,4.94v83.98c0,15.314-.988,30.134-.988,44.954,0,13.832,3.458,15.808,19.76,15.808,17.29,0,18.278-2.964,19.266-12.35.494-4.94,2.47-7.41,7.9-7.41H402.61c17.29,0,34.086.988,51.376.988,9.386,0,9.386-4.446,9.386-15.808,0-11.856,0-16.3-9.386-16.3-17.29,0-34.086.988-51.376.988H374.946c-6.916,0-9.88-2.964-9.88-9.88v-9.386c0-7.41,2.964-10.374,9.88-10.374h14.82c17.29,0,35.568.988,42.978.988,8.4,0,8.892-3.952,8.892-13.832,0-10.374-.988-13.832-9.386-13.832-10.374,0-25.688.988-42.484.988h-14.82c-6.916,0-9.88-2.964-9.88-9.88V-91.39c0-6.916,2.964-10.374,9.88-10.374h14.82c17.29,0,35.568.988,42.978.988,8.4,0,8.892-3.952,8.892-13.338,0-10.374-.494-14.326-8.892-14.326-10.868,0-26.182.988-42.978.988h-14.82c-6.916,0-9.88-2.964-9.88-9.88v-4.94c0-6.916,2.964-9.88,9.88-9.88h25.688c16.3,0,33.1.988,46.93.988,9.386,0,9.88-4.446,9.88-15.808,0-11.856-.494-15.808-9.88-15.808-15.808,0-31.616.988-46.93.988Zm-2.47-90.4c-13.338,0-28.158-.988-34.086-.988-7.9,0-8.892,3.952-8.892,15.314s.988,14.82,8.892,14.82,21.242-.988,34.086-.988H403.1c5.434,0,6.916,2.964,8.4,7.41,1.976,5.434,6.916,5.928,17.29,5.928,12.844,0,19.266,0,19.266-10.868,0-9.386-.988-20.748-.988-32.11v-71.63c0-9.386.494-18.772.494-28.158,0-16.3-6.422-19.266-21.242-19.266-8.892,0-18.278.494-27.17.494h-22.23c-11.362,0-22.724-.988-34.086-.988-7.9,0-8.892,3.952-8.892,15.314s.988,14.82,8.892,14.82c11.362,0,22.724-.988,34.086-.988H400.14q11.856,0,11.856,11.856v7.9c0,8.4-3.952,11.856-11.856,11.856H376.922c-13.832,0-28.158-.494-34.086-.494-7.9,0-8.4,3.952-8.4,14.82,0,10.374.494,14.82,8.4,14.82s20.748-.988,34.086-.988H400.14c7.9,0,11.856,3.458,11.856,11.856v8.4c0,8.4-3.952,11.856-11.856,11.856ZM86.45-344.318c0-8.4,4.94-12.844,13.338-13.832h28.158c8.4.988,12.844,5.434,13.832,13.832v64.22c-.988,8.4-5.434,12.844-13.832,13.832H99.788c-8.4-.988-13.338-5.434-13.338-13.832ZM41.5-32.6c-11.362,1.482-15.314,1.976-15.314,6.916,0,3.458,3.952,14.82,5.928,20.254,3.952,11.856,7.41,20.748,11.856,20.748,2.964,0,4.446-1.976,5.434-4.94,1.976-5.928,3.458-6.916,16.3-9.88C107.2-9.88,151.164-20.748,191.178-35.568c8.4-2.964,12.844-3.952,12.844-18.772,0-6.422-1.482-18.772-9.88-18.772-2.47,0-33.1,10.374-38.038,12.35-1.482,0-2.964.494-3.952.494-6.422,0-8.892-4.94-8.892-10.868v-56.81c0-9.386,3.952-12.844,13.832-13.338,9.386,0,21.242.988,25.194.988,8.892,0,8.892-6.916,8.892-18.278,0-12.35,0-18.772-9.386-18.772-4.446,0-15.314.988-24.7.988-9.88-.494-13.832-3.952-13.832-13.338v-29.146c0-7.9,2.964-11.362,11.362-11.362h6.422c13.832,0,16.8-7.41,16.8-19.76,0-7.41-.494-14.82-.494-21.736v-80.522c0-7.9.494-15.314.494-23.218,0-13.338-4.446-18.772-17.784-18.772-5.928,0-11.856.494-17.29.494h-57.3c-5.928,0-11.856-.494-17.784-.494-13.832,0-17.784,6.422-17.784,19.266,0,7.41.494,14.82.494,22.724V-271.7c0,7.41-.494,15.314-.494,22.724,0,12.844,4.446,18.772,17.784,18.772,5.928,0,11.856-.494,17.784-.494H96.824c9.88,0,13.832,3.952,13.832,13.832V-58.292c0,6.916-1.976,9.88-8.892,12.35-2.964.494-7.41,1.976-10.868,1.976-6.916,0-9.386-4.94-9.386-10.868V-165c0-14.326.494-19.266,5.434-22.724,3.458-1.976,5.928-2.964,5.928-6.422s-3.458-4.94-6.422-5.434c-4.94-.494-25.194-2.47-30.628-2.47-3.458,0-7.41.494-7.41,5.434,0,1.482.494,2.964.494,4.446a193.046,193.046,0,0,1,1.482,24.206v123.5C50.388-37.544,48.412-33.592,41.5-32.6ZM274.17-284.544c0,8.4-3.952,11.856-11.856,11.856H244.53c-14.326,0-29.146-.988-37.05-.988-7.41,0-8.4,3.458-8.4,14.82s.988,14.82,8.892,14.82c6.916,0,22.23-.988,36.556-.988h21.242c4.94.494,6.422,2.964,7.9,7.41,1.482,6.916,8.892,6.916,18.278,6.916,11.856,0,18.278,0,18.278-10.868,0-9.386-.988-20.748-.988-32.11v-71.63c0-9.386.494-18.772.494-28.158,0-16.3-6.422-19.266-21.242-19.266-8.892,0-18.278.494-27.17.494H242.06c-11.362,0-22.724-.988-34.086-.988-8.4,0-8.892,3.952-8.892,15.314s.494,14.82,8.892,14.82c11.362,0,22.724-.988,34.086-.988H263.8c7.41,0,10.374,2.964,10.374,10.374v10.868c0,6.916-2.964,9.88-10.374,9.88h-19.76c-14.82,0-29.64-.988-35.568-.988-8.4,0-8.892,4.446-8.892,15.314s.494,14.82,8.892,14.82,21.736-.988,35.568-.988h18.278c8.4,0,11.856,3.458,11.856,11.856Z" transform="translate(-24.682 395.712)" fill="none" stroke="#000" stroke-linecap="round" stroke-width="3"/>
</svg>
