<svg xmlns="http://www.w3.org/2000/svg" width="490.36" height="231.92" viewBox="0 0 490.36 231.92">
  <path id="パス_9639" data-name="パス 9639" d="M140.14-107.12c5.2,0,7.28,2.34,7.28,7.28v17.68c0,5.2-2.08,7.28-7.28,7.28H119.6c-4.94,0-6.76-1.82-6.76-6.76v-18.2c0-4.94,2.08-7.28,7.28-7.28ZM54.08-128.96a230.225,230.225,0,0,1-32.76,26.78c-1.82,1.3-3.9,2.6-3.9,4.94,0,3.9,6.76,12.74,11.7,12.74,7.02,0,35.36-27.04,41.6-33.28a2.788,2.788,0,0,1,1.56-.52,1.842,1.842,0,0,1,1.82,2.08c0,6.24-.26,9.62,5.98,9.62h6.76c4.42,0,5.46,1.56,5.98,5.98V-87.1a44.072,44.072,0,0,1-.26,5.72c-.26,4.94-2.86,6.5-7.54,6.5H70.98c-9.88,0-19.5-.52-29.12-.52-5.46,0-5.72,2.86-5.72,10.14s.26,10.14,5.72,10.14c9.62,0,19.24-.52,29.12-.52H81.9c2.86.26,5.46,1.04,5.46,4.42,0,.78-.26,1.3-.26,2.08-8.06,22.1-28.08,36.4-49.66,43.42-2.6.78-4.68,1.56-4.68,4.42,0,3.38,6.24,14.56,11.44,14.56,2.86,0,7.28-1.82,9.88-3.12C80.6-2.34,99.58-20.02,108.16-49.14c1.56-4.94,3.9-6.5,8.84-6.5h23.14c5.2,0,7.28,2.08,7.28,7.28V-26c0,5.2-.26,10.4-.26,15.6,0,18.98,10.66,22.1,27.3,22.1h31.72c10.92,0,19.5-1.3,25.22-11.44,3.38-5.98,8.32-20.02,8.32-26.52,0-5.72-11.18-7.54-14.3-7.54-4.16,0-4.42,2.6-5.2,5.98C216.32-7.8,210.6-7.28,202.28-7.28h-22.1c-10.4,0-12.22-1.82-12.22-11.96V-48.36c0-5.2,2.08-7.28,7.28-7.28H191.1c9.62,0,19.24.52,28.86.52,5.46,0,5.72-2.86,5.72-10.14s-.26-10.14-5.72-10.14c-9.62,0-19.24.52-28.86.52H175.24c-5.2,0-7.28-2.08-7.28-7.28v-18.46c0-4.16,1.56-5.98,5.98-6.24,2.86.26,5.46.26,8.32.26,5.98,0,5.98-3.12,5.98-9.62.26-1.3.78-2.34,2.08-2.34a3.7,3.7,0,0,1,1.56.52c5.98,5.2,32.24,27.04,38.74,27.04,4.94,0,11.7-10.92,11.7-14.3,0-2.86-4.42-4.94-6.5-6.5a172.1,172.1,0,0,1-25.74-17.42c-1.3-1.3-2.34-2.6-2.34-4.68,0-1.82,1.04-3.12,2.34-4.42a224.807,224.807,0,0,0,21.06-20.54,4.8,4.8,0,0,1,3.12-1.3c1.04,0,2.08.26,2.6.26,1.56,0,3.12-.52,3.12-2.6,0-2.6-14.3-14.56-16.64-14.56-1.3,0-2.6,1.56-3.38,2.6a233.222,233.222,0,0,1-23.92,24.18c-1.3,1.04-2.34,1.82-4.16,1.82a5.952,5.952,0,0,1-4.42-2.08c-2.86-3.38-5.98-6.76-8.84-10.14a8.236,8.236,0,0,1-1.56-3.9c0-1.82,1.3-3.38,2.34-4.42,10.14-8.84,11.18-10.14,20.54-19.5a4.306,4.306,0,0,1,3.12-1.3c1.04,0,2.6.26,3.12.26,1.56,0,3.38-.52,3.38-2.6,0-2.86-14.82-14.56-16.64-14.56s-3.12,1.82-4.16,3.12a186.853,186.853,0,0,1-18.98,18.98,5.53,5.53,0,0,1-3.9,1.82c-2.08,0-3.38-1.3-4.68-2.86-3.64-5.98-6.24-10.66-8.06-14.04-3.64-6.76-4.68-8.84-8.06-8.84s-12.74,4.42-12.74,8.58c0,2.08,1.3,4.42,2.34,5.98,13.26,24.44,23.92,41.08,42.9,61.88a3.872,3.872,0,0,1,1.04,2.34c0,2.08-1.82,2.6-3.38,2.86-6.24.26-12.48.26-18.72.26h-50.7c-6.24,0-12.74-.26-18.98-.26-2.08-.26-3.38-1.04-3.38-3.12a3.3,3.3,0,0,1,1.04-2.34c9.62-11.44,36.66-45.5,36.66-59.8,0-3.64-2.6-7.54-5.2-9.88-2.34-2.08-5.72-2.34-10.92-2.34-4.16,0-9.1.26-15.86.26H74.1c-9.36,0-18.46-.52-27.82-.52-5.46,0-5.72,2.08-5.72,9.62s.52,9.62,5.72,9.62c9.36,0,18.46-.52,27.82-.52H87.36c4.16,0,7.02.26,7.02,3.9,0,5.46-14.56,24.7-18.46,29.64-1.3,1.56-2.86,2.86-4.94,2.86a8.208,8.208,0,0,1-4.94-1.82C62.14-154.44,42.12-169,38.48-169c-4.42,0-9.88,8.06-9.88,11.44,0,2.34,2.86,4.16,9.36,8.58,3.9,2.6,9.1,5.98,15.6,10.92,1.56,1.3,2.86,2.6,2.86,4.68C56.42-131.56,55.38-130.26,54.08-128.96Zm419.38-25.48c9.36,0,18.98.78,28.6.78,5.46,0,5.72-2.6,5.72-9.36s-.26-9.1-5.72-9.1c-9.62,0-19.24.52-28.6.52H376.74c-9.62,0-19.24-.52-28.6-.52-5.46,0-5.72,2.08-5.72,9.1s.26,9.36,5.72,9.36c9.36,0,18.98-.78,28.6-.78ZM452.4-83.98c9.36,0,18.98.52,28.34.52,5.46,0,5.72-2.34,5.72-9.1s0-9.36-5.72-9.36c-9.62,0-18.98.78-28.34.78H394.94c-9.36,0-18.72-.78-28.34-.78-5.46,0-5.72,2.34-5.72,9.36,0,6.76.26,9.1,5.72,9.1,9.62,0,18.98-.52,28.34-.52Zm.26-35.1c9.36,0,18.72.52,28.34.52,5.46,0,5.72-2.34,5.72-9.1,0-6.5,0-9.1-5.72-9.1-9.62,0-18.98.52-28.34.52H395.2c-9.36,0-18.98-.52-28.34-.52-5.72,0-5.72,2.6-5.72,9.1,0,6.76,0,9.1,5.72,9.1,9.36,0,18.98-.52,28.34-.52Zm5.98-71.24c7.54,0,15.34.52,22.88.52,5.72,0,5.72-2.86,5.72-9.1,0-6.5,0-9.36-5.72-9.36-7.54,0-15.34.52-22.88.52H390.26c-7.54,0-15.34-.52-22.88-.52-5.72,0-5.72,2.86-5.72,9.36,0,6.24,0,9.1,5.72,9.1,7.54,0,15.34-.52,22.88-.52ZM388.96-14.82c-4.42-.52-7.02-2.86-7.02-7.28V-39.78c0-4.42,2.6-6.76,7.02-7.28h68.9c4.42.52,6.76,2.86,7.28,7.28V-22.1c-.52,4.42-2.86,6.76-7.28,7.28ZM464.88,7.54a3.855,3.855,0,0,0-.26,1.82c0,5.46,3.64,5.46,10.92,5.46,8.06,0,10.66-.26,10.66-5.98,0-5.2-.52-10.4-.52-15.6v-32.5c0-4.68.52-9.36.52-14.3,0-8.84-4.94-11.18-13-11.18-5.72,0-11.44.26-17.16.26H390.78c-5.72,0-11.44-.26-17.16-.26-8.84,0-12.74,2.86-12.74,11.96,0,4.68.26,9.1.26,13.52V-7.28c0,5.2-.26,10.4-.26,15.86s2.6,5.72,10.66,5.72c7.8,0,10.66,0,10.66-5.46V7.54c0-3.64,1.82-4.94,5.2-4.94h72.28C463.06,2.6,464.62,3.9,464.88,7.54ZM306.54-27.3c0,10.92-.78,22.1-.78,33.28,0,8.06,2.34,8.84,11.44,8.84,8.32,0,10.92-.78,10.92-8.58,0-11.18-.78-22.36-.78-33.54v-98.28c0-10.4.26-14.04,3.12-15.86,2.08-1.56,3.38-2.08,3.38-3.64,0-2.86-3.64-3.12-5.72-3.38-1.04,0-3.38-.26-3.38-3.12a6.119,6.119,0,0,1,.52-2.08,405.031,405.031,0,0,0,18.46-42.12c1.82-4.94,2.08-5.98,5.98-7.8,1.3-.52,3.64-1.82,3.64-3.38,0-3.12-4.68-4.42-8.84-5.72-2.34-.78-11.96-4.42-13.78-4.42-2.86,0-3.64,2.6-4.42,4.94a252.59,252.59,0,0,1-52,98.28c-1.56,2.08-4.42,4.68-4.42,7.28,0,3.38,7.28,14.3,11.96,14.3s17.68-18.98,20.8-23.14a2.316,2.316,0,0,1,2.08-1.3c1.3,0,1.82,1.3,1.82,2.6Z" transform="translate(-17.42 217.1)" fill="#e5e5e5"/>
</svg>
