<svg xmlns="http://www.w3.org/2000/svg" width="248.799" height="598.915" viewBox="0 0 248.799 598.915">
  <path id="パス_9638" data-name="パス 9638" d="M258.633,2.79c0-3.627-5.022-5.58-7.812-6.975-25.389-12.555-48.546-28.737-67.8-49.383-1.674-1.674-3.348-3.627-5.58-3.627-3.627,0-15.345,8.37-15.345,12.276,0,5.3,29.853,30.411,35.433,34.6,7.254,5.58,39.618,27.9,46.593,27.9C249.426,17.577,258.633,6.7,258.633,2.79ZM117.738-42.687c0-3.627-19.809-15.345-22.041-15.345-1.674,0-3.627,2.511-5.3,4.464C73.656-34.875,47.151-16.182,25.389-3.906,21.762-1.953,16.74,0,16.74,3.627c0,4.185,9.486,14.229,14.229,14.229,3.627,0,12.276-5.58,15.624-7.533C65.007-.279,90.117-20.925,104.9-35.991c1.674-1.674,3.348-3.627,5.859-3.627C113-39.618,117.738-39.339,117.738-42.687ZM106.3-143.127c.558-4.743,3.069-7.254,7.812-7.812h49.941c4.743.558,7.254,3.069,7.812,7.812V-94.86c-.558,5.022-3.069,7.254-7.812,7.812H114.111c-4.743-.558-7.254-2.79-7.812-7.812ZM83.979-94.86c0,5.58-2.232,7.812-7.533,7.812h-21.2c-11.16,0-22.6-.558-34.038-.558-5.859,0-5.859,3.627-5.859,11.16s0,10.881,5.859,10.881c11.439,0,22.6-.558,34.038-.558H220.968c11.439,0,22.6.558,34.038.558,5.58,0,5.859-3.069,5.859-10.881s0-11.16-5.859-11.16c-11.439,0-22.6.558-34.038.558H202c-5.58,0-7.812-2.232-7.812-7.812v-48.267c0-5.3,2.232-7.812,7.812-7.812H212.04c11.16,0,22.041.837,33.2.837,5.859,0,5.859-3.627,5.859-11.16,0-7.812,0-11.16-5.859-11.16-11.16,0-22.041.558-33.2.558H202c-5.58,0-7.812-2.232-7.812-7.812v-26.505c0-8.928.279-12.555,3.627-14.787,2.232-1.674,3.627-2.232,3.627-4.185,0-2.79-3.348-3.069-5.58-3.348-3.906-.279-17.3-1.953-20.646-1.953-2.79,0-4.743.837-4.743,3.906,0,.837.279,1.674.279,2.511.558,6.417,1.116,12.555,1.116,18.972v25.389c0,5.58-2.232,7.812-7.812,7.812H114.111c-5.58,0-7.812-2.232-7.812-7.812v-26.505c0-8.928.279-12.555,3.627-14.787,2.232-1.395,3.906-2.232,3.906-4.185,0-2.79-3.627-3.069-5.58-3.348-4.743-.558-16.74-1.953-20.925-1.953-2.511,0-4.464.837-4.464,3.906a10.466,10.466,0,0,0,.279,2.79,123.615,123.615,0,0,1,.837,17.577v26.505c0,5.58-2.232,7.812-7.533,7.812H66.123c-10.881,0-22.041-.558-33.2-.558-5.3,0-5.859,2.79-5.859,11.16,0,8.091.279,11.16,5.859,11.16,11.16,0,22.32-.837,33.2-.837H76.446c5.3,0,7.533,2.511,7.533,7.812ZM191.394,239.911a6.447,6.447,0,0,1-6.7,6.7H110.205c-4.185,0-6.975-2.79-6.975-6.7v-9.486a6.59,6.59,0,0,1,6.975-6.975H184.7c3.906,0,6.7,2.79,6.7,6.975Zm0,41.013a6.447,6.447,0,0,1-6.7,6.7H110.205c-4.185,0-6.975-2.79-6.975-6.7V272a6.59,6.59,0,0,1,6.975-6.975H184.7c3.906,0,6.7,2.79,6.7,6.975Zm-7.812,25.389c5.58,0,7.812,2.232,7.812,7.533v7.533c0,17.856,0,22.041-15.345,22.041-5.859,0-12.834-.558-16.182-.558-3.906,0-5.3,1.953-5.3,5.58,0,15.624,5.3,17.019,16.461,17.019,10.6,0,29.853-1.116,37.107-9.486,5.58-6.417,5.859-15.624,5.859-23.715,0-6.7-.279-13.671-.279-20.646V235.168c0-6.7.279-13.392.279-19.809,0-9.765-3.627-12.276-12.834-12.276-6.417,0-12.555.558-18.693.558h-62.5c-2.232-.279-4.464-1.116-4.464-3.906a6.663,6.663,0,0,1,.558-2.511c3.627-6.138,6.417-12.276,9.765-18.693,2.511-5.022,5.3-6.138,10.881-6.138h85.1c11.16,0,22.041.558,33.2.558,6.138,0,6.138-3.069,6.138-10.881,0-8.37,0-10.881-6.138-10.881-11.16,0-22.041.558-33.2.558H145.359c-1.116-.279-5.3-.279-5.3-4.743a6.143,6.143,0,0,1,.279-2.232l2.232-6.417c1.953-5.58,2.232-7.812,5.3-9.207,1.674-.837,4.185-1.674,4.185-3.906,0-3.069-4.185-3.906-8.928-5.3-3.348-.837-13.392-3.348-16.461-3.348-3.348,0-3.906,2.511-4.464,5.3a167.587,167.587,0,0,1-6.417,23.157c-2.232,5.3-4.743,6.7-10.323,6.7H56.916c-11.16,0-22.041-.558-33.2-.558-6.138,0-6.417,2.232-6.417,10.881,0,8.091.279,10.881,6.417,10.881,11.16,0,22.041-.558,33.2-.558H96.255c.837,0,5.022,0,5.022,4.185a4.5,4.5,0,0,1-.837,2.511,274.216,274.216,0,0,1-75.33,90.4c-3.069,2.511-6.975,5.022-6.975,7.812,0,4.185,8.37,13.671,12.834,13.671,7.254,0,38.781-32.643,45.2-39.339a3.444,3.444,0,0,1,2.232-1.116c1.953,0,2.511,1.674,2.79,3.348v69.471c0,10.881-.558,21.762-.558,32.643,0,7.533,1.674,8.649,11.439,8.649,10.323,0,12-1.116,12-8.649,0-10.881-.837-21.762-.837-32.643v-9.486c0-5.3,2.511-7.533,7.812-7.533Z" transform="translate(-13.845 231.954)" fill="none" stroke="#fff" stroke-width="3" opacity="0.3"/>
</svg>
