<svg xmlns="http://www.w3.org/2000/svg" width="722.064" height="220.176" viewBox="0 0 722.064 220.176">
  <path id="パス_32" data-name="パス 32" d="M25.344-131.208c0,6.072,9.768,20.856,16.368,20.856a13.9,13.9,0,0,0,6.336-2.112c32.736-16.1,76.032-36.168,112.992-36.168,8.184,0,16.9,1.32,24.024,5.544,12.672,7.128,19.8,20.856,19.8,35.376,0,26.4-20.856,45.936-43.032,56.76-17.424,8.448-35.112,12.936-54.12,14.784C104.544-35.9,99-35.9,99-31.416c0,2.112,3.96,19.008,12.408,19.008,11.088,0,39.864-8.976,50.688-13.464,34.056-14.256,66.528-42.24,66.528-81.84,0-16.1-6.336-33.264-17.688-44.88-12.936-13.464-30.888-18.48-49.1-18.48-33.528,0-66.528,13.2-97.68,24.288-10.3,3.7-22.44,8.184-33,10.824C28.512-135.432,25.344-134.376,25.344-131.208Zm375.936,92.4c15.312,0,16.1,2.376,16.1,8.976,0,11.088-5.016,16.9-16.368,16.9-7.92,0-21.384-5.016-21.384-14.52C379.632-37.488,393.888-38.808,401.28-38.808Zm14.256-93.456c-3.168,0-5.28,1.32-5.28,4.752v3.168c1.32,8.712,5.016,55.968,5.016,63.624,0,3.168-2.376,3.7-5.016,3.7-3.168,0-6.6-.264-9.768-.264-19.272,0-41.976,7.128-41.976,30.36,0,22.7,24.552,33.528,44.352,33.528,18.744,0,32.736-7.92,34.584-27.72.264-2.376.528-6.6,3.432-6.6,5.016,0,20.592,10.824,24.816,13.992,1.848,1.32,4.224,3.432,6.6,3.432,5.544,0,13.2-11.088,13.2-15.312,0-3.432-12.144-10.032-15.312-11.88A163.194,163.194,0,0,0,443.52-49.9c-4.224-1.584-6.072-2.9-6.6-7.656-1.584-13.728-2.64-39.864-2.64-53.856,0-5.28.528-13.2.528-14.256,0-2.64-2.112-3.96-4.488-4.488A68.863,68.863,0,0,0,415.536-132.264Zm38.016-37.488c-4.224,0-13.992,10.824-13.992,13.992,0,1.848,1.848,3.432,3.432,4.488,11.352,8.448,24.552,21.384,32.208,33.264,1.32,1.848,2.376,3.7,4.752,3.7,3.96,0,15.84-8.712,15.84-13.992C495.792-134.9,460.152-169.752,453.552-169.752Zm-86.064-43.824c-2.376,0-2.376,2.376-2.376,4.224a145.061,145.061,0,0,1-4.224,30.1c-1.32,5.28-3.168,13.992-5.544,16.632-3.96,4.224-33.792,4.488-40.92,4.488-1.848,0-3.96-.264-6.072-.264-2.9,0-4.488.792-4.488,3.96a90.854,90.854,0,0,0,1.32,11.88c.792,4.488,1.848,6.864,6.072,6.864,3.432,0,22.968-1.848,27.192-2.376a35.779,35.779,0,0,1,5.28-.528,3.043,3.043,0,0,1,3.168,3.168c0,2.112-5.016,14.256-6.6,17.952-8.448,20.856-20.856,44.352-32.736,63.36-1.056,2.112-4.224,6.864-4.224,8.976,0,4.752,13.992,10.824,18.48,10.824,2.376,0,3.432-1.32,4.488-3.168,4.488-7.656,8.448-15.312,12.408-22.968,11.352-22.968,23.232-48.84,31.416-72.864,2.9-8.184,2.64-9.5,11.352-11.088,25.872-4.752,29.04-4.752,29.04-10.824,0-3.168-.528-17.16-4.488-17.16a11.9,11.9,0,0,0-2.9.792c-2.376.792-16.368,4.752-18.216,4.752a3.05,3.05,0,0,1-3.168-3.168c0-.792.792-3.7,1.056-5.016,1.056-3.96,5.28-21.648,7.656-23.76,2.112-2.112,3.7-3.168,3.7-4.752,0-1.848-1.848-2.64-3.168-3.168C387.288-208.032,370.128-213.576,367.488-213.576Zm324.48,49.9c-2.9,0-11.088,6.6-11.088,9.5,0,1.32,1.32,2.64,2.376,3.432q9.5,9.9,18.216,20.592c.792,1.056,2.112,2.9,3.7,2.9,3.432,0,11.352-7.128,11.352-10.56C716.52-140.712,694.608-163.68,691.968-163.68Zm30.624-19.536c-2.64,0-11.088,6.864-11.088,9.768,0,1.32,1.584,2.64,2.376,3.432a194.313,194.313,0,0,1,18.48,20.592c1.056,1.056,2.112,2.64,3.7,2.64,3.432,0,11.352-6.864,11.352-10.56C747.408-160.248,725.5-183.216,722.592-183.216Zm-62.832-19.8c-1.584,0-3.168,1.584-3.96,2.9-11.88,14.52-33.792,33-48.84,45.408-8.448,6.864-26.664,21.648-32.736,29.568a30.183,30.183,0,0,0-5.808,17.688c0,11.088,5.28,18.48,12.408,26.664,12.936,15.048,26.928,29.04,40.92,43.032C632.568-26.928,643.656-15.84,653.688-3.96c1.584,2.112,4.752,6.072,7.392,6.072,5.808,0,18.216-11.352,18.216-16.9,0-3.96-6.6-8.976-10.3-12.144-10.815-9.6-21.718-19.193-32.619-29.24-7.621-7.024-15.339-14.382-22.821-21.976-5.808-6.072-19.536-20.064-19.536-28.776,0-5.016,3.7-8.712,7.128-11.88,13.464-12.672,27.72-25.08,42.24-36.96,7.392-6.072,14.784-12.144,22.44-18.216,2.9-2.112,6.336-5.016,10.3-5.28,1.848,0,5.808.264,5.808-2.64,0-2.64-12.408-13.728-15.048-16.1C665.04-199.584,662.136-203.016,659.76-203.016Z" transform="translate(-25.344 213.576)" fill="#fff" opacity="0.5"/>
</svg>
