<svg xmlns="http://www.w3.org/2000/svg" width="512.052" height="75.537" viewBox="0 0 512.052 75.537">
  <g id="グループ_20" data-name="グループ 20" transform="translate(28.811 -1062.969)">
    <path id="パス_9623" data-name="パス 9623" d="M30.831-28.982v-5.5a1.422,1.422,0,0,0-1.462-1.462,1.433,1.433,0,0,0-1.462,1.505V-28.9l-3.053.086a1.253,1.253,0,0,0-1.247,1.29,1.194,1.194,0,0,0,1.2,1.29H24.9l2.967-.086a36.8,36.8,0,0,1-.559,5.289c-.516-.344-1.032-.645-1.462-.9a1.782,1.782,0,0,0-.86-.258,1.383,1.383,0,0,0-1.419,1.29A1.317,1.317,0,0,0,24.3-19.78a23.94,23.94,0,0,1,2.279,1.548,18.264,18.264,0,0,1-6.063,8.643A1.692,1.692,0,0,0,19.78-8.3a1.394,1.394,0,0,0,1.462,1.29,2.065,2.065,0,0,0,1.29-.516,21.5,21.5,0,0,0,6.407-8.729,19.033,19.033,0,0,1,1.634,1.548,1.626,1.626,0,0,0,1.2.6,1.4,1.4,0,0,0,1.333-1.462,1.93,1.93,0,0,0-.645-1.376,22.4,22.4,0,0,0-2.623-2.236,34.677,34.677,0,0,0,.946-7.224l2.15-.086c.731-.043.989.258.989,1.118A53.8,53.8,0,0,0,35.3-12.341c1.161,3.784,2.58,5.074,4.085,5.074,1.548,0,2.666-1.075,3.053-5.461V-12.9a1.32,1.32,0,0,0-1.376-1.333,1.118,1.118,0,0,0-1.2,1.075c-.172,2.15-.344,2.408-.6,2.408s-.559-.43-1.2-2.623c-.688-2.322-1.161-7.1-1.161-12.47,0-2.021-.946-3.225-3.4-3.225h-.258ZM14.018-24.94v3.225c0,1.978.774,2.451,4.214,2.451,3.311,0,4.472-.774,4.73-2.881v-.215a1.324,1.324,0,0,0-1.419-1.29,1.316,1.316,0,0,0-1.376,1.2c-.086.731-.43.946-1.978.946-1.2,0-1.419-.129-1.419-.731V-24.94h4.988a1.1,1.1,0,0,0,1.118-1.2,1.1,1.1,0,0,0-1.118-1.2H13.717V-30.1h5.762A1.117,1.117,0,0,0,20.6-31.347a1.1,1.1,0,0,0-1.118-1.2H13.717v-2.365A1.365,1.365,0,0,0,12.3-36.292a1.376,1.376,0,0,0-1.462,1.376v2.365H5.547a1.129,1.129,0,0,0-1.118,1.2A1.142,1.142,0,0,0,5.547-30.1h5.289v2.752h-8a1.129,1.129,0,0,0-1.118,1.2,1.129,1.129,0,0,0,1.118,1.2H7.826A10.314,10.314,0,0,1,3.01-19.651a1.635,1.635,0,0,0-1.032,1.333,1.25,1.25,0,0,0,1.29,1.2A2.26,2.26,0,0,0,4-17.286a12.318,12.318,0,0,0,6.794-7.654ZM10.836-14.147v3.569c-2.408.344-4.859.6-7.1.817A1.443,1.443,0,0,0,2.365-8.342,1.31,1.31,0,0,0,3.784-7.009h.43A140.324,140.324,0,0,0,18.92-9.374a1.387,1.387,0,0,0,1.2-1.29,1.237,1.237,0,0,0-1.333-1.2,1.764,1.764,0,0,0-.473.043c-1.376.3-2.967.6-4.6.86v-3.182h4.816a1.171,1.171,0,0,0,1.247-1.247,1.16,1.16,0,0,0-1.247-1.2H13.717v-2.408A1.329,1.329,0,0,0,12.3-20.339a1.342,1.342,0,0,0-1.462,1.333V-16.6h-4.3a1.185,1.185,0,0,0-1.247,1.2,1.2,1.2,0,0,0,1.247,1.247Zm6.579,9.5a1.825,1.825,0,0,0-1.634-1.161,1.377,1.377,0,0,0-1.419,1.419,2.138,2.138,0,0,0,.129.688,35.976,35.976,0,0,1,1.376,4.859A1.585,1.585,0,0,0,17.415,2.58,1.642,1.642,0,0,0,19.049.9a2.158,2.158,0,0,0-.086-.516A26.15,26.15,0,0,0,17.415-4.644ZM7.4-4.945A25.007,25.007,0,0,1,4,.3a1.993,1.993,0,0,0-.559,1.29A1.5,1.5,0,0,0,4.988,3.053a1.993,1.993,0,0,0,1.548-.86A32.073,32.073,0,0,0,10.1-3.569a2.079,2.079,0,0,0,.258-.9A1.45,1.45,0,0,0,8.858-5.891,1.537,1.537,0,0,0,7.4-4.945ZM26.445-5.2a1.761,1.761,0,0,0-1.505-.9,1.36,1.36,0,0,0-1.419,1.333,1.782,1.782,0,0,0,.258.86A32.309,32.309,0,0,1,25.8,1.032a1.673,1.673,0,0,0,1.548,1.29A1.62,1.62,0,0,0,28.939.6a2.922,2.922,0,0,0-.129-.817A29.1,29.1,0,0,0,26.445-5.2Zm8.987-.473a1.742,1.742,0,0,0-1.419-.645,1.445,1.445,0,0,0-1.505,1.376,1.627,1.627,0,0,0,.43,1.032,31.369,31.369,0,0,1,3.311,4.988A1.855,1.855,0,0,0,37.926,2.15,1.587,1.587,0,0,0,39.517.559,2.214,2.214,0,0,0,39.173-.6,32.827,32.827,0,0,0,35.432-5.676ZM72.5-23.908c3.139,0,4.3-.989,4.3-3.053v-5.117c0-2.064-1.161-3.1-4.3-3.1H56.588c-3.139,0-4.343,1.032-4.343,3.1v5.117c0,2.666,2.064,3.053,4.343,3.053ZM56.889-26.144c-1.419,0-1.72-.3-1.72-1.075v-1.247H73.917v1.247c0,.731-.258,1.075-1.763,1.075Zm17.028-4.515H55.169V-31.82c0-.817.3-1.075,1.72-1.075H72.154c1.462,0,1.763.258,1.763,1.075ZM72.756-6.278c2.494,0,4.386-.344,4.386-3.225v-4.773c0-2.236-1.118-3.182-4.386-3.182H56.115c-3.268,0-4.386.946-4.386,3.182V-9.5c0,2.279,1.118,3.225,4.386,3.225h6.794v2.021H50.353A1.093,1.093,0,0,0,49.235-3.1a1.138,1.138,0,0,0,1.161,1.2H62.909V.172H46.354a1.127,1.127,0,0,0-1.161,1.161A1.184,1.184,0,0,0,46.4,2.58H82.689A1.127,1.127,0,0,0,83.85,1.419a1.16,1.16,0,0,0-1.2-1.247h-16.9V-1.892H78.819a1.093,1.093,0,0,0,1.118-1.161,1.138,1.138,0,0,0-1.161-1.2H65.747V-6.278ZM65.747-8.514v-2.279H74.3v.946c0,.817-.172,1.333-1.935,1.333ZM74.3-12.986H65.747v-2.236h6.622c1.591,0,1.935.387,1.935,1.333Zm-11.4-2.236v2.236H54.567v-.9c0-.946.344-1.333,1.935-1.333Zm-8.342,4.429h8.342v2.279H56.5c-1.591,0-1.935-.387-1.935-1.333ZM82.9-19.436a1.138,1.138,0,0,0,1.161-1.2,1.194,1.194,0,0,0-1.2-1.29H46.139a1.138,1.138,0,0,0-1.161,1.2,1.22,1.22,0,0,0,1.2,1.29Zm16.426.258a41.674,41.674,0,0,0,4.515-6.579c3.1-.3,6.235-.731,8.944-1.247a1.5,1.5,0,0,0,1.376-1.462,1.483,1.483,0,0,0-1.591-1.462,1.613,1.613,0,0,0-.43.043c-2.021.344-4.386.688-6.751.946a32.051,32.051,0,0,0,1.548-4,1.464,1.464,0,0,0,.086-.6A1.506,1.506,0,0,0,105.436-35a1.651,1.651,0,0,0-1.591,1.247q-.838,2.58-1.935,5.16c-2.623.215-5.16.344-7.31.344a1.623,1.623,0,0,0-1.806,1.591,1.572,1.572,0,0,0,1.763,1.505c1.72-.043,3.741-.129,5.848-.3a33.973,33.973,0,0,1-8.041,9.632,1.839,1.839,0,0,0-.731,1.376,1.487,1.487,0,0,0,1.5,1.462,2.036,2.036,0,0,0,1.2-.473c3.612-2.838,6.45-4.214,8.815-4.214,1.849,0,2.967.473,3.7,2.838C99.416-11.18,97.438-7.7,97.438-4.6c0,3.784,3.268,6.192,10.492,6.192A50.109,50.109,0,0,0,116.53.9a1.7,1.7,0,0,0,1.591-1.634,1.574,1.574,0,0,0-1.677-1.548,2.094,2.094,0,0,0-.516.043,40.878,40.878,0,0,1-8,.731c-5.461,0-7.31-1.29-7.31-3.268s1.548-4.6,6.751-7.138a45.156,45.156,0,0,1,.43,5.676,1.43,1.43,0,0,0,1.462,1.5,1.557,1.557,0,0,0,1.591-1.677v-.086a35.052,35.052,0,0,0-.645-6.708,107.947,107.947,0,0,1,12-4.171,1.6,1.6,0,0,0,1.29-1.548,1.479,1.479,0,0,0-1.548-1.5,1.671,1.671,0,0,0-.645.086,116.925,116.925,0,0,0-11.782,4.257c-1.118-3.311-2.967-4.171-5.676-4.171a9.669,9.669,0,0,0-4.429,1.2Zm49.88-13.975v-.258a1.51,1.51,0,0,0-1.634-1.419,1.454,1.454,0,0,0-1.548,1.2l-1.161,7.009a36.9,36.9,0,0,1-4.6-.688,2.094,2.094,0,0,0-.516-.043,1.568,1.568,0,0,0-1.677,1.5,1.571,1.571,0,0,0,1.333,1.505,36.179,36.179,0,0,0,4.945.731c-.43,2.365-.774,4.73-1.075,7.095a40.625,40.625,0,0,1-4.945-.817,3.319,3.319,0,0,0-.645-.086,1.536,1.536,0,0,0-1.634,1.548,1.738,1.738,0,0,0,1.419,1.677,34.443,34.443,0,0,0,5.418.9,48.953,48.953,0,0,0-.3,5.031c0,6.536,3.87,9.847,9.933,9.847,6.278,0,11.223-3.44,11.223-10.793a10.958,10.958,0,0,0-.645-3.526,1.742,1.742,0,0,0-1.634-1.161,1.45,1.45,0,0,0-1.5,1.419,1.464,1.464,0,0,0,.086.6,9.342,9.342,0,0,1,.43,2.666c0,4.988-3.1,7.482-7.955,7.482-3.827,0-6.708-1.849-6.708-6.751a45.259,45.259,0,0,1,.3-4.644c.645.043,1.333.043,2.021.043a37.191,37.191,0,0,0,7.353-.688,1.613,1.613,0,0,0,1.376-1.548,1.55,1.55,0,0,0-1.591-1.548,1.069,1.069,0,0,0-.344.043,40.425,40.425,0,0,1-6.751.559c-.6,0-1.161,0-1.72-.043.344-2.365.688-4.773,1.075-7.138.817.043,1.634.043,2.494.043a29.939,29.939,0,0,0,4-.215,1.4,1.4,0,0,0,1.333-1.419,1.545,1.545,0,0,0-1.634-1.591h-.215a40.259,40.259,0,0,1-4.042.215h-1.419Zm30.358,16.469a1.852,1.852,0,0,0-1.29,1.677,1.587,1.587,0,0,0,1.591,1.591,2.3,2.3,0,0,0,.86-.215c6.45-2.881,12.814-4.472,17.028-4.472,4.644,0,7.052,2.236,7.052,5.762,0,4.816-3.139,8.471-11.739,9.632a1.5,1.5,0,0,0-1.376,1.548A1.639,1.639,0,0,0,193.328.516h.3c9.632-1.333,14.4-6.235,14.4-12.857,0-5.289-4.257-8.729-10.277-8.729C192.726-21.07,186.061-19.565,179.568-16.684Zm59.856-10.062c-6.579,4.515-8.729,10.062-8.729,14.663,0,8.127,7.74,12.212,13.244,12.212a1.761,1.761,0,0,0,1.849-1.763,1.805,1.805,0,0,0-1.849-1.72c-6.02-.559-9.89-4.085-9.89-9.073,0-3.7,1.677-9.116,8.772-13.158a15.587,15.587,0,0,1,4.859-1.677,1.729,1.729,0,0,0,1.548-1.677,1.662,1.662,0,0,0-1.849-1.591h-.258c-8.858.817-19.694,2.064-28.552,3.182-1.2.172-1.763.9-1.763,1.677a1.673,1.673,0,0,0,1.763,1.677,1.463,1.463,0,0,0,.43-.043c7.4-1.075,14.835-2.064,20.425-2.8Zm55.9,7.138a1.2,1.2,0,0,0,1.247-1.29,1.2,1.2,0,0,0-1.247-1.29h-7.568v-4.773H293.9a1.238,1.238,0,0,0,1.247-1.333,1.217,1.217,0,0,0-1.247-1.333h-6.149v-4.945a1.341,1.341,0,0,0-1.419-1.376,1.365,1.365,0,0,0-1.419,1.376v4.945h-5.375a1.241,1.241,0,0,0-1.247,1.333,1.264,1.264,0,0,0,1.247,1.333h5.375v4.773H278.64a1.229,1.229,0,0,0-1.247,1.29,1.229,1.229,0,0,0,1.247,1.29h5.074a32.606,32.606,0,0,1-5.934,8.643,1.779,1.779,0,0,0-.6,1.247,1.193,1.193,0,0,0,1.2,1.161,1.641,1.641,0,0,0,1.247-.6,33.174,33.174,0,0,0,5.418-7.7l-.129,6.106v6.794a1.329,1.329,0,0,0,1.419,1.333,1.307,1.307,0,0,0,1.419-1.333v-6.88l-.129-6.278a36.108,36.108,0,0,0,6.579,8.729,1.8,1.8,0,0,0,1.29.559A1.479,1.479,0,0,0,297-9.245a1.7,1.7,0,0,0-.688-1.29,30.678,30.678,0,0,1-7.439-9.073Zm-23.779,4.171c2.967,0,4.128-1.333,4.128-3.655v-8.17c0-2.322-1.161-3.655-4.128-3.655h-4.472c.43-1.075.774-2.107,1.075-3.139a2.959,2.959,0,0,0,.086-.559,1.341,1.341,0,0,0-1.419-1.376,1.54,1.54,0,0,0-1.548,1.247,30.6,30.6,0,0,1-1.075,3.827H262.6c-2.967,0-4.128,1.333-4.128,3.655v8.17c0,2.752,1.591,3.655,4.128,3.655Zm-3.268-6.708h4.644v2.666c0,1.333-.559,1.634-1.806,1.634h-2.838Zm-2.666,0v4.3h-2.58c-1.462,0-1.806-.43-1.806-1.634v-2.666Zm2.666-6.364h2.838c1.462,0,1.806.43,1.806,1.634v2.408h-4.644Zm-2.666,0v4.042h-4.386v-2.408c0-1.2.344-1.634,1.806-1.634Zm5.074,23.478a1.182,1.182,0,0,0-1.2,1.118,1.074,1.074,0,0,0,1.075,1.118h.215c1.548-.258,3.612-.6,5.676-1.161a1.527,1.527,0,0,1,.172.387,1.371,1.371,0,0,0,1.2.946,1.166,1.166,0,0,0,1.161-1.2,1.638,1.638,0,0,0-.172-.731,30.879,30.879,0,0,0-2.021-3.913,1.239,1.239,0,0,0-1.075-.645A1.066,1.066,0,0,0,274.6-8.084a1.58,1.58,0,0,0,.215.688c.258.473.559,1.032.817,1.591-.86.172-1.72.344-2.58.473a63.655,63.655,0,0,0,1.505-6.321c0-.086.043-.215.043-.3a1.209,1.209,0,0,0-1.2-1.247,1.148,1.148,0,0,0-1.118,1.075c-.387,2.236-.86,4.644-1.505,7.1Zm-8.858-7.525c-.3,5.547-1.935,10.019-4.386,12.9a2.083,2.083,0,0,0-.559,1.29,1.277,1.277,0,0,0,1.333,1.29,1.851,1.851,0,0,0,1.419-.731c3.612-4.343,5.031-11.309,5.031-14.706a1.352,1.352,0,0,0-1.419-1.419A1.362,1.362,0,0,0,261.827-12.556Zm4.558,10.062c0,3.87,2.15,4.773,13.889,4.773,13.588,0,15.7-1.118,16.3-7.009v-.258a1.433,1.433,0,0,0-1.462-1.5A1.5,1.5,0,0,0,293.6-5.074c-.387,3.87-1.419,4.6-13.373,4.6-10.363,0-11.094-.43-11.094-2.752v-9.89a1.3,1.3,0,0,0-1.376-1.333,1.3,1.3,0,0,0-1.376,1.333ZM320.823-26.7c.129-2.322.215-4.9.215-7.74a1.533,1.533,0,0,0-1.634-1.548,1.533,1.533,0,0,0-1.634,1.548c0,2.881-.086,5.461-.215,7.74l-13.545.129a1.352,1.352,0,0,0-1.419,1.419,1.375,1.375,0,0,0,1.419,1.419l13.33-.129c-.774,7.654-2.451,11.911-5.031,15.308A26.231,26.231,0,0,1,302.376-.6,1.6,1.6,0,0,0,301.344.86a1.559,1.559,0,0,0,1.591,1.591,1.994,1.994,0,0,0,.817-.172,29.048,29.048,0,0,0,11.137-8.815c2.967-3.913,4.9-8.815,5.719-17.329l8.772-.086h.258c2.537,0,3.139.645,3.139,2.494a99.714,99.714,0,0,1-1.161,15.308c-.516,3.1-1.677,3.956-3.526,3.956a15.627,15.627,0,0,1-3.655-.387,2.96,2.96,0,0,0-.559-.086,1.562,1.562,0,0,0-1.634,1.548A1.741,1.741,0,0,0,323.7.516a18.884,18.884,0,0,0,4.429.473c3.655,0,5.8-1.677,6.665-6.45a93.408,93.408,0,0,0,1.247-16.6c0-3.1-1.677-4.773-6.063-4.73Zm33.927,7.525a41.674,41.674,0,0,0,4.515-6.579c3.1-.3,6.235-.731,8.944-1.247a1.5,1.5,0,0,0,1.376-1.462,1.483,1.483,0,0,0-1.591-1.462,1.613,1.613,0,0,0-.43.043c-2.021.344-4.386.688-6.751.946a32.057,32.057,0,0,0,1.548-4,1.464,1.464,0,0,0,.086-.6A1.506,1.506,0,0,0,360.856-35a1.651,1.651,0,0,0-1.591,1.247q-.838,2.58-1.935,5.16c-2.623.215-5.16.344-7.31.344a1.623,1.623,0,0,0-1.806,1.591,1.572,1.572,0,0,0,1.763,1.505c1.72-.043,3.741-.129,5.848-.3a33.974,33.974,0,0,1-8.041,9.632,1.839,1.839,0,0,0-.731,1.376,1.487,1.487,0,0,0,1.505,1.462,2.036,2.036,0,0,0,1.2-.473c3.612-2.838,6.45-4.214,8.815-4.214,1.849,0,2.967.473,3.7,2.838C354.836-11.18,352.858-7.7,352.858-4.6c0,3.784,3.268,6.192,10.492,6.192A50.109,50.109,0,0,0,371.95.9a1.7,1.7,0,0,0,1.591-1.634,1.574,1.574,0,0,0-1.677-1.548,2.093,2.093,0,0,0-.516.043,40.878,40.878,0,0,1-8,.731c-5.461,0-7.31-1.29-7.31-3.268s1.548-4.6,6.751-7.138a45.154,45.154,0,0,1,.43,5.676,1.43,1.43,0,0,0,1.462,1.5,1.557,1.557,0,0,0,1.591-1.677v-.086a35.053,35.053,0,0,0-.645-6.708,107.948,107.948,0,0,1,12-4.171,1.6,1.6,0,0,0,1.29-1.548,1.479,1.479,0,0,0-1.548-1.5,1.671,1.671,0,0,0-.645.086,116.923,116.923,0,0,0-11.782,4.257c-1.118-3.311-2.967-4.171-5.676-4.171a9.669,9.669,0,0,0-4.429,1.2Zm41.882-9.933c.473-1.548.9-3.053,1.247-4.558a1.191,1.191,0,0,0,.043-.387,1.511,1.511,0,0,0-1.634-1.419,1.553,1.553,0,0,0-1.591,1.247c-1.29,6.235-4.386,13.33-7.353,17.243a1.96,1.96,0,0,0-.473,1.2,1.358,1.358,0,0,0,1.376,1.376,1.715,1.715,0,0,0,1.376-.731,44.016,44.016,0,0,0,6.063-11.309h4.988c1.075,0,1.677.387,1.677,1.247,0,.129-.043.258-.043.387a41.2,41.2,0,0,1-2.709,9.417,27.133,27.133,0,0,0-4.343-2.838,1.638,1.638,0,0,0-.731-.172,1.477,1.477,0,0,0-1.462,1.462,1.4,1.4,0,0,0,.817,1.29,26.715,26.715,0,0,1,4.429,3.053A33.535,33.535,0,0,1,388.892-.86a1.7,1.7,0,0,0-.774,1.333,1.516,1.516,0,0,0,1.505,1.462,1.832,1.832,0,0,0,1.075-.387c7.267-5.289,13.115-15.394,14.835-26.058a5.828,5.828,0,0,0,.086-.86,3.662,3.662,0,0,0-4-3.741ZM414-20.124a39.4,39.4,0,0,1-3.956-4.128,1.659,1.659,0,0,0-1.333-.645,1.349,1.349,0,0,0-1.376,1.333,1.837,1.837,0,0,0,.43,1.118A39.519,39.519,0,0,0,414-16.082V2.193a1.565,1.565,0,0,0,3.1,0V-13.76A38.428,38.428,0,0,0,424.324-9.8a1.638,1.638,0,0,0,.731.172,1.631,1.631,0,0,0,1.591-1.677,1.747,1.747,0,0,0-1.247-1.677,32.545,32.545,0,0,1-8.3-4.558V-34.185a1.425,1.425,0,0,0-1.548-1.376A1.425,1.425,0,0,0,414-34.185ZM435.891-30.53a88.736,88.736,0,0,0-2.021,19.264A76.419,76.419,0,0,0,434.6-.731,1.616,1.616,0,0,0,436.235.731a1.625,1.625,0,0,0,1.677-1.677v-.3a75.663,75.663,0,0,1-.774-10.019,89.128,89.128,0,0,1,1.978-18.705,1.19,1.19,0,0,0,.043-.387,1.488,1.488,0,0,0-1.591-1.505A1.677,1.677,0,0,0,435.891-30.53Zm25.155,2.408a102.956,102.956,0,0,1-11.739.946,1.653,1.653,0,0,0-1.806,1.634,1.683,1.683,0,0,0,1.892,1.634,110.179,110.179,0,0,0,12.04-.989,1.6,1.6,0,0,0,1.591-1.591,1.589,1.589,0,0,0-1.677-1.634Zm-12.083,18.1a1.5,1.5,0,0,0-1.548-1.376,1.615,1.615,0,0,0-1.634,1.677V-9.5c.516,4.73,3.655,7.052,11.094,7.052a37.137,37.137,0,0,0,7.138-.688,1.591,1.591,0,0,0,1.376-1.591A1.579,1.579,0,0,0,463.8-6.407a1.463,1.463,0,0,0-.43.043,34.5,34.5,0,0,1-6.45.645C451.715-5.719,449.479-6.751,448.963-10.019Z" transform="translate(3 1134.98)" fill="#fff"/>
    <path id="パス_9634" data-name="パス 9634" d="M17.208-127.865c10.516-9.082,22.7-22.227,22.7-37.284a13.872,13.872,0,0,0-13.862-13.862,14.028,14.028,0,0,0-13.862,13.862c0,5.5,3.346,10.994,8.365,12.906,2.629.956,4.063,1.673,4.063,4.78,0,5.975-6.692,12.428-10.994,15.774Zm36.328,0c10.516-9.082,22.705-22.227,22.705-37.284a13.872,13.872,0,0,0-13.862-13.862,14.028,14.028,0,0,0-13.862,13.862c0,5.5,3.346,10.994,8.365,12.906,2.629.956,4.063,1.673,4.063,4.78,0,5.975-6.692,12.428-10.994,15.774Z" transform="translate(407 1253.98)" fill="#fff" opacity="0.4"/>
    <path id="パス_9633" data-name="パス 9633" d="M71.222-179.011c-10.516,9.321-22.705,22.227-22.705,37.284a13.872,13.872,0,0,0,13.862,13.862,13.872,13.872,0,0,0,13.862-13.862,14.2,14.2,0,0,0-8.365-12.906c-2.39-.956-4.063-1.673-4.063-4.78,0-5.975,6.692-12.428,11.233-15.774Zm-36.328,0c-10.516,9.321-22.705,22.227-22.705,37.284a13.872,13.872,0,0,0,13.862,13.862,13.872,13.872,0,0,0,13.862-13.862,14.2,14.2,0,0,0-8.365-12.906c-2.39-.956-4.063-1.673-4.063-4.78,0-5.975,6.692-12.428,11.233-15.774Z" transform="translate(-41 1241.98)" fill="#fff" opacity="0.4"/>
  </g>
</svg>
