<svg xmlns="http://www.w3.org/2000/svg" width="523.124" height="67.157" viewBox="0 0 523.124 67.157">
  <g id="グループ_5" data-name="グループ 5" transform="translate(28.273 -1064.458)">
    <path id="パス_9625" data-name="パス 9625" d="M18.9-10.64a20.814,20.814,0,0,0,1.54-2.345H32.585a1,1,0,0,0,1.015-1.05,1,1,0,0,0-1.015-1.05H12.6a.993.993,0,0,0-.98,1.05.993.993,0,0,0,.98,1.05h5.075a23.2,23.2,0,0,1-6.93,7,1.468,1.468,0,0,0-.77,1.155A1.065,1.065,0,0,0,11.1-3.815a1.614,1.614,0,0,0,.91-.28A26.535,26.535,0,0,0,17.29-8.68h2.975a22.662,22.662,0,0,1-6.755,6.9,1.286,1.286,0,0,0-.665,1.05A1.061,1.061,0,0,0,13.93.315a1.512,1.512,0,0,0,.875-.28,26.592,26.592,0,0,0,8.12-8.715H25.69A22.785,22.785,0,0,1,18.8.385a1.381,1.381,0,0,0-.63,1.05,1.027,1.027,0,0,0,1.085.98,1.492,1.492,0,0,0,.875-.315,24.457,24.457,0,0,0,7.91-10.78h.07c1.435,0,1.68.35,1.645,1.365a27.639,27.639,0,0,1-.63,5.25C28.665-.14,28.1.245,27.16.245a5.685,5.685,0,0,1-1.435-.21,1.143,1.143,0,0,0-1.47,1.12,1.176,1.176,0,0,0,.98,1.19,7.428,7.428,0,0,0,2.03.245c2.24,0,3.535-1.015,4.235-4.2a30.5,30.5,0,0,0,.665-5.88c.035-2.065-1.015-3.15-3.57-3.15Zm7.35-6.37c2.38,0,3.5-1.05,3.5-2.94v-5.6c0-1.89-1.12-2.94-3.5-2.94H18.9c-2.38,0-3.535,1.05-3.535,2.94v5.6c.07,2.2,1.54,2.9,3.535,2.94Zm-7.035-2.03c-1.05,0-1.47-.315-1.47-1.26v-1.47H27.4v1.47c0,1.015-.56,1.26-1.47,1.26ZM27.4-23.8h-9.66v-1.4c0-.945.42-1.26,1.47-1.26h6.72c1.05,0,1.47.315,1.47,1.26ZM8.33-18.305h2.66a1.008,1.008,0,0,0,1.015-1.085.99.99,0,0,0-1.015-1.085H8.33v-7.14A1.092,1.092,0,0,0,7.14-28.7a1.1,1.1,0,0,0-1.225,1.085v7.14H2.9A1.01,1.01,0,0,0,1.89-19.39,1.029,1.029,0,0,0,2.9-18.305h3.01V-8.3c-1.19.455-2.415.875-3.43,1.19a1.362,1.362,0,0,0-1.05,1.26A1.151,1.151,0,0,0,2.625-4.69a1.276,1.276,0,0,0,.49-.07,57.116,57.116,0,0,0,8.435-3.6,1.283,1.283,0,0,0,.77-1.085,1.068,1.068,0,0,0-1.085-1.085,1.38,1.38,0,0,0-.7.175q-1,.525-2.2,1.05Zm39.305,1.12c1.155-.07,2.24-.14,3.255-.14,2.1,0,2.87.7,2.87,4.83A27.063,27.063,0,0,1,52.57-4.34a2.83,2.83,0,0,1-3.045,2.31,7.2,7.2,0,0,1-1.47-.14,1.263,1.263,0,0,0-1.54,1.3A1.24,1.24,0,0,0,47.6.42,9.947,9.947,0,0,0,49.63.6C52.325.6,54-.525,55.125-3.64a28.812,28.812,0,0,0,1.295-8.855c0-5.46-1.61-7.175-5.6-7.175-.805,0-1.68.035-2.66.1.42-2.1.77-4.165.98-6.23a1.281,1.281,0,0,0-1.295-1.5,1.314,1.314,0,0,0-1.33,1.3,62.63,62.63,0,0,1-1.085,6.65,51.426,51.426,0,0,0-5.88.98,1.389,1.389,0,0,0-1.155,1.33,1.113,1.113,0,0,0,1.12,1.155,1.806,1.806,0,0,0,.385-.07c1.5-.35,3.255-.665,4.97-.91A59.5,59.5,0,0,1,39.34-2.415a1.522,1.522,0,0,0-.245.8,1.218,1.218,0,0,0,1.26,1.19,1.476,1.476,0,0,0,1.3-.84A65.764,65.764,0,0,0,47.635-17.185Zm13.685-4.76a1.634,1.634,0,0,0-1.085-.455,1.311,1.311,0,0,0-1.33,1.225,1.426,1.426,0,0,0,.42.91A28.709,28.709,0,0,1,64.33-12.81a1.368,1.368,0,0,0,1.26.945,1.517,1.517,0,0,0,1.47-1.54,1.767,1.767,0,0,0-.175-.805A30.426,30.426,0,0,0,61.32-21.945Zm3.745-6.335a27.2,27.2,0,0,1,2.94,3.29,1.024,1.024,0,0,0,.8.455,1.079,1.079,0,0,0,1.015-1.085,1.492,1.492,0,0,0-.28-.805,21.028,21.028,0,0,0-3.01-3.29,1.166,1.166,0,0,0-.77-.28,1.041,1.041,0,0,0-1.05.98A1.032,1.032,0,0,0,65.065-28.28Zm-3.15,2.59a26.013,26.013,0,0,1,2.87,3.36,1.045,1.045,0,0,0,.875.49,1.061,1.061,0,0,0,1.05-1.085,1.321,1.321,0,0,0-.28-.805,19.246,19.246,0,0,0-3.08-3.43,1.083,1.083,0,0,0-.735-.28,1.041,1.041,0,0,0-1.05.98A1.1,1.1,0,0,0,61.915-25.69ZM92.33-17.815V-23.66a56.935,56.935,0,0,0,8.225-2.415,1.22,1.22,0,0,0,.875-1.155,1.225,1.225,0,0,0-1.26-1.225,1.869,1.869,0,0,0-.7.175,41.935,41.935,0,0,1-7.42,2.415,1.437,1.437,0,0,0-.98-.385,1.16,1.16,0,0,0-1.26,1.12v8.26c0,8.47-1.4,13.475-4.2,17.115a1.6,1.6,0,0,0-.385.98,1.069,1.069,0,0,0,1.12,1.05,1.45,1.45,0,0,0,1.155-.63c2.975-3.85,4.69-9.1,4.83-17.29h4.3V1.3a1.274,1.274,0,0,0,2.52,0v-16.94h3.57a1.008,1.008,0,0,0,1.015-1.085.99.99,0,0,0-1.015-1.085ZM77.875-9.135A25.675,25.675,0,0,1,71.96-1.89a1.322,1.322,0,0,0-.525,1.015A1.061,1.061,0,0,0,72.52.175a1.486,1.486,0,0,0,1.015-.42,25.469,25.469,0,0,0,5.32-6.265l-.14,4.445v3.99a1.2,1.2,0,0,0,2.38,0v-6.86a20.547,20.547,0,0,1,3.01,2.17,1.443,1.443,0,0,0,.945.385,1.068,1.068,0,0,0,1.085-1.085,1.616,1.616,0,0,0-.7-1.225A21.191,21.191,0,0,0,81.1-7.245v-1.89H85.75a1.008,1.008,0,0,0,1.015-1.085.99.99,0,0,0-1.015-1.085H81.1V-14.7h5.95a1.008,1.008,0,0,0,1.015-1.085.99.99,0,0,0-1.015-1.085H82.81a28.633,28.633,0,0,0,1.715-4.27,1.181,1.181,0,0,0-1.19-1.47,1.125,1.125,0,0,0-1.085.945,43.351,43.351,0,0,1-1.75,4.8H72.835a1.01,1.01,0,0,0-1.015,1.085A1.029,1.029,0,0,0,72.835-14.7h5.88v3.395h-4.97A1.01,1.01,0,0,0,72.73-10.22a1.029,1.029,0,0,0,1.015,1.085ZM81.13-25.48v-2.835a1.13,1.13,0,0,0-1.225-1.12,1.149,1.149,0,0,0-1.225,1.12v2.835H73.99A1.01,1.01,0,0,0,72.975-24.4,1.029,1.029,0,0,0,73.99-23.31H86.1A1.008,1.008,0,0,0,87.115-24.4.99.99,0,0,0,86.1-25.48Zm-3.745,3.675a1.2,1.2,0,0,0-1.05-.665,1.031,1.031,0,0,0-1.085,1.015,1.333,1.333,0,0,0,.14.595,18.687,18.687,0,0,1,.945,2.38,1,1,0,0,0,1.015.77,1.177,1.177,0,0,0,1.19-1.19,1.757,1.757,0,0,0-.07-.42A13.326,13.326,0,0,0,77.385-21.805Zm37.31,3.08a87.924,87.924,0,0,1-5,17.255,2.391,2.391,0,0,0-.175.77A1.248,1.248,0,0,0,110.81.6,1.652,1.652,0,0,0,112.35-.6a103.4,103.4,0,0,0,5.075-18.62c1.47-.28,3.01-.665,4.585-1.085a1.344,1.344,0,0,0,1.015-1.3,1.128,1.128,0,0,0-1.155-1.19,2.409,2.409,0,0,0-.455.07c-1.19.315-2.38.595-3.535.84.245-1.61.42-3.045.665-5.075a1.18,1.18,0,0,0-1.225-1.435,1.352,1.352,0,0,0-1.4,1.3c-.245,2.2-.385,3.675-.735,5.67-2.03.315-3.85.49-5.285.595a1.322,1.322,0,0,0-1.33,1.33,1.2,1.2,0,0,0,1.295,1.26C111.265-18.305,112.91-18.48,114.695-18.725Zm9.9,1.75a1.508,1.508,0,0,0-1.225,1.47,1.157,1.157,0,0,0,1.19,1.19,1.757,1.757,0,0,0,.42-.07,36.335,36.335,0,0,1,8.47-.91,1.23,1.23,0,0,0,1.295-1.3,1.277,1.277,0,0,0-1.33-1.295A37.886,37.886,0,0,0,124.6-16.975Zm-3.29,10.99c.455,3.71,2.9,5.6,8.82,5.6a24.771,24.771,0,0,0,4.9-.455A1.34,1.34,0,0,0,136.115-2.2a1.223,1.223,0,0,0-1.47-1.3,25.263,25.263,0,0,1-4.48.455c-4.55,0-6.02-1.015-6.37-3.465a1.1,1.1,0,0,0-1.12-1.015A1.376,1.376,0,0,0,121.31-5.985Zm29.12-15.68c-1.925.21-3.78.315-5.39.385a1.239,1.239,0,0,0-1.295,1.26,1.291,1.291,0,0,0,1.435,1.3c1.365-.07,2.87-.175,4.375-.315a51.4,51.4,0,0,1-5.04,10.325,2,2,0,0,0-.315.98,1.225,1.225,0,0,0,1.26,1.225,1.574,1.574,0,0,0,1.365-.84,60.642,60.642,0,0,0,5.53-12c1.715-.245,3.4-.525,5.005-.84a1.4,1.4,0,0,0,1.26-1.33c0-.665-.6-1.3-1.645-1.085-1.19.245-2.485.455-3.78.63.49-1.61.875-3.185,1.225-4.725a1.277,1.277,0,0,0-1.295-1.61,1.228,1.228,0,0,0-1.26,1.05C151.48-25.375,150.99-23.52,150.43-21.665Zm9.66,14.21a15.468,15.468,0,0,0-2.135-.175c-4.48,0-6.51,2.03-6.51,4.34,0,2.695,2.03,4.55,6.16,4.55,2.94,0,5.46-1.47,5.46-5.11V-4.2a26.579,26.579,0,0,1,4.655,2.555,1.321,1.321,0,0,0,.8.28A1.256,1.256,0,0,0,169.75-2.66a1.492,1.492,0,0,0-.77-1.26,24.717,24.717,0,0,0-6.265-2.94,27.924,27.924,0,0,1-.63-5.25,14.2,14.2,0,0,1,.28-2.94,1.171,1.171,0,0,0-1.225-1.33,1.218,1.218,0,0,0-1.225,1.015,13.921,13.921,0,0,0-.315,3.29A28.669,28.669,0,0,0,160.09-7.455ZM157.6-1.085c-2.695,0-3.57-.945-3.57-2.2,0-1.155,1.015-2.065,3.955-2.065a10.456,10.456,0,0,1,2.45.315,8.6,8.6,0,0,1,.07.98A2.635,2.635,0,0,1,157.6-1.085Zm7.315-20.86a2.7,2.7,0,0,0-.525-.07,1.262,1.262,0,0,0-1.295,1.26,1.163,1.163,0,0,0,.875,1.155,27.14,27.14,0,0,1,5.11,2.45,1.614,1.614,0,0,0,.91.28,1.247,1.247,0,0,0,1.225-1.26,1.712,1.712,0,0,0-.875-1.4A23.881,23.881,0,0,0,164.92-21.945Zm33.67-7.805a2.922,2.922,0,0,0-3.045,3.045v23.1a1.084,1.084,0,0,0,1.19,1.015,1.053,1.053,0,0,0,1.155-1.015V-26.25a1.231,1.231,0,0,1,1.295-1.3h7.805a1.048,1.048,0,0,0,1.085-1.085,1.057,1.057,0,0,0-1.085-1.12Zm26.425,2.1a2.7,2.7,0,0,0-.525-.07,1.288,1.288,0,0,0-1.4,1.225,1.4,1.4,0,0,0,1.12,1.3,41.044,41.044,0,0,1,5.67,2.2,2.109,2.109,0,0,0,.84.21,1.241,1.241,0,0,0,1.26-1.3,1.529,1.529,0,0,0-.945-1.365A31.035,31.035,0,0,0,225.015-27.65ZM219.59-10.605c.455-2.765,1.085-5.95,1.785-9.03a1.207,1.207,0,0,0-1.225-1.54,1.3,1.3,0,0,0-1.33,1.085c-.84,3.815-1.61,8.12-2.17,11.76a1.507,1.507,0,0,0,1.505,1.785,1.679,1.679,0,0,0,1.26-.56c3.43-3.885,7.245-5.46,11.165-5.46,3.4,0,5.46,1.575,5.46,4.06,0,3.605-3.15,6.055-9.87,6.965A1.424,1.424,0,0,0,224.8-.21a1.385,1.385,0,0,0,1.68,1.3C234.4.035,238.77-3.43,238.77-8.54c0-3.815-3.4-6.51-8.19-6.51a16.333,16.333,0,0,0-10.92,4.48Zm34.9,1.715c0,6.9,2.45,9.415,7.42,9.415,3.885,0,8.19-1.785,11.935-6.405a1.822,1.822,0,0,0,.49-1.19A1.293,1.293,0,0,0,273-8.33a1.57,1.57,0,0,0-1.225.63c-3.36,4.13-6.86,5.495-9.975,5.495-2.975,0-4.515-1.61-4.515-6.65,0-5.53.315-12.11.7-17.045a1.3,1.3,0,0,0-1.4-1.4,1.317,1.317,0,0,0-1.4,1.225C254.765-21,254.485-14.42,254.485-8.89Zm48.79-1.68a21.073,21.073,0,0,0-6.44-.91c-6.72,0-9.135,2.905-9.135,6.2,0,3.675,3.57,6.475,10.29,6.475a32.5,32.5,0,0,0,3.955-.21A1.3,1.3,0,0,0,303.17-.35a1.24,1.24,0,0,0-1.435-1.295c-1.085.105-2.38.175-3.815.175-5.145,0-7.49-1.645-7.49-3.92,0-2.2,1.96-3.71,6.44-3.71a24.072,24.072,0,0,1,8.015,1.33,1.982,1.982,0,0,0,.63.105,1.5,1.5,0,0,0,1.575-1.47,1.793,1.793,0,0,0-.56-1.26,43.593,43.593,0,0,1-6.23-8.47,74.045,74.045,0,0,0,7.35-1.89,1.309,1.309,0,0,0,.98-1.3,1.157,1.157,0,0,0-1.19-1.19,1.941,1.941,0,0,0-.6.1,65.2,65.2,0,0,1-7.63,1.925,43.108,43.108,0,0,1-1.925-5.915,1.356,1.356,0,0,0-1.365-1.085,1.27,1.27,0,0,0-1.33,1.54,44.48,44.48,0,0,0,2.065,5.95c-3.29.56-6.685.945-9.765,1.155a1.161,1.161,0,0,0-1.19,1.225,1.24,1.24,0,0,0,1.33,1.3,84.387,84.387,0,0,0,10.71-1.33,33.912,33.912,0,0,0,5.565,7.735ZM326.41,3.15A2.922,2.922,0,0,0,329.455.105V-23a1.084,1.084,0,0,0-1.19-1.015A1.053,1.053,0,0,0,327.11-23V-.35a1.231,1.231,0,0,1-1.295,1.3h-7.8a1.048,1.048,0,0,0-1.085,1.085,1.057,1.057,0,0,0,1.085,1.12Zm34.44-18.76a33.92,33.92,0,0,0,3.675-5.355c2.52-.245,5.075-.595,7.28-1.015a1.224,1.224,0,0,0,1.12-1.19,1.257,1.257,0,0,0-1.645-1.155c-1.645.28-3.57.56-5.495.77a26.091,26.091,0,0,0,1.26-3.255,1.192,1.192,0,0,0,.07-.49,1.226,1.226,0,0,0-1.295-1.19,1.344,1.344,0,0,0-1.3,1.015q-.682,2.1-1.575,4.2c-2.135.175-4.2.28-5.95.28a1.321,1.321,0,0,0-1.47,1.3,1.28,1.28,0,0,0,1.435,1.225c1.4-.035,3.045-.105,4.76-.245a27.653,27.653,0,0,1-6.545,7.84,1.5,1.5,0,0,0-.6,1.12,1.21,1.21,0,0,0,1.225,1.19,1.657,1.657,0,0,0,.98-.385c2.94-2.31,5.25-3.43,7.175-3.43,1.505,0,2.415.385,3.01,2.31-6.055,2.975-7.665,5.81-7.665,8.33,0,3.08,2.66,5.04,8.54,5.04a40.787,40.787,0,0,0,7-.56A1.381,1.381,0,0,0,376.145-.6,1.343,1.343,0,0,0,374.36-1.82a33.272,33.272,0,0,1-6.51.6c-4.445,0-5.95-1.05-5.95-2.66s1.26-3.745,5.495-5.81a44.87,44.87,0,0,1,.35,4.62,1.146,1.146,0,0,0,1.19,1.225,1.291,1.291,0,0,0,1.3-1.435,40.668,40.668,0,0,0-.525-5.46,87.864,87.864,0,0,1,9.765-3.395,1.3,1.3,0,0,0,1.05-1.26,1.2,1.2,0,0,0-1.26-1.225,1.361,1.361,0,0,0-.525.07,95.173,95.173,0,0,0-9.59,3.465c-.91-2.695-2.415-3.395-4.62-3.395a7.87,7.87,0,0,0-3.6.98Zm48.335-2.275V-22.33h5.67a1.008,1.008,0,0,0,1.015-1.085.99.99,0,0,0-1.015-1.085h-5.67v-3.6a1.128,1.128,0,0,0-1.225-1.12,1.139,1.139,0,0,0-1.26,1.12v3.6h-5.25a.983.983,0,0,0-.98,1.085,1,1,0,0,0,.98,1.085h5.25v4.445h-7.56a1,1,0,0,0-.98,1.085,1.023,1.023,0,0,0,.98,1.085h18.41a1.008,1.008,0,0,0,1.015-1.085.99.99,0,0,0-1.015-1.085Zm1.19,6.755h-10.5a1.01,1.01,0,0,0-1.015,1.085,1.029,1.029,0,0,0,1.015,1.085h10.5v7.385c0,1.05-.35,1.365-1.365,1.365a8.305,8.305,0,0,1-1.82-.21A1.185,1.185,0,0,0,405.685.77,1.244,1.244,0,0,0,406.7,2a11.1,11.1,0,0,0,2.52.28c2.45,0,3.64-.98,3.64-3.535v-7.7h4.06a1.008,1.008,0,0,0,1.015-1.085.99.99,0,0,0-1.015-1.085h-4.06v-2.31a1.149,1.149,0,0,0-1.225-1.12,1.16,1.16,0,0,0-1.26,1.12ZM393.96-9.975c1.3-.49,2.485-1.015,3.43-1.47a1.173,1.173,0,0,0,.8-1.085,1.13,1.13,0,0,0-1.155-1.085,1.2,1.2,0,0,0-.56.14c-.805.35-1.645.7-2.52,1.015v-7.07h3.01a1.01,1.01,0,0,0,1.015-1.085,1,1,0,0,0-1.015-1.05h-3.01V-28.1a1.149,1.149,0,0,0-1.225-1.12,1.16,1.16,0,0,0-1.26,1.12v6.44h-3.5a.972.972,0,0,0-.98,1.05.983.983,0,0,0,.98,1.085h3.5v7.98c-1.3.42-2.59.8-3.885,1.12a1.3,1.3,0,0,0-1.085,1.26,1.179,1.179,0,0,0,1.19,1.19,2.409,2.409,0,0,0,.455-.07c1.05-.28,2.17-.63,3.325-1.05v7.7c0,1.12-.35,1.365-1.19,1.365a7.009,7.009,0,0,1-1.4-.14A1.209,1.209,0,0,0,387.345.98a1.287,1.287,0,0,0,1.12,1.26,8.6,8.6,0,0,0,1.995.21c2.31,0,3.5-1.05,3.5-3.605Zm9.555,2.87a1.289,1.289,0,0,0-.875-.315,1.136,1.136,0,0,0-1.155,1.12,1.334,1.334,0,0,0,.455.945,18.8,18.8,0,0,1,2.135,2.45,1.27,1.27,0,0,0,1.015.56,1.271,1.271,0,0,0,1.225-1.26,1.679,1.679,0,0,0-.35-.98A11.973,11.973,0,0,0,403.515-7.105Zm20.65-10.955a1.646,1.646,0,0,0-1.12,1.5,1.344,1.344,0,0,0,1.365,1.365,2.109,2.109,0,0,0,.84-.21c6.2-2.765,12.285-4.27,16.31-4.27,4.445,0,7,2.275,7,5.67,0,4.655-3.15,8.26-11.655,9.415a1.347,1.347,0,0,0-1.26,1.33,1.515,1.515,0,0,0,1.82,1.47C446.985-3.15,451.43-7.735,451.43-14c0-5.075-4.1-8.26-9.87-8.26C436.765-22.26,430.395-20.825,424.165-18.06Z" transform="translate(-15.666 1128.465)" fill="#fff"/>
    <path id="パス_9626" data-name="パス 9626" d="M17.5-130.005c10.692-9.234,23.085-22.6,23.085-37.908a14.1,14.1,0,0,0-14.094-14.094,14.263,14.263,0,0,0-14.094,14.094c0,5.589,3.4,11.178,8.505,13.122,2.673.972,4.131,1.7,4.131,4.86,0,6.075-6.8,12.636-11.178,16.038Zm36.936,0c10.692-9.234,23.085-22.6,23.085-37.908a14.1,14.1,0,0,0-14.094-14.094,14.263,14.263,0,0,0-14.094,14.094c0,5.589,3.4,11.178,8.505,13.122,2.673.972,4.131,1.7,4.131,4.86,0,6.075-6.8,12.636-11.178,16.038Z" transform="translate(417.334 1256.465)" fill="#fff" opacity="0.4"/>
    <path id="パス_9627" data-name="パス 9627" d="M72.414-182.007c-10.692,9.477-23.085,22.6-23.085,37.908a14.1,14.1,0,0,0,14.094,14.094A14.1,14.1,0,0,0,77.517-144.1a14.441,14.441,0,0,0-8.5-13.122c-2.43-.972-4.131-1.7-4.131-4.86,0-6.075,6.8-12.636,11.421-16.038Zm-36.936,0c-10.692,9.477-23.085,22.6-23.085,37.908a14.1,14.1,0,0,0,14.094,14.094A14.1,14.1,0,0,0,40.581-144.1a14.441,14.441,0,0,0-8.5-13.122c-2.43-.972-4.131-1.7-4.131-4.86,0-6.075,6.8-12.636,11.421-16.038Z" transform="translate(-40.666 1246.465)" fill="#fff" opacity="0.4"/>
  </g>
</svg>
