<svg xmlns="http://www.w3.org/2000/svg" width="564.992" height="96.34" viewBox="0 0 564.992 96.34">
  <g id="グループ_4" data-name="グループ 4" transform="translate(31.018 -1058.174)">
    <path id="パス_9635" data-name="パス 9635" d="M14.252-12.516A24.319,24.319,0,0,0,19.88-2.6,22.178,22.178,0,0,0,24.556,1.26a1.119,1.119,0,0,0,.5.2c.532,0,1.4-1.036,1.4-1.6,0-.252-.336-.448-.56-.588a22.782,22.782,0,0,1-9.156-11.088,24.175,24.175,0,0,1-1.568-7.14c0-.2-.028-.448-.028-.644,0-.7.028-1.372.056-2.072a.434.434,0,0,1,.252-.42c.2-.112.532-.224.532-.476,0-.28-.336-.308-.644-.364a16.335,16.335,0,0,0-1.96-.252c-.448,0-.588.2-.588.812s.028,1.232.028,1.848A23.916,23.916,0,0,1,8.708-6.86,21.414,21.414,0,0,1,2.156-.924c-.364.224-.644.364-.644.644,0,.532.9,1.624,1.456,1.624A3.47,3.47,0,0,0,4.4.616,22.651,22.651,0,0,0,13.86-12.516a.21.21,0,0,1,.2-.168A.21.21,0,0,1,14.252-12.516ZM36.9-20.944a.638.638,0,0,0,.084.308,18.494,18.494,0,0,1,.56,2.044c.308,1.288.98,3.892,1.428,5.04a1.308,1.308,0,0,1,.084.476c0,.364-.2.532-.476.728-2.324,1.484-5.068,3.444-5.068,6.5a4.724,4.724,0,0,0,2.436,4.116A10.146,10.146,0,0,0,41.524-.56a74.687,74.687,0,0,0,7.756-.448c.448-.112.476-.476.476-1.036,0-.616.028-1.6-.364-1.6a.953.953,0,0,0-.28.028,45.88,45.88,0,0,1-7.364.7A8.864,8.864,0,0,1,37.1-3.864a2.293,2.293,0,0,1-1.2-1.848C35.9-8.12,39.172-10,41.02-11.06a58.573,58.573,0,0,1,8.428-4.116c.2-.056.532-.14.532-.392,0-.364-1.092-2.324-1.512-2.324a1.318,1.318,0,0,0-.728.308,57.818,57.818,0,0,1-6.02,3.3c-.42,0-.532-.392-.616-.728a45.491,45.491,0,0,1-1.036-5.572c-.056-.616-.028-.952-.756-.952-.336,0-.644.056-.98.084C37.688-21.364,36.9-21.336,36.9-20.944Zm33.348,8.428A24.319,24.319,0,0,0,75.88-2.6,22.178,22.178,0,0,0,80.556,1.26a1.119,1.119,0,0,0,.5.2c.532,0,1.4-1.036,1.4-1.6,0-.252-.336-.448-.56-.588a22.782,22.782,0,0,1-9.156-11.088,24.175,24.175,0,0,1-1.568-7.14c0-.2-.028-.448-.028-.644,0-.7.028-1.372.056-2.072a.434.434,0,0,1,.252-.42c.2-.112.532-.224.532-.476,0-.28-.336-.308-.644-.364a16.335,16.335,0,0,0-1.96-.252c-.448,0-.588.2-.588.812s.028,1.232.028,1.848A23.916,23.916,0,0,1,64.708-6.86,21.414,21.414,0,0,1,58.156-.924c-.364.224-.644.364-.644.644,0,.532.9,1.624,1.456,1.624A3.47,3.47,0,0,0,60.4.616,22.651,22.651,0,0,0,69.86-12.516a.21.21,0,0,1,.2-.168A.21.21,0,0,1,70.252-12.516Zm24.7-8.932c-.2,0-.28.168-.28.364v.112a6.122,6.122,0,0,1,.084,1.008,23.723,23.723,0,0,1-.28,3.164c-.112.868-.084,1.2-.952,1.372-1.372.252-3.584.812-4.844.924-.28.028-.728,0-.728.392,0,.252.476,2.324,1.036,2.324a1.262,1.262,0,0,0,.308-.084,29,29,0,0,1,3.892-1.176.309.309,0,0,1,.336.336,22.82,22.82,0,0,1-.7,2.268A23.908,23.908,0,0,1,87.64-2.1c-.168.168-.392.392-.392.616,0,.532,1.344,1.372,1.764,1.372a.673.673,0,0,0,.476-.252,28.74,28.74,0,0,0,1.848-2.492,33.221,33.221,0,0,0,4.592-10.08c.14-.616.28-.98,2.324-.98,1.96,0,2.072,1.316,2.072,2.94a16.813,16.813,0,0,1-1.26,6.44,2.916,2.916,0,0,1-3.024,1.96c-.616,0-1.12-.14-1.372-.14-.224,0-.308.168-.308.364a3.887,3.887,0,0,0,.448,1.6,1.07,1.07,0,0,0,1.148.588,5.513,5.513,0,0,0,5.068-2.94c1.2-2.268,1.624-5.936,1.624-8.512,0-2.66-1.064-4.4-3.92-4.4-.532,0-1.344.028-1.54.028a.485.485,0,0,1-.5-.5,1.191,1.191,0,0,1,.056-.308c.112-.5.168-.952.224-1.344.14-.98.224-1.54.7-1.932a.567.567,0,0,0,.224-.392c0-.308-.476-.392-.7-.476C96.8-21.028,95.228-21.448,94.948-21.448Zm10.92.112c-.308,0-1.176.728-1.176,1.036,0,.14.168.28.252.364.7.7,1.344,1.4,1.988,2.156.084.112.224.308.392.308.364,0,1.176-.756,1.176-1.12,0-.224-.7-.98-.924-1.2C107.324-20.048,106.12-21.336,105.868-21.336Zm2.576-1.9c-.28,0-1.148.728-1.148,1.036,0,.14.168.28.252.364.728.756,1.316,1.372,1.96,2.156.112.112.224.308.392.308.364,0,1.2-.756,1.2-1.148A11.659,11.659,0,0,0,108.444-23.24Zm-4.34,4.956c-.392,0-1.6.728-1.6,1.148a.57.57,0,0,0,.252.448,19.683,19.683,0,0,1,3.64,5.88c.112.252.252.56.588.56.5,0,1.848-.812,1.848-1.288C108.836-12.236,105.084-18.284,104.1-18.284ZM127.54-3.472a25.712,25.712,0,0,0,5.208,3.416,17.615,17.615,0,0,0,4.032,1.568c.7,0,1.232-1.12,1.232-1.484,0-.28-.168-.336-.42-.42a27.226,27.226,0,0,1-8.064-3.78.227.227,0,0,1-.112-.224c0-.168.168-.224.28-.224h4.536c1.092,0,2.212.056,3.3.056.588,0,.616-.252.616-.98s-.028-1.008-.616-1.008c-1.092,0-2.212.056-3.3.056H127.68c-.308,0-.616-.084-.644-.476l.028-.084.028-.056a.723.723,0,0,1,.252-.252c.252-.112.392-.14.392-.308,0-.252-.364-.308-.56-.308-.5-.056-1.6-.168-2.072-.168-.252,0-.476.056-.476.364,0,.112.056.5.084.672,0,.476-.2.616-.644.616h-6.552c-1.12,0-2.212-.056-3.3-.056-.588,0-.616.28-.616,1.008s.028.98.616.98c1.092,0,2.184-.056,3.3-.056h4.536c.14,0,.28.056.28.224a.227.227,0,0,1-.112.224A28.724,28.724,0,0,1,114.1-.5c-.252.084-.476.168-.476.476,0,.392.56,1.428,1.148,1.428A5.213,5.213,0,0,0,116.34.98a27.225,27.225,0,0,0,7.84-4.34.391.391,0,0,1,.252-.084c.252,0,.308.168.336.364v1.428c0,.84-.084,1.708-.084,2.548,0,.9.364.9,1.2.9.868,0,1.176-.028,1.176-.924,0-.84-.084-1.68-.084-2.52v-1.54c.028-.168.084-.364.308-.364A.391.391,0,0,1,127.54-3.472ZM124.264-11.7a.529.529,0,0,1,.56.56v.532a.529.529,0,0,1-.56.56h-3.976a.529.529,0,0,1-.56-.56v-.532a.529.529,0,0,1,.56-.56Zm0-3.248a.529.529,0,0,1,.56.56v.5a.552.552,0,0,1-.56.588h-3.976a.552.552,0,0,1-.56-.588v-.5a.529.529,0,0,1,.56-.56Zm0-3.276a.529.529,0,0,1,.56.56v.56a.529.529,0,0,1-.56.56h-3.976a.529.529,0,0,1-.56-.56v-.56a.529.529,0,0,1,.56-.56Zm2.772.56c0-.392.168-.56.56-.56h4.2c1.064,0,2.1.056,3.164.056.588,0,.616-.2.616-.9s-.028-.9-.616-.9c-1.064,0-2.1.056-3.164.056h-3.7c-.252-.028-.476-.112-.476-.392a.452.452,0,0,1,.084-.252c.14-.308.5-1.092.588-1.232a.5.5,0,0,1,.308-.224c.308-.056.532-.056.532-.308,0-.448-2.352-1.064-2.408-1.064-.224,0-.28.2-.336.308a13.441,13.441,0,0,1-1.092,2.52,1.02,1.02,0,0,1-1.12.644h-3.444c-.252-.028-.476-.084-.476-.364a.669.669,0,0,1,.084-.252c.252-.392.392-.7.532-.924.28-.532.364-.672.756-.784.168-.056.364-.14.364-.336,0-.28-.448-.364-1.036-.532a8.572,8.572,0,0,0-1.344-.336c-.2,0-.28.2-.364.336a24.673,24.673,0,0,1-5.012,7.084c-.112.14-.392.392-.392.588A1.929,1.929,0,0,0,115.08-14.2c.476,0,1.624-1.428,1.96-1.848a.3.3,0,0,1,.252-.112c.084,0,.224.056.252.308v4.592c0,.616-.056,1.2-.056,1.792,0,1.008.56,1.12,1.428,1.12.672,0,1.372-.028,2.044-.028h12.264c1.064,0,2.128.056,3.192.056.56,0,.616-.2.616-.9,0-.672-.028-.9-.616-.9-1.064,0-2.128.056-3.192.056H127.6c-.392,0-.56-.168-.56-.56v-.532c0-.392.168-.56.56-.56h3.024c1.036,0,2.044.056,3.08.056.532,0,.588-.2.588-.868,0-.7-.056-.84-.616-.84-1.008,0-2.044.056-3.052.056H127.6c-.392,0-.56-.168-.56-.588v-.5c0-.392.168-.56.56-.56h3.052c1.008,0,2.044.056,3.052.056.588,0,.616-.224.616-.84,0-.672-.056-.868-.616-.868-1.036,0-2.044.056-3.052.056H127.6c-.392,0-.56-.168-.56-.56Zm23.184-4.2c-.56,0-.9,1.568-.9,1.82,0,.448.532.56,1.568.812.924.252,5.6,1.288,6.328,1.288.756,0,.868-1.82.868-1.988,0-.364-.2-.42-.588-.448a29.578,29.578,0,0,1-6.832-1.372A1.318,1.318,0,0,0,150.22-21.868Zm4.172,5.74a14.616,14.616,0,0,0-7.168,2.268c-.336.2-.868.448-.868.868,0,.532.728,2.128,1.26,2.128a.932.932,0,0,0,.588-.308,9.272,9.272,0,0,1,6.1-2.688,3.958,3.958,0,0,1,4.256,4.312c0,3.892-4.088,7.168-7.5,8.288-.224.084-.56.2-.56.476,0,.448.868,1.848,1.512,1.848a7.276,7.276,0,0,0,2.24-1.008c3.528-2.1,6.776-5.488,6.776-9.828C161.028-13.748,158.312-16.128,154.392-16.128ZM175.028-8.2c-.028,0-1.96.42-1.96,1.036a6.094,6.094,0,0,0,1.008,2.548c1.764,2.492,4.872,2.912,7.7,2.912,1.568,0,7.14-.364,8.4-.812.476-.168.56-.616.56-1.064,0-1.12-.112-1.624-.532-1.624a1.191,1.191,0,0,0-.308.056,37.806,37.806,0,0,1-8.512.98c-1.624,0-3.724-.224-4.872-1.512a4.056,4.056,0,0,1-.952-2.044C175.476-8.036,175.364-8.2,175.028-8.2Zm1.512-10.864c-.336,0-.42.252-.5.5a11.765,11.765,0,0,0-.224,1.316.561.561,0,0,0,.224.532c.924.616,5.012.756,6.272.756a39.325,39.325,0,0,0,5.124-.308c.56-.084.728-.168.728-.84,0-.448,0-1.792-.644-1.792-.112,0-.252.028-.336.028a22.382,22.382,0,0,1-5.1.56,16.674,16.674,0,0,1-4.844-.616A3.1,3.1,0,0,0,176.54-19.068ZM204.9-20.944a.638.638,0,0,0,.084.308,18.5,18.5,0,0,1,.56,2.044c.308,1.288.98,3.892,1.428,5.04a1.308,1.308,0,0,1,.084.476c0,.364-.2.532-.476.728-2.324,1.484-5.068,3.444-5.068,6.5a4.724,4.724,0,0,0,2.436,4.116A10.146,10.146,0,0,0,209.524-.56a74.687,74.687,0,0,0,7.756-.448c.448-.112.476-.476.476-1.036,0-.616.028-1.6-.364-1.6a.953.953,0,0,0-.28.028,45.88,45.88,0,0,1-7.364.7,8.864,8.864,0,0,1-4.648-.952,2.293,2.293,0,0,1-1.2-1.848c0-2.408,3.276-4.284,5.124-5.348a58.572,58.572,0,0,1,8.428-4.116c.2-.056.532-.14.532-.392,0-.364-1.092-2.324-1.512-2.324a1.318,1.318,0,0,0-.728.308,57.818,57.818,0,0,1-6.02,3.3c-.42,0-.532-.392-.616-.728a45.5,45.5,0,0,1-1.036-5.572c-.056-.616-.028-.952-.756-.952-.336,0-.644.056-.98.084C205.688-21.364,204.9-21.336,204.9-20.944Zm22.148,3.528c0,.168.2,2.352.812,2.352a2.232,2.232,0,0,0,.42-.084c1.428-.364,2.884-.588,4.34-.812.672-.084,4-.56,4.424-.56.14,0,.364.056.364.252,0,.14-.14.252-.532.644a12.824,12.824,0,0,0-3.528,8.652c0,5.18,4,6.776,8.512,6.776.42,0,.588-.056.756-.42a5.718,5.718,0,0,0,.392-1.82c0-.392-.308-.392-.644-.392s-.728.028-1.092.028a8.415,8.415,0,0,1-3.22-.476,4.057,4.057,0,0,1-2.212-3.892,11.17,11.17,0,0,1,1.54-5.4A8.608,8.608,0,0,1,242.34-16.8a15.958,15.958,0,0,1,4.76-.56c.7,0,1.092,0,1.092-.616a9.256,9.256,0,0,0-.168-1.512c-.056-.28-.112-.588-.476-.588a1.639,1.639,0,0,0-.364.056c-1.932.336-4.424.588-6.412.84-4.06.476-8.12.924-12.208,1.148C227.416-17.976,227.052-18.032,227.052-17.416Zm20.86,1.12c-.308,0-1.232.644-1.232.952,0,.14.14.28.224.392a23.892,23.892,0,0,1,1.82,2.268c.112.14.224.336.392.336.364,0,1.26-.7,1.26-1.064A11.606,11.606,0,0,0,247.912-16.3Zm-3.276,1.484c-.28,0-1.2.616-1.2.952,0,.112.168.28.224.364.644.756,1.288,1.512,1.848,2.3.084.14.2.308.364.308.364,0,1.26-.672,1.26-1.064,0-.308-.9-1.288-1.092-1.512C245.5-14.084,244.916-14.812,244.636-14.812ZM13.284,22.2c.82,0,1.23.164,1.23,1.066a10.614,10.614,0,0,1-.943,3.608,13.667,13.667,0,0,0-.861,2.214.188.188,0,0,0,.2.164,5.413,5.413,0,0,0,2.009-1.763,19.426,19.426,0,0,1,2.5-2.788c.287-.246.492-.287.492-.574a.725.725,0,0,0-.369-.451c-1.148-.738-1.435-.861-1.435-1.189,0-.164.287-.287.451-.287h2.3c.656,0,1.394-.082,1.394-.574,0-.7-2.378-2.5-3.116-2.5a.958.958,0,0,0-.656.41c-.82,1.025-1.394,1.558-2.132,1.558h-.943c-.9,0-.9-.615-.9-1.353a4.39,4.39,0,0,1,.615-2.378c.123-.2.287-.328.287-.615,0-.533-2.911-1.148-3.239-1.148a.414.414,0,0,0-.451.369,1.457,1.457,0,0,0,.082.41,5.417,5.417,0,0,1,.246,1.968v.943c0,1.558-.082,1.8-1.271,1.8-.656,0-1.968-.082-2.993-.164-.943-.082-1.8-.123-2.009-.123-.082,0-.164.041-.164.123s.041.123.205.328l.82.943a.567.567,0,0,0,.369.2c.164,0,.861-.123,1.517-.164,1.394-.041,3.362-.041,4.469-.041Zm16.441,8.692a.871.871,0,0,1,.9.7,5.718,5.718,0,0,1,.164,1.681c0,4.1,0,7.5-.041,10.906-.041,2.5-.246,5-.246,7.544,0,.779.328.943,1.066.943a1.91,1.91,0,0,0,1.681-.7,2.327,2.327,0,0,0,.41-1.394c0-.7-.082-1.435-.082-2.132-.041-1.23-.041-2.46-.041-3.69V36.06c0-1.353-.041-2.706.082-4.018.041-.533.328-1.148.943-1.148h3.362c1.189,0,1.681-.164,1.681-.574,0-.2-.123-.492-.738-1.066-.492-.492-1.722-1.722-2.173-1.722-.492,0-1.23,1.066-1.558,1.517a1.834,1.834,0,0,1-1.722.779H27.306c-1.271,0-1.394-.656-1.394-1.763,0-1.927-.082-3.895.041-5.863.041-.451.123-.861.574-1.066.738-.328,9.512-1.23,10.783-1.271.369,0,1.353-.082,1.353-.492,0-.287-.984-.984-2.009-1.6a8.055,8.055,0,0,0-1.927-1.066c-.205,0-.328.082-.656.369-1.148,1.025-6.847,3.2-8.4,3.2a4.129,4.129,0,0,1-1.558-.369,4.223,4.223,0,0,0-1.189-.369c-.2,0-.246.2-.246.369,0,.205.082.82.287,2.829.164,2.829.246,5.535.246,8.364,0,3.854,0,8.446-.984,12.136a20.4,20.4,0,0,1-2.952,5.986c-.9,1.353-1.968,2.214-1.968,2.378,0,.123.082.164.2.164a4.242,4.242,0,0,0,1.23-.615,13.781,13.781,0,0,0,4.756-5.453c1.927-3.813,2.255-8.159,2.337-12.382.041-1.312.164-2.419,1.435-2.419ZM6.519,23.309a2.521,2.521,0,0,0,.123.451,14.661,14.661,0,0,1,.533,2.214c.41,2.624.451,2.87,1.435,2.87.943,0,1.435-1.066,1.435-1.886,0-1.845-2.091-3.854-3.28-3.854C6.642,23.1,6.519,23.145,6.519,23.309Zm2.132,6.15c-2.419,0-6.437-.287-6.56-.287s-.164.041-.164.082c0,.082.123.2.287.41l.615.738a.79.79,0,0,0,.492.328h.123a48.129,48.129,0,0,1,5.453-.2H19.434c2.091,0,2.419-.041,2.419-.615a1.656,1.656,0,0,0-.533-.82c-1.148-1.148-1.763-1.64-2.009-1.64-.287,0-.492.246-.656.492-.615.861-1.189,1.517-2.214,1.517ZM13.612,35.9a.678.678,0,0,1-.779-.779v-.328a2.38,2.38,0,0,1,.451-1.763,1.077,1.077,0,0,0,.287-.615c0-.533-.7-.738-1.476-.9a6.961,6.961,0,0,0-1.517-.2c-.328,0-.533.041-.533.246a3.269,3.269,0,0,0,.123.615,12.6,12.6,0,0,1,.123,2.788c0,.656-.287.984-.943.984a55.646,55.646,0,0,1-6.4-.287H2.87c-.082,0-.164,0-.164.082s.164.246.41.533L3.772,37c.123.123.205.205.328.205.246,0,.574-.082,1.025-.123C5.658,37.044,6.314,37,6.888,37h.943c.492,0,1.066,0,1.066.656,0,1.722-2.911,6.888-4.428,8.856a12.838,12.838,0,0,0-1.681,2.378c0,.123.082.164.2.164a16.136,16.136,0,0,0,2.993-2.5A27.333,27.333,0,0,0,9.43,42.128c.164-.287.369-.533.533-.533.41,0,.287.738.287,2.624,0,2.542-.2,5.043-.2,7.544a.809.809,0,0,0,.861.9,2.178,2.178,0,0,0,1.8-.9,3.086,3.086,0,0,0,.123-1.23V49.508c0-1.394-.041-2.829-.041-4.264V40.775c0-1.025,0-1.558.492-1.558.7,0,2.3,2.706,2.747,3.813.41.943.82,1.435,1.394,1.435.943,0,1.353-.984,1.353-1.763,0-1.558-1.353-2.46-2.624-3.157-.861-.451-1.722-.9-2.624-1.353-.41-.205-.656-.328-.656-.7s.41-.492.738-.492h5.822c1.107,0,1.517-.082,1.517-.615,0-.205-.041-.328-.533-.82-1.23-1.23-1.763-1.681-2.009-1.681-.287,0-.492.246-.656.492A2.843,2.843,0,0,1,15.539,35.9ZM46.945,47.253c0,.656.287,1.722,1.107,1.722,1.64-.041,2.624-2.214,3.772-4.92a78.648,78.648,0,0,0,4.1-14.35,3.807,3.807,0,0,1,.492-1.517,1.9,1.9,0,0,1,.861-.369c3.2-.861,6.765-2.009,6.765-4.387,0-.861-.451-1.271-1.353-1.271-.41,0-.984.082-1.271.082-.656,0-3.69-.738-3.69-1.476,0-.123.041-.2.2-.574a1.88,1.88,0,0,0,.246-.656c0-.328-.533-.9-.861-1.189a3.594,3.594,0,0,0-2.419-.984c-.779,0-1.845.41-1.845.943,0,.246.533.861.82,1.148a3.936,3.936,0,0,1,.82,2.911,20.29,20.29,0,0,1-.246,2.747.8.8,0,0,1-.287.615,1.752,1.752,0,0,1-.82.246,13.845,13.845,0,0,1-2.009.123,11.01,11.01,0,0,1-4.223-.7.98.98,0,0,0-.369-.123.176.176,0,0,0-.164.164c0,.7,1.394,1.845,2.132,2.214a8.089,8.089,0,0,0,3.649.738h.9c.287,0,.574.041.574.41a25.643,25.643,0,0,1-.656,2.87,55.42,55.42,0,0,1-5.494,13.571A4.4,4.4,0,0,0,46.945,47.253ZM57.728,22.2a6.932,6.932,0,0,1,2.3.943c.287.2.328.287.328.369,0,.123-.041.246-.287.41a10.252,10.252,0,0,1-2.255,1.025,1.935,1.935,0,0,1-.615.082c-.205,0-.287-.164-.287-.41,0-.164.123-.656.2-1.066C57.318,22.407,57.318,22.2,57.728,22.2Zm4.223,8.323a1.883,1.883,0,0,0,.41-.041,21.284,21.284,0,0,1,3.895-.287c.492,0,3.526.041,3.526.656,0,.369-1.435,1.517-1.8,1.886-.123.123-.328.328-.328.41,0,.123.123.123.2.123a2.476,2.476,0,0,0,.9-.246,9.383,9.383,0,0,1,3.854-.943c.369,0,.984.082,1.517.082.246,0,.533.041.779.041.656,0,1.189-.246,1.189-.943,0-2.583-5-2.993-6.806-2.993a17.006,17.006,0,0,0-5.9.984c-.451.164-1.8.7-1.8,1.107C61.582,30.525,61.828,30.525,61.951,30.525ZM59.737,41.39c-.451,0-.574,1.435-.574,1.8a5.647,5.647,0,0,0,3.362,5.248c2.255,1.23,5.9,1.6,8.815,1.6h.984c1.8,0,4.018-.123,4.018-1.394,0-1.517-2.132-2.05-3.321-2.05-.9,0-1.845.123-2.747.205-.533.041-1.107.082-1.681.082a12.152,12.152,0,0,1-5.9-1.23,4.881,4.881,0,0,1-2.665-3.772C59.983,41.677,59.819,41.39,59.737,41.39ZM94.628,22.653a6.5,6.5,0,0,1-3.444-1.025c-.533-.328-.7-.369-.82-.369-.246,0-.287.287-.287.492a2.683,2.683,0,0,0,.861,1.8,6.292,6.292,0,0,0,3.977,1.517c.738.041.9.164.9.615a37.24,37.24,0,0,1-1.927,6.15,33.344,33.344,0,0,1-4.182,7.708c-.738.984-.9,1.435-.9,1.886a1.12,1.12,0,0,0,1.23,1.148c1.558,0,2.911-2.214,3.526-3.444a63.509,63.509,0,0,0,4.551-13.366c.123-.615.328-.738.9-.9,2.255-.615,5.248-1.517,5.248-3.116,0-1.189-1.435-1.6-2.337-1.845a4.984,4.984,0,0,1-1.681-.615,2.683,2.683,0,0,1-.492-.615,3.072,3.072,0,0,0-2.624-1.353c-.615,0-1.681.287-1.681.82a1.143,1.143,0,0,0,.287.533,3.713,3.713,0,0,1,1.066,2.46c0,.533-.082,1.107-.369,1.271A4.112,4.112,0,0,1,94.628,22.653Zm4.551-.574c-.164,0-.246-.082-.246-.328,0-.287.328-1.763.984-1.763a3.168,3.168,0,0,1,1.394.7.49.49,0,0,1,.164.328c0,.123-.041.2-.2.369a3.512,3.512,0,0,1-1.394.574A2.766,2.766,0,0,1,99.179,22.079Zm9.84,24.026c.738,0,2.706,1.394,3.4,2.05a1.691,1.691,0,0,0,1.271.656c.82,0,1.107-.738,1.107-1.435,0-1.763-3.239-3.362-4.715-3.9a2.786,2.786,0,0,1-1.558-.943c-.779-1.271-1.271-6.191-1.271-7.831a4.671,4.671,0,0,1,1.025-3.444,4.79,4.79,0,0,1,2.911-1.189,2.639,2.639,0,0,1,.984.2,8.079,8.079,0,0,0,2.173.615,1.963,1.963,0,0,0,1.968-2.132,4.409,4.409,0,0,0-2.993-4.182,13.351,13.351,0,0,0-2.419-.7c-.123,0-.287.041-.287.2s.205.328.328.451a3.548,3.548,0,0,1,1.353,2.337c0,.82-.328,1.148-1.394,1.8-1.353.861-2.706,1.394-3.69,2.624-1.394,1.763-1.435,4.182-1.435,6.355,0,1.23.082,2.132.123,3.444,0,.287.041.7.041.861,0,.492-.246.574-.82.574-.492,0-1.271-.082-2.009-.082-2.583,0-6.478.943-6.478,3.977,0,2.993,3.362,4.838,6.191,4.838,2.87,0,5.289-1.435,5.781-4.469C108.691,46.269,108.732,46.1,109.019,46.1Zm-5.617-1.64a9.125,9.125,0,0,1,2.091.246c.492.164.615.369.615.82a3.1,3.1,0,0,1-.656,1.722,4.3,4.3,0,0,1-3.649,1.6c-1.312,0-3.731-.574-3.731-2.214,0-2.05,3.239-2.173,4.674-2.173Zm47.15-24.4c.7,0,1.271.2,1.312.984.123,1.763.041,3.567.041,5.33,0,5.822.082,11.644.082,17.466v3.362c0,1.476-.246,1.968-1.8,1.968-.574,0-2.337-.082-3.239-.123h-.451c-.123,0-.328,0-.328.205,0,.246.574.41.82.492,1.271.41,2.788,1.312,3.157,2.583.164.574.574.615,1.148.615a3.887,3.887,0,0,0,3.075-1.64,5.065,5.065,0,0,0,.7-2.87c0-3.28-.205-6.56-.205-9.84,0-2.132-.123-17.056.082-17.835.123-.574.615-.7,1.107-.7h4.264c.779,0,1.763-.082,1.763-.656,0-.2-.779-.861-1.681-1.6a8.377,8.377,0,0,0-2.05-1.353c-.492,0-1.23,1.066-1.476,1.435a2.387,2.387,0,0,1-2.337,1.066H132.471c-1.886,0-3.731-.041-5.617-.123-.574-.041-1.6-.164-1.8-.164-.082,0-.164.041-.164.123s.082.164.328.451l.656.738c.2.246.246.287.369.287.041,0,.41-.082.738-.123.492-.082,3.649-.082,5.289-.082ZM140.261,40.324c.943.041,1.312.328,1.312,1.271v.492c0,.656.246,1.148.984,1.148,1.353,0,1.927-1.271,1.927-2.46,0-.738-.082-1.476-.082-2.214-.082-2.255-.164-4.469-.164-6.724a3.276,3.276,0,0,1,.82-2.46c.246-.287.328-.451.328-.574,0-.287-.615-.9-1.23-1.312a8,8,0,0,0-1.845-1.148c-.123,0-.41.287-.533.451a1.855,1.855,0,0,1-1.722.9h-4.551a3.1,3.1,0,0,1-1.6-.41,6.749,6.749,0,0,0-2.337-.943c-.369,0-.492.287-.492.615a6.464,6.464,0,0,0,.041.779c.164,1.517.328,4.756.328,6.314,0,2.214-.041,4.346-.123,6.56-.041.656-.041,1.353-.041,2.009,0,.82.328,1.476,1.271,1.476,1.148,0,1.681-1.148,1.722-2.132.041-.9.123-1.64,1.23-1.64Zm-4.756-1.066a1.171,1.171,0,0,1-1.148-.533c-.164-.41-.164-2.542-.164-8.528,0-.9.205-1.435,1.189-1.435h4.92a1.08,1.08,0,0,1,1.148.738c.123.615.123,3.239.123,8.282,0,.779-.082,1.476-1.189,1.476Zm45.182-15.006c0,.287-.164.369-.861.41-1.927.164-3.9.2-5.822.2h-.779c-.246,0-.738,0-.738-.369a4.562,4.562,0,0,1,.574-1.23c.574-.943,1.271-2.255,1.927-3.362a4.162,4.162,0,0,1,1.271-1.271c.205-.164.656-.451.656-.7,0-.451-.615-.7-.984-.861-.738-.369-1.312-.574-2.255-.984a1.931,1.931,0,0,0-.7-.164c-.246,0-.205.328-.205.492v.287a10.852,10.852,0,0,1-.287,2.132,29.807,29.807,0,0,1-1.435,4.592c-.451,1.23-.656,1.435-1.394,1.435a11.781,11.781,0,0,1-1.722-.2,3.4,3.4,0,0,0-.82-.082c-.41,0-.615.2-.615.574,0,.779.492,3.075,1.189,3.075a.765.765,0,0,0,.41-.2,2.363,2.363,0,0,1,1.025-.451c.205-.041.287-.041.656-.123,2.173-.41,4.3-.9,6.478-1.353l2.829-.615a7.208,7.208,0,0,1,1.517-.287c.451,0,.574.287.7.656.287.656.533,2.132,1.476,2.132.82,0,1.23-1.025,1.23-1.681,0-2.706-4.223-5.822-5.166-5.822a.176.176,0,0,0-.164.164.91.91,0,0,0,.205.451C179.252,21.587,180.687,23.678,180.687,24.252Zm19.926-2.747c0-.246-.779-1.066-1.394-1.517a4.975,4.975,0,0,0-1.517-.9c-.205,0-.492.328-.984.861a27.287,27.287,0,0,1-5.9,4.387,3.742,3.742,0,0,1-1.066.451c-.246,0-.328-.2-.369-.41a41.957,41.957,0,0,1,.082-4.551c.041-.41.451-.738.738-1.025.123-.123.328-.287.328-.492,0-.41-.656-.656-1.23-.82a14.293,14.293,0,0,0-2.46-.533c-.164,0-.328,0-.328.164a2.522,2.522,0,0,0,.041.533,20.973,20.973,0,0,1,.123,2.3c0,1.886-.041,3.813-.041,5.74,0,5.986.533,7.421,6.888,7.421,1.845,0,5.33-.082,7.011-.779.779-.369,1.64-.984,1.64-1.968,0-.164-.123-.41-.533-.861a2.8,2.8,0,0,1-.82-2.091V27c0-.41-.041-.943-.246-.943-.123,0-.246.164-.41.574a15.4,15.4,0,0,1-1.312,2.747c-.861,1.107-3.28,1.107-4.592,1.107H193.4c-1.435,0-3.4-.123-3.813-1.435a7.819,7.819,0,0,1-.205-2.173c0-.943.369-1.189,1.23-1.435.9-.287,1.8-.656,2.706-1.025,1.6-.738,4.756-2.214,6.15-2.378C200.162,21.956,200.613,21.833,200.613,21.505ZM172.4,30.976a3.525,3.525,0,0,1-1.6-.369,5.842,5.842,0,0,0-2.214-.943c-.164,0-.287.082-.287.246a8.079,8.079,0,0,0,.041.861c.287,2.46.287,6.314.287,8.61,0,2.829,0,5.658-.123,8.487-.041,1.312-.205,2.583-.205,3.854a.9.9,0,0,0,.984,1.025c1.722,0,2.091-1.394,2.091-2.788V43.522a1.062,1.062,0,0,1,1.189-1.189h5.371c.656,0,1.066.123,1.189.738a22.438,22.438,0,0,1,.082,2.665c0,.9,0,1.763-.041,2.255-.082,1.394-.246,1.64-1.271,1.64-.738,0-1.476-.123-2.214-.123-.123,0-.287.082-.287.205,0,.2.287.328.533.41a3.569,3.569,0,0,1,2.132,2.214c.082.246.205.574.492.574a3.121,3.121,0,0,0,2.255-.9,3.81,3.81,0,0,0,1.148-3.034c0-2.747-.164-5.453-.164-8.159,0-2.05.082-4.141.082-6.191v-.574a1.669,1.669,0,0,1,.287-1.107c.205-.287.656-.656.656-1.025,0-.533-1.968-2.173-2.378-2.173-.205,0-.41.2-.7.533a1.793,1.793,0,0,1-1.517.7Zm5.7,1.107c1.107,0,1.148.41,1.148,1.64v.9c0,1.107-.082,1.476-1.312,1.476h-5.33c-1.148,0-1.312-.615-1.312-1.394V33.559c0-.779.123-1.476,1.23-1.476Zm22.427,7.872c0-.246-.328-.492-.533-.656-.451-.328-1.968-1.722-2.46-1.722-.328,0-.533.246-.943.738-.738.943-5.945,4.879-6.888,4.879-.246,0-.328-.287-.328-.492V41.267c0-.656.041-1.558.082-2.337.041-1.271.082-1.6.533-2.132.123-.123.328-.287.328-.492,0-.738-2.87-1.271-3.485-1.271-.164,0-.492,0-.492.164,0,.41.123.943.123,1.353v6.642c0,1.148-.041,2.255-.041,3.4,0,1.476.082,3.116,1.189,4.141,1.312,1.271,3.813,1.353,5.74,1.353h2.378a15.593,15.593,0,0,0,5.33-.656c.861-.369,2.05-1.271,2.05-2.3a1.8,1.8,0,0,0-.41-.943,9.186,9.186,0,0,1-1.107-3.444c-.041-.328-.082-.861-.328-.861-.205,0-.246.205-.369.574a20.344,20.344,0,0,1-.984,2.952c-.82,1.681-1.845,1.968-4.346,2.009h-1.394c-3.034,0-4.387-.082-4.756-1.886a12.145,12.145,0,0,1-.082-1.845c0-1.107.205-1.394,1.23-1.722,1.927-.615,3.772-1.435,5.617-2.132a29.35,29.35,0,0,1,3.526-1.353C200.408,40.365,200.531,40.242,200.531,39.955ZM172.61,41.226c-1.148,0-1.271-.7-1.271-1.6v-.533c0-1.066,0-1.886,1.271-1.886h5.33c1.189,0,1.271.451,1.271,1.6v.984c0,.82-.123,1.435-1.271,1.435Zm53.382-15.334c-.492,0-.738-.164-.738-.615a8.676,8.676,0,0,1,.492-1.6c.451-1.23.738-1.64,1.435-2.05.451-.287.615-.451.615-.7,0-.9-3.731-1.968-4.059-1.968-.287,0-.492.123-.492.328a5.615,5.615,0,0,0,.082.656,6.66,6.66,0,0,1,.082.738,13.843,13.843,0,0,1-.287,2.583,48.432,48.432,0,0,1-1.886,6.437c-.369,1.066-1.968,4.92-2.378,5.822a4.17,4.17,0,0,0-.328.861c0,.041.041.082.123.082.205,0,.656-.533,1.8-1.968a25.688,25.688,0,0,0,3.362-5.863c.656-1.476.943-1.681,1.8-1.681h2.665c.656,0,1.066.123,1.189.574.164.533.164.943.164,5.084v3.2c0,1.148-.287,1.476-1.312,1.476-2.337,0-5.412-.082-6.519-.164-.41-.041-.9-.082-1.107-.082-.041,0-.123,0-.123.041s.041.123.164.287l.779.943c.205.246.246.287.369.287l.779-.082c.82-.082,2.5-.123,5.617-.123,1.271,0,1.312.123,1.312,3.444,0,2.46-.041,4.182-.041,6.642a1.851,1.851,0,0,1-.287,1.025c-.246.246-.41.287-.984.287H224.8c-1.845,0-3.608-.041-4.551-.082-1.189-.041-1.64-.082-2.009-.123l-.861-.082c-.082,0-.123.041-.123.082s.041.123.164.287l.779.943c.164.205.246.287.369.287l.7-.082c.7-.082,2.46-.123,5.33-.123h18.245c1.476,0,1.722-.287,1.722-.574,0-.738-2.993-3.4-3.567-3.4-.205,0-.451.246-1.6,2.009-.533.82-.738.861-2.5.861h-3.239c-1.23,0-1.312-.041-1.312-3.157,0-2.255.041-3.813.041-6.068,0-1.23.041-1.6.246-1.845a1.292,1.292,0,0,1,1.025-.328h7.954c1.189,0,1.6-.164,1.6-.533,0-.7-3.239-2.911-3.526-2.911-.164,0-.41.246-1.23,1.476-.451.7-.861.861-2.337.861h-2.46c-1.271,0-1.312-.41-1.312-2.747,0-1.845,0-3.075.041-5.166.041-1.927.041-2.419,1.558-2.419h7.79c.984,0,1.435-.164,1.435-.451,0-.492-2.993-2.911-3.526-2.911-.205,0-.533.246-1.107,1.148-.7,1.066-.779,1.148-2.214,1.148H233.7c-.943,0-1.23-.246-1.23-1.189V20.767c0-1.394.082-2.132.7-2.583.533-.41.656-.615.656-.943a.7.7,0,0,0-.533-.7,25.365,25.365,0,0,0-3.649-.82c-.41,0-.7.205-.7.492a3.144,3.144,0,0,0,.205.7,3.85,3.85,0,0,1,.328,1.681v.7l.082,5.125c0,1.107-.2,1.476-1.271,1.476ZM216.6,17.2a.5.5,0,0,0-.287-.451,25.023,25.023,0,0,0-3.977-.9.335.335,0,0,0-.369.328l.082.574a8.1,8.1,0,0,1,.287,1.64c.041.533.041.861.041,1.353v1.886c.041,5.084.082,10.209.082,15.293,0,3.977,0,8-.246,12.013-.082,1.312-.123,1.927-.123,2.214,0,1.025.246,1.886,1.312,1.886,1.312,0,1.845-1.312,1.845-2.419,0-.164,0-.7-.041-1.271l-.082-1.64V33.149c0-1.066.082-5.7.123-8.774,0-1.271.041-2.46.041-3.4a19.6,19.6,0,0,1,.041-2.009,1.27,1.27,0,0,1,.574-.82C216.521,17.651,216.6,17.446,216.6,17.2Zm-6.068,11.685a20.513,20.513,0,0,0-.369-3.362c-.205-.943-.451-1.353-.615-1.353-.082,0-.123.082-.164.533a15.711,15.711,0,0,1-1.558,4.838c-1.394,2.5-1.476,2.706-1.476,3.4,0,.779.574,1.845,1.476,1.845C209.346,34.789,210.535,32.206,210.535,28.885Zm6.232-4.469a.109.109,0,0,0-.123.123c0,.041.164.533.287,1.066a28.585,28.585,0,0,1,.369,3.813v.246c0,.82.164,1.23.7,1.23a1.812,1.812,0,0,0,1.476-1.025,2.965,2.965,0,0,0,.328-1.353,3.942,3.942,0,0,0-1.189-2.87A3.613,3.613,0,0,0,216.767,24.416Zm40.181,4.136c-.2,0-.28.168-.28.364v.112a6.122,6.122,0,0,1,.084,1.008,23.72,23.72,0,0,1-.28,3.164c-.112.868-.084,1.2-.952,1.372-1.372.252-3.584.812-4.844.924-.28.028-.728,0-.728.392,0,.252.476,2.324,1.036,2.324a1.262,1.262,0,0,0,.308-.084,29,29,0,0,1,3.892-1.176.309.309,0,0,1,.336.336,22.819,22.819,0,0,1-.7,2.268,23.908,23.908,0,0,1-5.18,8.344c-.168.168-.392.392-.392.616,0,.532,1.344,1.372,1.764,1.372a.673.673,0,0,0,.476-.252,28.74,28.74,0,0,0,1.848-2.492,33.22,33.22,0,0,0,4.592-10.08c.14-.616.28-.98,2.324-.98,1.96,0,2.072,1.316,2.072,2.94a16.813,16.813,0,0,1-1.26,6.44,2.916,2.916,0,0,1-3.024,1.96c-.616,0-1.12-.14-1.372-.14-.224,0-.308.168-.308.364a3.887,3.887,0,0,0,.448,1.6,1.07,1.07,0,0,0,1.148.588,5.513,5.513,0,0,0,5.068-2.94c1.2-2.268,1.624-5.936,1.624-8.512,0-2.66-1.064-4.4-3.92-4.4-.532,0-1.344.028-1.54.028a.485.485,0,0,1-.5-.5,1.191,1.191,0,0,1,.056-.308c.112-.5.168-.952.224-1.344.14-.98.224-1.54.7-1.932a.567.567,0,0,0,.224-.392c0-.308-.476-.392-.7-.476C258.8,28.972,257.228,28.552,256.948,28.552Zm10.92.112c-.308,0-1.176.728-1.176,1.036,0,.14.168.28.252.364.7.7,1.344,1.4,1.988,2.156.084.112.224.308.392.308.364,0,1.176-.756,1.176-1.12,0-.224-.7-.98-.924-1.2C269.324,29.952,268.12,28.664,267.868,28.664Zm2.576-1.9c-.28,0-1.148.728-1.148,1.036,0,.14.168.28.252.364.728.756,1.316,1.372,1.96,2.156.112.112.224.308.392.308.364,0,1.2-.756,1.2-1.148A11.659,11.659,0,0,0,270.444,26.76Zm-4.34,4.956c-.392,0-1.6.728-1.6,1.148a.57.57,0,0,0,.252.448,19.683,19.683,0,0,1,3.64,5.88c.112.252.252.56.588.56.5,0,1.848-.812,1.848-1.288C270.836,37.764,267.084,31.716,266.1,31.716Zm16.24.784c-.112,0-.56-.028-.56-.476a.659.659,0,0,1,.056-.224c.224-.616.336-1.064.448-1.428.224-.812.308-1.092.756-1.316.168-.084.448-.2.448-.448,0-.336-.448-.42-1.428-.672a11.2,11.2,0,0,0-1.176-.252c-.252,0-.336.252-.392.448A24.031,24.031,0,0,1,275.9,38.184c-.14.168-.42.476-.42.7,0,.532,1.176,1.092,1.624,1.092.812,0,2.856-3.836,3.248-4.62a1,1,0,0,1,1.064-.644h4.592c.56,0,.784.224.784.784v3.64c0,.532-.224.756-.784.756h-3.92c-1.064,0-2.156-.056-3.248-.056-.672,0-.672.364-.672,1.176,0,.784,0,1.148.672,1.148,1.092,0,2.184-.084,3.248-.084h3.92c.56,0,.784.224.784.784V47.7c0,.532-.224.756-.784.756H279.6c-1.12,0-2.24-.056-3.388-.056-.616,0-.644.28-.644,1.176s.028,1.176.644,1.176c1.148,0,2.268-.084,3.388-.084h16.6c1.148,0,2.268.084,3.416.084.644,0,.644-.336.644-1.176,0-.868,0-1.176-.672-1.176-1.12,0-2.24.056-3.388.056h-6.216c-.532,0-.756-.224-.756-.756V42.86c0-.56.224-.784.756-.784h4c1.092,0,2.184.084,3.276.084.644,0,.644-.308.644-1.148,0-.868,0-1.176-.644-1.176-1.092,0-2.184.056-3.276.056h-4c-.532,0-.756-.224-.756-.756V35.5c0-.56.224-.784.756-.784h5.18c1.12,0,2.24.084,3.36.084.616,0,.644-.308.644-1.176,0-.9,0-1.176-.644-1.176-1.12,0-2.24.056-3.36.056h-5.18c-.532,0-.756-.224-.756-.784V29.2c0-.84.028-1.26.336-1.484.252-.168.392-.224.392-.42,0-.364-.56-.364-.952-.392-.476-.028-1.428-.168-1.848-.168-.28,0-.5.084-.5.42,0,.084.028.168.028.252a16.234,16.234,0,0,1,.112,2.072v2.24c0,.56-.224.784-.784.784Zm31.864,12.852c.784,0,1.512,0,1.512.588,0,1.764-1.2,2.24-2.772,2.24-.84,0-2.212-.224-2.212-1.344C310.736,45.408,313.2,45.352,314.208,45.352Zm1.064-17.3c-.224,0-.392.056-.392.308a2.233,2.233,0,0,0,.084.42c.084.448.252,2.408.252,2.884,0,.756-.728.728-3.276.728-1.736,0-3.864-.168-4.4-.168-.448,0-.476.308-.476.728,0,1.568.2,1.736,1.344,1.736,2.66,0,5.4-.168,6.328-.168.56,0,.728.588.728,2.632,0,.784-.56.728-2.548.728-1.316,0-3.22-.168-3.3-.168-.308,0-.42.2-.42.5a4.043,4.043,0,0,0,.364,1.624c.2.28.756.308,1.512.308,1.288,0,2.744-.084,3.892-.084.616,0,.672.5.672,2.52,0,.252.056.812-.476.812-.056,0-.84-.056-1.344-.056-2.184,0-5.292.728-5.292,3.472,0,2.436,2.324,3.416,4.424,3.416s4.536-.756,4.928-3.108c.056-.336.084-.812.532-.812.616,0,2.632,1.4,3.192,1.848.224.168.532.448.812.448.56,0,1.372-1.148,1.372-1.736,0-.476-.952-.98-1.344-1.2a15.716,15.716,0,0,0-3.64-1.624c-.84-.252-.98-.14-.98-3.416,0-.784.336-.812,1.064-.9a30.787,30.787,0,0,0,3.528-.56c.476-.112.56-.308.56-1.26,0-.308.028-1.2-.392-1.2a2.522,2.522,0,0,0-.448.084,24.131,24.131,0,0,1-3.864.756c-.364,0-.616-.224-.616-2.576,0-.784.728-.784,1.288-.84,1.484-.2,3.136-.392,4.592-.7.784-.168.98-.14.98-.728,0-.392-.056-1.792-.616-1.792a2.4,2.4,0,0,0-.476.084,36.1,36.1,0,0,1-4.592.952,5.467,5.467,0,0,1-.644.056c-.392,0-.588-.28-.588-.672,0-1.68.168-2.044.308-2.24a.567.567,0,0,0,.168-.392c0-.308-.476-.336-.924-.392C316.756,28.244,315.636,28.048,315.272,28.048Zm24.248-.56c-.28,0-.364.14-.364.392,0,.14.028.476.028.868,0,1.12-.084,2.548-.168,3.668-.028.336.028.756-.2,1.008-.448.588-3.976,1.26-4.816,1.372-.336.028-.84.028-.84.42,0,.112.392,2.156,1.148,2.156a23.825,23.825,0,0,0,3.7-1.232,1.952,1.952,0,0,1,.532-.168c.224,0,.336.168.336.392,0,.14-.084,1.148-.084,1.6a1.692,1.692,0,0,1-.28.9,69.611,69.611,0,0,1-4.452,7.5,1.094,1.094,0,0,0-.28.532c0,.448,1.26,1.512,1.68,1.512a.338.338,0,0,0,.308-.224c.728-1.344,1.484-2.632,2.324-3.892.056-.112.2-.308.336-.308.168,0,.224.2.224.336,0,1.26-.056,2.52-.112,3.752,0,.28-.056,1.624-.056,1.68,0,.56.5.56,1.008.56,1.54,0,1.568-.252,1.568-.476,0-.5-.14-2.772-.168-3.528-.056-1.428-.084-2.828-.084-4.256v-.476a1.342,1.342,0,0,1,.56-1.12,35.537,35.537,0,0,1,3.612-3.5c.812-.672,2.212-1.932,3.3-1.932.98,0,.952,1.2.952,1.932,0,2.688-.336,5.376-.336,8.064,0,1.624.224,3.892,2.352,3.892a6.785,6.785,0,0,0,3.7-1.54c.336-.2,1.26-.84,1.26-1.232s-.588-2.072-1.008-2.072a.687.687,0,0,0-.476.308c-.588.644-1.876,1.848-2.772,1.848-.756,0-.7-1.092-.7-1.932,0-2.772.308-5.544.308-8.316a4.906,4.906,0,0,0-.448-2.464,2.7,2.7,0,0,0-2.184-1.092c-1.736,0-3.3,1.288-4.536,2.38-.7.588-2.016,1.82-2.632,2.464a.286.286,0,0,1-.224.14c-.224,0-.252-.168-.252-.336a1.535,1.535,0,0,1,.112-.7l.952-1.708c.168-.224.364-.392.364-.56,0-.2-.532-1.176-.98-1.2-.28,0-.532-.056-.532-.364,0-.476.2-1.9.28-2.436.14-1.12.2-1.176.5-1.484a.631.631,0,0,0,.224-.392c0-.2-.2-.28-.336-.336A22.889,22.889,0,0,0,339.52,27.488Zm32.62,19.46c0,.476-.224,1.12-.784,1.12-.952,0-2.492-.56-2.492-1.708a1.317,1.317,0,0,1,1.372-1.26A1.859,1.859,0,0,1,372.14,46.948Zm2.436-17.892a3.881,3.881,0,0,0-.98.252,27.211,27.211,0,0,1-7.056,1.036h-.5c-.784,0-.924.056-.924.7,0,.448.056,2.016.672,2.016a6.064,6.064,0,0,0,.7-.112c1.764-.336,3.556-.644,5.292-1.064a3.5,3.5,0,0,1,.532-.084c.2,0,.392.084.392.308,0,.252-.2.42-.336.588a135.619,135.619,0,0,1-9.744,9.912c-.2.2-.56.448-.56.756,0,.392,1.064,1.6,1.624,1.6.168,0,.28-.168.448-.364.952-1.092,1.932-2.184,2.968-3.192a8.615,8.615,0,0,1,6.328-2.688c2.548,0,5.012,1.176,5.012,4.032a5.176,5.176,0,0,1-4.06,4.844.265.265,0,0,1-.28-.28,3.473,3.473,0,0,0,.112-.7c0-1.96-2.268-3.36-4.032-3.36a3.242,3.242,0,0,0-3.332,3.108,3.119,3.119,0,0,0,1.344,2.464,6.545,6.545,0,0,0,4,1.12c4.368,0,8.652-2.548,8.652-7.308,0-3.836-3.22-5.992-6.8-5.992a6.228,6.228,0,0,0-1.6.2,3.425,3.425,0,0,1-.476.084.314.314,0,0,1-.336-.28.736.736,0,0,1,.2-.42A34.574,34.574,0,0,1,376.48,31.8c.14-.084.532-.308.532-.476C377.012,30.876,375.64,29.056,374.576,29.056Zm32.284,3.808a.647.647,0,0,1,.672.672v.588a.654.654,0,0,1-.672.7h-5.4a.654.654,0,0,1-.672-.7v-.588a.647.647,0,0,1,.672-.672Zm-5.4-1.568a.647.647,0,0,1-.672-.672v-.56a.647.647,0,0,1,.672-.672h5.4a.647.647,0,0,1,.672.672v.56a.647.647,0,0,1-.672.672Zm8.232-1.2c0-.448.028-.868.028-1.288,0-.952-.448-1.176-1.316-1.176-.588,0-1.148.028-1.708.028h-5.068c-.56,0-1.148-.028-1.708-.028-.84,0-1.316.252-1.316,1.148,0,.448.028.868.028,1.316v4.032c0,.42-.028.868-.028,1.288,0,.924.476,1.176,1.316,1.176.588,0,1.148-.056,1.708-.056h5.068c.588,0,1.148.056,1.736.056.9,0,1.288-.308,1.288-1.232,0-.42-.028-.812-.028-1.232Zm-18.62,12.264a.951.951,0,0,1-.644,1.036,18.117,18.117,0,0,1-2.352.84c-.252.084-.616.112-.616.448a8.9,8.9,0,0,0,.532,1.512c.252.56.364.812.616.812s.308-.308.392-.5c.056-.2.112-.224.56-.42,1.428-.588,2.828-1.232,4.228-1.876.2-.084,2.576-1.26,2.66-1.316a.69.69,0,0,0,.336-.644c0-.308-.14-1.428-.56-1.428a13.818,13.818,0,0,0-1.652.784,2.609,2.609,0,0,1-.868.364c-.336,0-.42-.252-.42-.532V35.944c0-.56.224-.784.756-.784h.2c.672,0,1.568.056,1.96.056.5,0,.532-.392.532-1.092,0-.756-.028-1.092-.532-1.092-.448,0-1.232.028-1.96.028h-.2c-.532,0-.756-.224-.756-.756V29.448c0-.98.028-1.288.336-1.484.252-.168.392-.224.392-.42,0-.308-.392-.364-1.008-.392-.532-.028-1.064-.112-1.6-.112-.252,0-.476.056-.476.364,0,.084.028.224.028.308.056.756.112,1.568.112,2.324V32.3c0,.532-.224.756-.784.756H390.2c-.728,0-1.54-.028-1.96-.028-.56,0-.532.364-.532,1.092,0,.7-.028,1.092.532,1.092.336,0,1.288-.056,1.96-.056h.084c.56,0,.784.224.784.784Zm16.548,1.176c.812-.028,1.092-.028,1.092.56a19.531,19.531,0,0,1-.644,4.592c-.28.728-.672.784-1.372.784a7.918,7.918,0,0,1-1.148-.084c-.112,0-.28-.028-.42-.028-.364,0-.42.252-.42.588,0,1.764.476,1.708,1.652,1.708,1.708,0,3.108-.084,3.752-1.932a28.593,28.593,0,0,0,.868-6.944c0-.868-.28-1.288-1.2-1.288-.644,0-1.288.056-1.96.056h-6.1c-.252-.028-.448-.112-.448-.392a1.847,1.847,0,0,1,.308-.728.716.716,0,0,1,.784-.448h6.188c1.064,0,2.128.056,3.192.056.588,0,.588-.42.588-1.008,0-.644,0-1.036-.588-1.036-1.064,0-2.128.056-3.192.056h-9.184c-1.064,0-2.128-.056-3.192-.056-.56,0-.56.42-.56,1.036,0,.56-.028,1.008.56,1.008.924,0,1.82-.056,2.744-.056.224,0,.476.084.476.392a.452.452,0,0,1-.084.252,14.556,14.556,0,0,1-4.536,4.7c-.28.2-.644.42-.644.7,0,.392.672,1.148,1.064,1.148a2.248,2.248,0,0,0,.924-.476,15.45,15.45,0,0,0,3.024-2.716,1.122,1.122,0,0,1,1.064-.448h.364c.2,0,.42.084.42.336a.391.391,0,0,1-.084.252,15.643,15.643,0,0,1-4.256,4c-.224.14-.672.364-.672.644a1.5,1.5,0,0,0,1.064,1.092,1.153,1.153,0,0,0,.588-.28,16.792,16.792,0,0,0,5.32-5.544c.28-.448.476-.5,1.008-.5h.532c.28.028.532.084.532.42a.817.817,0,0,1-.056.252,17.077,17.077,0,0,1-5.068,5.8c-.2.168-.616.448-.616.728a1.467,1.467,0,0,0,1.092,1.036c.364,0,1.54-1.036,1.848-1.316a18.263,18.263,0,0,0,4.648-6.44A.674.674,0,0,1,407.616,43.532ZM422.9,29.056a.638.638,0,0,0,.084.308,18.5,18.5,0,0,1,.56,2.044c.308,1.288.98,3.892,1.428,5.04a1.308,1.308,0,0,1,.084.476c0,.364-.2.532-.476.728-2.324,1.484-5.068,3.444-5.068,6.5a4.724,4.724,0,0,0,2.436,4.116,10.146,10.146,0,0,0,5.572,1.176,74.687,74.687,0,0,0,7.756-.448c.448-.112.476-.476.476-1.036,0-.616.028-1.6-.364-1.6a.953.953,0,0,0-.28.028,45.88,45.88,0,0,1-7.364.7,8.864,8.864,0,0,1-4.648-.952,2.293,2.293,0,0,1-1.2-1.848c0-2.408,3.276-4.284,5.124-5.348a58.574,58.574,0,0,1,8.428-4.116c.2-.056.532-.14.532-.392,0-.364-1.092-2.324-1.512-2.324a1.318,1.318,0,0,0-.728.308,57.817,57.817,0,0,1-6.02,3.3c-.42,0-.532-.392-.616-.728a45.492,45.492,0,0,1-1.036-5.572c-.056-.616-.028-.952-.756-.952-.336,0-.644.056-.98.084C423.688,28.636,422.9,28.664,422.9,29.056ZM456.56,45.884c1.624,0,1.708.252,1.708.952,0,1.176-.532,1.792-1.736,1.792-.84,0-2.268-.532-2.268-1.54C454.264,46.024,455.776,45.884,456.56,45.884Zm1.512-9.912c-.336,0-.56.14-.56.5v.336c.14.924.532,5.936.532,6.748,0,.336-.252.392-.532.392-.336,0-.7-.028-1.036-.028-2.044,0-4.452.756-4.452,3.22,0,2.408,2.6,3.556,4.7,3.556,1.988,0,3.472-.84,3.668-2.94.028-.252.056-.7.364-.7a9.171,9.171,0,0,1,2.632,1.484,1.411,1.411,0,0,0,.7.364c.588,0,1.4-1.176,1.4-1.624,0-.364-1.288-1.064-1.624-1.26a17.309,17.309,0,0,0-2.828-1.316c-.448-.168-.644-.308-.7-.812-.168-1.456-.28-4.228-.28-5.712,0-.56.056-1.4.056-1.512,0-.28-.224-.42-.476-.476A7.3,7.3,0,0,0,458.072,35.972ZM462.1,32c-.448,0-1.484,1.148-1.484,1.484,0,.2.2.364.364.476a15.131,15.131,0,0,1,3.416,3.528c.14.2.252.392.5.392.42,0,1.68-.924,1.68-1.484C466.584,35.692,462.8,32,462.1,32Zm-9.128-4.648c-.252,0-.252.252-.252.448a15.383,15.383,0,0,1-.448,3.192,5.9,5.9,0,0,1-.588,1.764c-.42.448-3.584.476-4.34.476-.2,0-.42-.028-.644-.028-.308,0-.476.084-.476.42a9.636,9.636,0,0,0,.14,1.26c.084.476.2.728.644.728.364,0,2.436-.2,2.884-.252a3.8,3.8,0,0,1,.56-.056.323.323,0,0,1,.336.336,13.688,13.688,0,0,1-.7,1.9,46.214,46.214,0,0,1-3.472,6.72,3.656,3.656,0,0,0-.448.952c0,.5,1.484,1.148,1.96,1.148.252,0,.364-.14.476-.336.476-.812.9-1.624,1.316-2.436a66.971,66.971,0,0,0,3.332-7.728c.308-.868.28-1.008,1.2-1.176,2.744-.5,3.08-.5,3.08-1.148,0-.336-.056-1.82-.476-1.82a1.262,1.262,0,0,0-.308.084,19.791,19.791,0,0,1-1.932.5.323.323,0,0,1-.336-.336c0-.084.084-.392.112-.532a12.1,12.1,0,0,1,.812-2.52c.224-.224.392-.336.392-.5,0-.2-.2-.28-.336-.336A21.8,21.8,0,0,0,452.976,27.348Zm31.164,19.6c0,.476-.224,1.12-.784,1.12-.952,0-2.492-.56-2.492-1.708a1.317,1.317,0,0,1,1.372-1.26A1.859,1.859,0,0,1,484.14,46.948Zm2.436-17.892a3.881,3.881,0,0,0-.98.252,27.211,27.211,0,0,1-7.056,1.036h-.5c-.784,0-.924.056-.924.7,0,.448.056,2.016.672,2.016a6.064,6.064,0,0,0,.7-.112c1.764-.336,3.556-.644,5.292-1.064a3.5,3.5,0,0,1,.532-.084c.2,0,.392.084.392.308,0,.252-.2.42-.336.588a135.619,135.619,0,0,1-9.744,9.912c-.2.2-.56.448-.56.756,0,.392,1.064,1.6,1.624,1.6.168,0,.28-.168.448-.364.952-1.092,1.932-2.184,2.968-3.192a8.615,8.615,0,0,1,6.328-2.688c2.548,0,5.012,1.176,5.012,4.032a5.176,5.176,0,0,1-4.06,4.844.265.265,0,0,1-.28-.28,3.473,3.473,0,0,0,.112-.7c0-1.96-2.268-3.36-4.032-3.36a3.242,3.242,0,0,0-3.332,3.108,3.119,3.119,0,0,0,1.344,2.464,6.545,6.545,0,0,0,4,1.12c4.368,0,8.652-2.548,8.652-7.308,0-3.836-3.22-5.992-6.8-5.992a6.228,6.228,0,0,0-1.6.2,3.425,3.425,0,0,1-.476.084.314.314,0,0,1-.336-.28.736.736,0,0,1,.2-.42A34.574,34.574,0,0,1,488.48,31.8c.14-.084.532-.308.532-.476C489.012,30.876,487.64,29.056,486.576,29.056ZM504.02,44.4a2.576,2.576,0,1,1-2.576,2.576A2.569,2.569,0,0,1,504.02,44.4Zm0-1.26a3.836,3.836,0,1,0,3.836,3.836A3.824,3.824,0,0,0,504.02,43.14Z" transform="translate(-20.912 1101.48)" fill="#fff"/>
    <path id="パス_9636" data-name="パス 9636" d="M13.968-103.79c8.536-7.372,18.43-18.042,18.43-30.264a11.26,11.26,0,0,0-11.252-11.252A11.387,11.387,0,0,0,9.894-134.054c0,4.462,2.716,8.924,6.79,10.476,2.134.776,3.3,1.358,3.3,3.88,0,4.85-5.432,10.088-8.924,12.8Zm29.488,0c8.536-7.372,18.43-18.042,18.43-30.264a11.26,11.26,0,0,0-11.252-11.252,11.387,11.387,0,0,0-11.252,11.252c0,4.462,2.716,8.924,6.79,10.476,2.134.776,3.3,1.358,3.3,3.88,0,4.85-5.432,10.088-8.924,12.8Z" transform="translate(472.088 1252.48)" fill="#fff" opacity="0.4"/>
    <path id="パス_9637" data-name="パス 9637" d="M57.812-145.306c-8.536,7.566-18.43,18.042-18.43,30.264A11.26,11.26,0,0,0,50.634-103.79a11.26,11.26,0,0,0,11.252-11.252,11.529,11.529,0,0,0-6.79-10.476c-1.94-.776-3.3-1.358-3.3-3.88,0-4.85,5.432-10.088,9.118-12.8Zm-29.488,0c-8.536,7.566-18.43,18.042-18.43,30.264A11.26,11.26,0,0,0,21.146-103.79,11.26,11.26,0,0,0,32.4-115.042a11.529,11.529,0,0,0-6.79-10.476c-1.94-.776-3.3-1.358-3.3-3.88,0-4.85,5.432-10.088,9.118-12.8Z" transform="translate(-40.912 1203.48)" fill="#fff" opacity="0.4"/>
  </g>
</svg>
