<svg xmlns="http://www.w3.org/2000/svg" width="620.452" height="88.931" viewBox="0 0 620.452 88.931">
  <g id="グループ_3205" data-name="グループ 3205" transform="translate(-94.739 -584.539)">
    <path id="パス_9632" data-name="パス 9632" d="M6.574-9.728A8.884,8.884,0,0,0,8.056-6.042c2.47,3.458,6.726,3.952,10.678,3.952,2.28,0,9.386-.456,11.4-1.064.722-.228.912-.684.912-1.406,0-2.47-.266-3.116-.836-3.116a3.029,3.029,0,0,0-.57.114,47.322,47.322,0,0,1-11.324,1.33c-3.572,0-6.8-.57-7.6-4.6-.076-.38-.19-.722-.684-.722C9.994-11.552,6.574-10.678,6.574-9.728Zm3.8-13.11a.79.79,0,0,0,.532.8c1.862.76,6.574.95,8.664.95a51.842,51.842,0,0,0,6.878-.456c.874-.152,1.064-.228,1.064-1.14,0-1.558-.038-3.268-.988-3.268a1.925,1.925,0,0,0-.494.076,32.326,32.326,0,0,1-6.878.76,24.471,24.471,0,0,1-6.46-.8,5.685,5.685,0,0,0-1.1-.228c-.722,0-.8.684-.912,1.33A13.179,13.179,0,0,0,10.374-22.838Zm44.08-.038c.418,0,.608.3.608.684a38.646,38.646,0,0,1-1.216,7.41c-1.064,3.876-3.192,8.208-5.092,8.208-1.938,0-2.432-3.534-2.432-4.94a11.758,11.758,0,0,1,6.84-10.944A4.275,4.275,0,0,1,54.454-22.876ZM58.1-27.322a15.655,15.655,0,0,0-15.77,15.96,11.912,11.912,0,0,0,1.178,5.4,6.125,6.125,0,0,0,5.168,3.61c2.09,0,3.762-1.406,5.016-2.926,3.648-4.37,4.978-11.134,5.4-16.682.038-.646.038-1.482.912-1.482a6.637,6.637,0,0,1,1.444.342,9.218,9.218,0,0,1,6.08,9.082c0,5.434-3.914,8.7-8.892,9.88-.38.076-.95.152-.95.532,0,.836,1.558,3.192,2.546,3.192a14.785,14.785,0,0,0,4.142-1.52,13.654,13.654,0,0,0,7.41-12.274,12.853,12.853,0,0,0-3.838-9.348A13.515,13.515,0,0,0,58.1-27.322Zm28.8-3.572a21.293,21.293,0,0,0-2.052-.8c-.342,0-.456.228-.722.722a28.977,28.977,0,0,1-6,7.562c-.228.19-.57.456-.57.8,0,.76,1.52,2.166,2.166,2.166,1.14,0,5.4-5.51,6.156-6.612.266-.38.456-.722.646-.988.836-1.254.874-1.292,1.406-1.368.19-.038.57-.114.57-.418s-.418-.57-.646-.646C87.7-30.552,87.324-30.7,86.906-30.894Zm20.558,4.712c.95,0,1.862.076,2.774.076.95,0,.912-.646.912-1.862,0-1.254.038-1.862-.912-1.862-.722,0-1.786.076-2.774.076h-2.052c-.988,0-2.09-.076-2.812-.076-.95,0-.874.684-.874,1.862s-.076,1.862.874,1.862c.912,0,1.862-.076,2.812-.076Zm-3.23,8.93c.722.038.988.342.988,1.064V-4.1c0,1.976.114,2.66-1.786,2.66-.912,0-1.52-.152-1.976-.152-.608,0-.722.532-.722,1.026,0,3.078,1.1,3,2.128,3,2.66,0,6.042-.266,6.042-3.762,0-.95-.076-1.9-.076-2.888v-11.97c0-.722.266-.988.988-1.026.38,0,.76.038,1.14.038,1.026,0,.988-.57.988-1.786,0-1.1.076-1.786-.912-1.786-1.064,0-2.128.076-3.192.076h-2.2c-1.1,0-2.166-.076-3.23-.076-.95,0-.874.722-.874,1.786,0,1.216-.076,1.786.988,1.786C103.056-17.176,103.7-17.214,104.234-17.252Zm-18.886,1.6c-.152-.038-.266-.114-.266-.266a.2.2,0,0,1,.076-.152,49.859,49.859,0,0,0,2.622-4.294c.342-.608.418-.684.836-.722.228-.038.57-.152.57-.418,0-.342-.76-.684-1.748-1.14a7.594,7.594,0,0,1-.8-.38,3.4,3.4,0,0,0-.988-.342c-.418,0-.57.456-.8.874a33.47,33.47,0,0,1-6.764,9.2c-.342.342-.8.684-.8,1.178,0,.836,1.292,2.546,1.938,2.546.532,0,1.178-.76,1.558-1.14a.469.469,0,0,1,.3-.152.421.421,0,0,1,.38.456V-3.5c0,1.52-.076,3.078-.076,4.636,0,1.1.38,1.254,1.862,1.254s1.862-.152,1.862-1.216c0-1.558-.076-3.116-.076-4.674v-8.968c0-1.254.038-1.786.38-2.014.38-.266.608-.38.608-.684C86.032-15.5,85.614-15.618,85.348-15.656Zm10.64,2.964c0-1.216,0-1.444.456-1.672.266-.19.57-.3.57-.608s-.342-.38-.608-.418c-.494-.076-3.116-.228-3.572-.228-.342,0-.646.038-.646.418a1.293,1.293,0,0,0,.038.38,12.164,12.164,0,0,1,.114,2.014c-.038.76-.3,1.064-1.064,1.064-.988.038-1.976-.076-2.926-.076-.836,0-.8.532-.8,1.786s-.038,1.786.8,1.786,1.938-.114,2.926-.076c.76.038,1.064.3,1.064,1.026V-4.9c0,.722-.228,1.064-.988,1.178-1.368.152-2.318.266-3.04.3-1.71.152-1.862.152-1.862.57,0,.266.418,2.318.494,2.736.152.608.266,1.216.684,1.216.228,0,.342-.152.456-.342.266-.494.266-.532,1.292-.646,3.61-.456,7.258-1.026,10.83-1.748.912-.19,1.1-.38,1.1-1.33,0-1.444-.076-2.09-.608-2.09-.076,0-3.344.532-3.724.57a.482.482,0,0,1-.228.038c-.57,0-.76-.494-.76-.95V-7.3c0-.722.3-1.026,1.064-1.026.912-.038,2.128.076,2.85.076.8,0,.8-.494.8-1.786s.038-1.786-.836-1.786c-.95,0-1.862.114-2.812.076A.913.913,0,0,1,95.988-12.692Zm-3.534-7.79c0,.722-.342,1.026-1.064,1.026H91.2c-1.1,0-2.242-.076-3.192-.076-.874,0-.836.532-.836,1.748,0,1.254-.038,1.748.836,1.748.95,0,2.052-.076,3.192-.076h5.814c1.14,0,2.242.076,3.192.076.874,0,.836-.456.836-1.748,0-1.254.038-1.748-.836-1.748-.988,0-2.052.114-3.078.076-.76,0-1.064-.3-1.064-1.026V-22.5c0-.76.3-1.026,1.064-1.064.646.038,2.166.114,2.546.114.76,0,.722-.532.722-1.786s.076-1.786-.722-1.786c-.418,0-1.9.076-2.546.076-.76-.038-1.064-.3-1.064-1.064-.038-1.406-.038-1.976.494-2.318.266-.19.532-.3.532-.57,0-.38-.532-.418-.836-.456-.608-.076-2.812-.3-3.344-.3-.342,0-.646.114-.646.532,0,.076.038.228.038.3a17.446,17.446,0,0,1,.152,2.812c0,.76-.342,1.064-1.064,1.064-.8.038-2.09-.076-2.622-.076-.8,0-.76.494-.76,1.786s-.038,1.786.76,1.786c.608,0,1.786-.114,2.622-.114.722.076,1.064.3,1.064,1.064ZM131.4-31.5c-.38,0-.456.38-.532.8a20.85,20.85,0,0,1-2.052,4.9c-.342.456-1.368.494-2.356.494h-1.1c-1.1,0-2.09-.076-2.736-.076-.95,0-1.1.228-1.1,1.748,0,1.938.152,2.128.988,2.128,1.178,0,2.052-.114,2.66-.114.532,0,.836.114.836.456,0,.722-5.51,8.36-6.384,9.31-.19.228-.494.532-.494.836,0,.684,2.546,2.2,3.23,2.2a.632.632,0,0,0,.532-.38,24.909,24.909,0,0,1,3.192-4.446c1.482-1.52,4.978-3.344,7.106-3.344a1.581,1.581,0,0,1,1.672,1.292,5.218,5.218,0,0,1,.19,1.064c0,.456-.3.684-.684.874-.8.38-1.6.8-2.356,1.254-2.622,1.558-5.4,3.42-5.4,6.84a5.772,5.772,0,0,0,3.8,5.434,14.079,14.079,0,0,0,6,.988,50.4,50.4,0,0,0,7.3-.494c.836-.19.874-.494.874-1.634,0-2.166-.266-2.584-.76-2.584a4.678,4.678,0,0,0-.76.076,27.784,27.784,0,0,1-7.068.95c-1.824,0-5.51-.228-5.51-2.774,0-2.356,3.914-4.028,4.1-4.028.38,0,.494.3.494.646,0,.8-.076,1.634-.076,2.47,0,.988.684,1.064,2.318,1.064,1.444,0,1.634-.152,1.634-1.52,0-1.178-.038-2.318-.038-3.5v-.494c0-.76.3-.988.988-1.254,1.482-.646,2.964-1.292,4.484-1.862.19-.076.38-.114.532-.19.722-.228,1.14-.38,1.14-.836,0-.646-.912-3.572-1.634-3.572a3.134,3.134,0,0,0-.988.38A33.826,33.826,0,0,1,139-16.226c-.38,0-.494-.3-.57-.646-.494-2.394-1.9-3.42-4.332-3.42a10.514,10.514,0,0,0-4.142.988,1.464,1.464,0,0,1-.684.228.294.294,0,0,1-.3-.266,12.268,12.268,0,0,1,1.292-2.2,1.34,1.34,0,0,1,1.14-.608c2.394-.266,4.788-.684,7.182-1.178.8-.152,2.014-.3,2.014-.95a12.143,12.143,0,0,0-.3-2.052c-.114-.532-.3-1.14-.95-1.14a2.89,2.89,0,0,0-.95.228,27.494,27.494,0,0,1-4.408,1.064.369.369,0,0,1-.418-.38,2.552,2.552,0,0,1,.38-.874c.494-.874.646-1.064,1.254-1.292.19-.076.456-.228.456-.456C135.66-29.754,131.746-31.5,131.4-31.5Zm39.33.988a14.34,14.34,0,0,0-1.9-.608c-.38,0-.456.342-.57.76-.3,1.1-1.14,3.8-1.482,5.092-.114.418-.266.912-.874.912a1.17,1.17,0,0,1-.494-.114,23.73,23.73,0,0,1-2.584-1.33,2.066,2.066,0,0,0-.874-.418c-.8,0-1.406,2.622-1.406,3.268,0,.684.76,1.026,3.42,2.052.532.19,1.216.418,1.216,1.254a7.859,7.859,0,0,1-.152.836c-.114.57-.266,1.064-.342,1.482-.228,1.1-.342,1.634-.988,1.634a6.894,6.894,0,0,1-2.432-1.064,2.092,2.092,0,0,0-.95-.38c-.95,0-1.33,3-1.33,3.23,0,.494.3.684.722.912a12.618,12.618,0,0,0,2.242.912c.874.266,1.52.494,1.52,1.33,0,.38-.152,1.824-.152,2.774,0,5.776,3.382,9.082,9.12,9.082,5.054,0,10.488-2.052,10.488-7.942a20.832,20.832,0,0,0-1.254-6.65c-.3-.836-.418-1.444-1.026-1.444-.418,0-3.23.494-3.23,1.406a2,2,0,0,0,.152.684,16.423,16.423,0,0,1,1.292,5.51,3.824,3.824,0,0,1-.836,2.7c-1.178,1.33-3.8,1.786-5.51,1.786-3.306,0-5.054-1.748-5.054-5.054,0-1.634,0-2.584,1.026-2.584a3.789,3.789,0,0,1,.608.076c.912.114,2.7.38,3.572.38.646,0,.874-.3,1.064-.874a8.4,8.4,0,0,0,.494-2.546c0-.38-.114-.646-1.14-.646-1.14,0-2.28-.038-3.42-.152-.532-.038-1.33-.076-1.33-.874,0-.3.532-2.7.646-3.154.152-.494.418-.912,1.026-.912a1.11,1.11,0,0,1,.342.076,47.749,47.749,0,0,0,5.168.57c.532,0,.684-.3.836-.836a11.2,11.2,0,0,0,.418-2.47c0-.76-.57-.722-1.292-.722-1.292-.038-2.584-.152-3.876-.3-.532-.076-1.026-.228-1.026-.874a1.341,1.341,0,0,1,.114-.532c.3-.912.608-1.862.95-2.774.532-1.368.8-1.406,1.33-1.672.19-.114.342-.228.342-.418C173.318-29.754,171.38-30.286,170.734-30.514Zm25.954,15.276c0,.8,1.368,3.078,2.356,3.078a2,2,0,0,0,1.064-.38c3.23-1.748,8.17-3.838,11.856-3.838,2.318,0,4.256,1.368,4.256,3.838,0,2.432-1.71,4.294-3.724,5.434a17.091,17.091,0,0,1-6.5,1.9c-.494.038-1.216.114-1.216.76,0,.3.532,2.888,1.786,2.888a21.625,21.625,0,0,0,5.852-1.6c3.99-1.71,7.448-4.6,7.448-9.31,0-4.6-3.458-7.448-7.9-7.448-3.572,0-7.562,1.52-10.944,2.736a28.868,28.868,0,0,1-3.5,1.14C197.106-15.922,196.688-15.732,196.688-15.238ZM239.514-28.5a2,2,0,0,0,.114.456,24.153,24.153,0,0,1,.722,2.508c.38,1.558,1.444,5.586,1.9,6.954a1.3,1.3,0,0,1,.152.684,1.179,1.179,0,0,1-.646.988c-3.154,2.052-6.574,4.75-6.574,8.892a6.689,6.689,0,0,0,3.5,5.852c2.508,1.482,4.978,1.634,7.79,1.634,1.824,0,9.006-.228,10.45-.608.76-.19.8-.608.8-1.6v-.456c0-.8-.038-2.356-.57-2.356a1.052,1.052,0,0,0-.342.038,57.35,57.35,0,0,1-9.918.988,15.185,15.185,0,0,1-5.054-.684c-1.178-.418-2.508-1.368-2.508-2.736a4.785,4.785,0,0,1,1.862-3.42,38.63,38.63,0,0,1,6.84-4.484,69.883,69.883,0,0,1,9.386-4.37c.3-.114.722-.228.722-.608a7.6,7.6,0,0,0-1.1-2.318c-.228-.38-.874-1.52-1.368-1.52a2.431,2.431,0,0,0-.988.38c-.988.646-7.068,4.218-7.752,4.218-.646,0-.76-.646-.874-1.14a51.967,51.967,0,0,1-1.178-6.8c-.076-.874,0-1.444-1.064-1.444a14.109,14.109,0,0,0-1.824.19C240.768-29.07,239.514-29.07,239.514-28.5Zm47.272,15.808a1.007,1.007,0,0,1,1.064,1.026v.76a1.087,1.087,0,0,1-1.064,1.064h-3.572a1.087,1.087,0,0,1-1.064-1.064v-.76a1.007,1.007,0,0,1,1.064-1.026Zm0-6a1.087,1.087,0,0,1,1.064,1.064v.646a1.062,1.062,0,0,1-1.064,1.064h-3.572a1.062,1.062,0,0,1-1.064-1.064v-.646a1.087,1.087,0,0,1,1.064-1.064Zm5.776,15.352A1.007,1.007,0,0,1,291.5-4.37V-17.632a1.087,1.087,0,0,1,1.064-1.064h2.2a1.062,1.062,0,0,1,1.064,1.064V-4.37c-.076.646-.38,1.026-1.064,1.026Zm-9.348,0A1.007,1.007,0,0,1,282.15-4.37V-5.51a1.087,1.087,0,0,1,1.064-1.064h3.572A1.087,1.087,0,0,1,287.85-5.51v1.14a1.007,1.007,0,0,1-1.064,1.026ZM278.5-4.37a1.007,1.007,0,0,1-1.064,1.026H275.2a1.007,1.007,0,0,1-1.064-1.026V-17.632A1.087,1.087,0,0,1,275.2-18.7h2.242a1.087,1.087,0,0,1,1.064,1.064Zm6.84-18.848c.494-.912,1.026-1.824,1.52-2.736a1.355,1.355,0,0,1,1.482-.836h7.79c1.558,0,3.116.076,4.674.076.95,0,.912-.418.912-1.862,0-1.482.038-1.9-.912-1.9-1.558,0-3.116.114-4.674.114H273.942c-1.558,0-3.154-.114-4.712-.114-.912,0-.912.456-.912,1.9,0,1.368-.038,1.862.912,1.862,1.558,0,3.154-.076,4.712-.076h7.676c.152,0,.684,0,.684.57a1.11,1.11,0,0,1-.076.342c-.456.912-.95,1.824-1.482,2.7a1.456,1.456,0,0,1-1.52.836h-3.23c-1.216,0-2.432-.038-3.648-.038-1.406,0-2.242.3-2.242,1.862,0,1.064.076,2.128.076,3.154V-2.66c0,1.368-.114,2.736-.114,4.1,0,1.026.456,1.026,2.09,1.026s2.09,0,2.09-1.026V1.178c0-.608.266-.874.874-.874h19.76c.57,0,.874.228.874.836v.38c0,.95.494.95,2.09.95,1.52,0,2.052,0,2.052-.988,0-1.368-.076-2.736-.076-4.1V-17.366c0-1.026.076-2.09.076-3.154,0-1.6-.874-1.862-2.318-1.862-1.178,0-2.394.038-3.61.038h-8.094c-.342,0-.646-.114-.646-.532A.613.613,0,0,1,285.342-23.218Zm28.31,13a1.007,1.007,0,0,1,1.064-1.026h16.606c.684,0,.988.38,1.064,1.026v5.4a1.062,1.062,0,0,1-1.064,1.064H314.716a1.087,1.087,0,0,1-1.064-1.064Zm1.064-4.636a1.007,1.007,0,0,1-1.064-1.026v-5.092A1.007,1.007,0,0,1,314.716-22h16.606a1.031,1.031,0,0,1,1.064,1.026v5.092c-.076.646-.38,1.026-1.064,1.026Zm.494-10.716c-1.216,0-2.432-.038-3.61-.038-1.406,0-1.976.418-1.976,1.862,0,1.14.038,2.242.038,3.344V-2.812c0,1.33-.076,2.7-.076,4.028,0,1.14.57,1.1,2.09,1.1,1.558,0,2.052.038,2.052-1.1V.76c0-.608.266-.874.874-.874h16.682c.722,0,1.026.3,1.026,1.026v.342c0,1.14.456,1.1,2.09,1.1,1.482,0,2.09.076,2.09-1.026,0-1.368-.076-2.736-.076-4.1V-20.406c0-1.1.038-2.2.038-3.344,0-1.444-.608-1.862-1.976-1.862-1.216,0-2.394.038-3.61.038h-7.144c-.342,0-.646-.114-.646-.532a1.11,1.11,0,0,1,.076-.342c.76-1.216.76-1.482,1.33-2.508a.772.772,0,0,1,.646-.418c.19-.038.608-.038.608-.456,0-.342-.19-.418-1.406-.874a19.18,19.18,0,0,0-2.774-.874c-.342,0-.418.266-.494.494a42.224,42.224,0,0,1-2.318,4.75,1.454,1.454,0,0,1-1.52.76Zm51.338-2.432c-.418-.418-1.52-1.71-2.014-1.71-.228,0-.418.266-.57.456a51.831,51.831,0,0,1-7.106,6.726,36.928,36.928,0,0,0-4.9,4.446,4.315,4.315,0,0,0-.836,2.622,5.776,5.776,0,0,0,1.824,4.028c1.862,2.2,3.952,4.256,6,6.308,1.558,1.6,3.154,3.192,4.6,4.9.228.3.76.988,1.178.988.912,0,3.23-2.166,3.23-3.078,0-.76-2.622-2.888-3.268-3.458-2.356-2.09-4.712-4.218-6.878-6.536-.646-.684-1.9-2.052-1.9-3,0-.722.836-1.482,1.558-2.166,1.976-1.9,4.142-3.648,6.27-5.4q1.425-1.14,2.85-2.166a1.7,1.7,0,0,1,1.026-.456c.266,0,.8.038.8-.342C368.41-26.258,366.89-27.664,366.548-28.006Zm24.852-.76c-.532,0-.57.38-.57.95v.418c0,1.558-.342,5.206-.456,6.954q-.342,4.5-.342,9.006c0,2.774.19,6.46,1.9,8.74A8.4,8.4,0,0,0,398.62.228,13.3,13.3,0,0,0,410.172-7.03a14.128,14.128,0,0,0,1.558-4.446c0-1.14-2.318-3.078-3.154-3.078-.57,0-.646.646-.76,1.254A12.081,12.081,0,0,1,405.5-7.676a9.625,9.625,0,0,1-7.144,3.686c-4.1,0-4.028-4.6-4.028-7.562,0-2.166.342-14.212,1.672-15.2.228-.19.456-.3.456-.57,0-.342-.494-.494-.76-.532A32.237,32.237,0,0,0,391.4-28.766ZM436.088-6.46c-.608,0-2.356,2.242-2.356,2.812,0,.8,1.254,1.748,1.862,2.166,2.128,1.406,5.624,1.71,8.132,1.71a36.316,36.316,0,0,0,5.928-.494c.456-.266.418-1.14.418-1.9,0-1.52,0-2.394-.646-2.394a1.35,1.35,0,0,0-.38.076,17.164,17.164,0,0,1-5.4.76c-2.318,0-5.206-.342-6.878-2.2C436.62-6.118,436.354-6.46,436.088-6.46Zm2.85-8.7c0,.646.19.836.95.836.494,0,.95-.038,1.444-.038a17.06,17.06,0,0,1,6.042.95,2.042,2.042,0,0,0,.8.19c.38,0,.532-.152.684-.494a9.545,9.545,0,0,0,.722-2.66.716.716,0,0,0-.532-.76,27.262,27.262,0,0,0-7.638-1.064C439.622-18.2,438.938-18.43,438.938-15.162ZM433.96-31.35c-.38,0-.38.38-.418.95a34.814,34.814,0,0,1-1.406,6.916c-.342.57-.912.608-3.344.608-1.634,0-3.23-.152-3.572-.152-.456,0-.57.266-.57.684a16.313,16.313,0,0,0,.3,2.774c.228.722.836.684,1.6.684,1.178,0,2.85-.19,3.382-.19.38,0,.684.19.684.57a5.8,5.8,0,0,1-.3.988c-1.482,4.028-4.332,10.64-6.726,14.06A2.836,2.836,0,0,0,422.94-2.2c0,.836,2.622,2.052,3.23,2.052.57,0,.874-.532,1.368-1.444a118.389,118.389,0,0,0,7.068-16.758c.342-1.064.456-1.254,1.558-1.482a57.181,57.181,0,0,0,6.232-1.482c.646-.19.722-.722.722-1.368,0-.57,0-2.888-.76-2.888a2.042,2.042,0,0,0-.8.19,26.8,26.8,0,0,1-4.408,1.406.56.56,0,0,1-.57-.57c0-.19.8-2.964.912-3.382.266-.836.3-.988.874-1.33.114-.076.342-.19.342-.38,0-.418-1.064-.684-1.406-.8C436.81-30.59,434.3-31.35,433.96-31.35Zm45.752,9.082a.627.627,0,0,0,.342.57c3.61,2.774,5.168,6.384,5.624,10.83.076.912.038,1.444,1.254,1.444a8.033,8.033,0,0,0,2.128-.342c.646-.19,1.026-.38,1.026-1.1a20.731,20.731,0,0,0-2.242-7.9c-1.824-3.5-5.016-5.89-5.852-5.89C481.232-24.662,479.712-22.99,479.712-22.268Zm-17.138-2.47a.473.473,0,0,0-.532.418c-.076.342-.19,5.168-.19,5.776,0,4.028.3,8.816,2.2,12.388,1.254,2.318,3.458,4.864,6.27,4.864,1.786,0,2.964-1.14,4.066-2.394.532-.608,2.242-2.584,2.242-3.306,0-.684-1.938-2.242-2.736-2.242-.494,0-.8.57-1.026.95-.456.836-1.558,2.508-2.622,2.508-1.33,0-2.584-2.242-3.04-3.306a21.713,21.713,0,0,1-1.216-7.942,28.316,28.316,0,0,1,.3-4.028c.114-.646.152-1.406.684-1.824.228-.19.38-.266.38-.494,0-.38-.532-.456-.836-.532C465.88-24.016,463.068-24.738,462.574-24.738Z" transform="translate(133 671)" fill="#fff"/>
    <path id="パス_9630" data-name="パス 9630" d="M20.808-154.615C33.524-165.6,48.263-181.492,48.263-199.7A16.774,16.774,0,0,0,31.5-216.461,16.963,16.963,0,0,0,14.739-199.7c0,6.647,4.046,13.294,10.115,15.606,3.179,1.156,4.913,2.023,4.913,5.78,0,7.225-8.092,15.028-13.294,19.074Zm43.928,0C77.452-165.6,92.191-181.492,92.191-199.7a16.774,16.774,0,0,0-16.762-16.762A16.963,16.963,0,0,0,58.667-199.7c0,6.647,4.046,13.294,10.115,15.606,3.179,1.156,4.913,2.023,4.913,5.78,0,7.225-8.092,15.028-13.294,19.074Z" transform="translate(623 816)" fill="#fff" opacity="0.4"/>
    <path id="パス_9631" data-name="パス 9631" d="M86.122-216.461c-12.716,11.271-27.455,26.877-27.455,45.084a16.774,16.774,0,0,0,16.762,16.762,16.774,16.774,0,0,0,16.762-16.762,17.174,17.174,0,0,0-10.115-15.606c-2.89-1.156-4.913-2.023-4.913-5.78,0-7.225,8.092-15.028,13.583-19.074Zm-43.928,0c-12.716,11.271-27.455,26.877-27.455,45.084A16.774,16.774,0,0,0,31.5-154.615a16.774,16.774,0,0,0,16.762-16.762,17.174,17.174,0,0,0-10.115-15.606c-2.89-1.156-4.913-2.023-4.913-5.78,0-7.225,8.092-15.028,13.583-19.074Z" transform="translate(80 801)" fill="#fff" opacity="0.4"/>
  </g>
</svg>
