<svg xmlns="http://www.w3.org/2000/svg" width="169.944" height="83.112" viewBox="0 0 169.944 83.112">
  <g id="グループ_4458" data-name="グループ 4458" transform="translate(35.404 -1046.588)">
    <path id="パス_9675" data-name="パス 9675" d="M7.635-6.7a13.028,13.028,0,0,0,3.015,5.31A11.881,11.881,0,0,0,13.155.675a.6.6,0,0,0,.27.105c.285,0,.75-.555.75-.855,0-.135-.18-.24-.3-.315a12.2,12.2,0,0,1-4.9-5.94,12.951,12.951,0,0,1-.84-3.825c0-.105-.015-.24-.015-.345,0-.375.015-.735.03-1.11a.233.233,0,0,1,.135-.225c.105-.06.285-.12.285-.255s-.18-.165-.345-.195a8.751,8.751,0,0,0-1.05-.135c-.24,0-.315.105-.315.435s.015.66.015.99a12.812,12.812,0,0,1-2.2,7.32A11.472,11.472,0,0,1,1.155-.5C.96-.375.81-.3.81-.15c0,.285.48.87.78.87A1.859,1.859,0,0,0,2.355.33,12.135,12.135,0,0,0,7.425-6.7a.112.112,0,0,1,.1-.09A.112.112,0,0,1,7.635-6.7ZM19.77-11.22a.342.342,0,0,0,.045.165,9.908,9.908,0,0,1,.3,1.1c.165.69.525,2.085.765,2.7a.7.7,0,0,1,.045.255c0,.2-.1.285-.255.39-1.245.8-2.715,1.845-2.715,3.48A2.531,2.531,0,0,0,19.26-.93a5.435,5.435,0,0,0,2.985.63A40.011,40.011,0,0,0,26.4-.54c.24-.06.255-.255.255-.555,0-.33.015-.855-.195-.855a.51.51,0,0,0-.15.015,24.578,24.578,0,0,1-3.945.375,4.748,4.748,0,0,1-2.49-.51,1.228,1.228,0,0,1-.645-.99c0-1.29,1.755-2.3,2.745-2.865a31.378,31.378,0,0,1,4.515-2.2c.105-.03.285-.075.285-.21,0-.195-.585-1.245-.81-1.245a.706.706,0,0,0-.39.165A30.974,30.974,0,0,1,22.35-7.65c-.225,0-.285-.21-.33-.39a24.37,24.37,0,0,1-.555-2.985c-.03-.33-.015-.51-.4-.51-.18,0-.345.03-.525.045C20.19-11.445,19.77-11.43,19.77-11.22ZM37.635-6.7a13.028,13.028,0,0,0,3.015,5.31,11.881,11.881,0,0,0,2.5,2.07.6.6,0,0,0,.27.105c.285,0,.75-.555.75-.855,0-.135-.18-.24-.3-.315a12.2,12.2,0,0,1-4.9-5.94,12.951,12.951,0,0,1-.84-3.825c0-.105-.015-.24-.015-.345,0-.375.015-.735.03-1.11a.233.233,0,0,1,.135-.225c.105-.06.285-.12.285-.255s-.18-.165-.345-.195a8.751,8.751,0,0,0-1.05-.135c-.24,0-.315.105-.315.435s.015.66.015.99a12.812,12.812,0,0,1-2.2,7.32A11.472,11.472,0,0,1,31.155-.5c-.2.12-.345.2-.345.345,0,.285.48.87.78.87a1.859,1.859,0,0,0,.765-.39A12.135,12.135,0,0,0,37.425-6.7a.112.112,0,0,1,.1-.09A.112.112,0,0,1,37.635-6.7Zm13.23-4.785c-.1,0-.15.09-.15.195v.06a3.28,3.28,0,0,1,.045.54A12.709,12.709,0,0,1,50.61-9c-.06.465-.045.645-.51.735-.735.135-1.92.435-2.595.5-.15.015-.39,0-.39.21,0,.135.255,1.245.555,1.245a.676.676,0,0,0,.165-.045,15.534,15.534,0,0,1,2.085-.63.166.166,0,0,1,.18.18,12.224,12.224,0,0,1-.375,1.215,12.808,12.808,0,0,1-2.775,4.47c-.09.09-.21.21-.21.33,0,.285.72.735.945.735A.36.36,0,0,0,47.94-.2a15.4,15.4,0,0,0,.99-1.335,17.8,17.8,0,0,0,2.46-5.4c.075-.33.15-.525,1.245-.525,1.05,0,1.11.7,1.11,1.575a9.007,9.007,0,0,1-.675,3.45,1.562,1.562,0,0,1-1.62,1.05c-.33,0-.6-.075-.735-.075s-.165.09-.165.2a2.082,2.082,0,0,0,.24.855A.573.573,0,0,0,51.4-.09,2.954,2.954,0,0,0,54.12-1.665a10.935,10.935,0,0,0,.87-4.56c0-1.425-.57-2.355-2.1-2.355-.285,0-.72.015-.825.015a.26.26,0,0,1-.27-.27A.638.638,0,0,1,51.825-9c.06-.27.09-.51.12-.72.075-.525.12-.825.375-1.035a.3.3,0,0,0,.12-.21c0-.165-.255-.21-.375-.255C51.855-11.265,51.015-11.49,50.865-11.49Zm5.85.06c-.165,0-.63.39-.63.555,0,.075.09.15.135.195.375.375.72.75,1.065,1.155.045.06.12.165.21.165.2,0,.63-.4.63-.6,0-.12-.375-.525-.495-.645C57.495-10.74,56.85-11.43,56.715-11.43Zm1.38-1.02c-.15,0-.615.39-.615.555,0,.075.09.15.135.195.39.4.7.735,1.05,1.155.06.06.12.165.21.165.195,0,.645-.405.645-.615A6.246,6.246,0,0,0,58.1-12.45ZM55.77-9.8c-.21,0-.855.39-.855.615a.305.305,0,0,0,.135.24A10.544,10.544,0,0,1,57-5.79c.06.135.135.3.315.3.27,0,.99-.435.99-.69C58.305-6.555,56.295-9.8,55.77-9.8ZM68.325-1.86a13.775,13.775,0,0,0,2.79,1.83,9.437,9.437,0,0,0,2.16.84c.375,0,.66-.6.66-.8,0-.15-.09-.18-.225-.225a14.585,14.585,0,0,1-4.32-2.025.122.122,0,0,1-.06-.12c0-.09.09-.12.15-.12h2.43c.585,0,1.185.03,1.77.03.315,0,.33-.135.33-.525s-.015-.54-.33-.54c-.585,0-1.185.03-1.77.03H68.4c-.165,0-.33-.045-.345-.255l.015-.045.015-.03a.387.387,0,0,1,.135-.135c.135-.06.21-.075.21-.165,0-.135-.195-.165-.3-.165-.27-.03-.855-.09-1.11-.09-.135,0-.255.03-.255.2,0,.06.03.27.045.36,0,.255-.1.33-.345.33h-3.51c-.6,0-1.185-.03-1.77-.03-.315,0-.33.15-.33.54s.015.525.33.525c.585,0,1.17-.03,1.77-.03h2.43c.075,0,.15.03.15.12a.122.122,0,0,1-.06.12A15.388,15.388,0,0,1,61.125-.27c-.135.045-.255.09-.255.255,0,.21.3.765.615.765a2.793,2.793,0,0,0,.84-.225,14.585,14.585,0,0,0,4.2-2.325.209.209,0,0,1,.135-.045c.135,0,.165.09.18.2v.765c0,.45-.045.915-.045,1.365,0,.48.195.48.645.48s.63-.015.63-.5c0-.45-.045-.9-.045-1.35V-1.71c.015-.09.045-.2.165-.2A.209.209,0,0,1,68.325-1.86ZM66.57-6.27a.283.283,0,0,1,.3.3v.285a.283.283,0,0,1-.3.3H64.44a.283.283,0,0,1-.3-.3V-5.97a.283.283,0,0,1,.3-.3Zm0-1.74a.283.283,0,0,1,.3.3v.27a.3.3,0,0,1-.3.315H64.44a.3.3,0,0,1-.3-.315v-.27a.283.283,0,0,1,.3-.3Zm0-1.755a.283.283,0,0,1,.3.3v.3a.283.283,0,0,1-.3.3H64.44a.283.283,0,0,1-.3-.3v-.3a.283.283,0,0,1,.3-.3Zm1.485.3c0-.21.09-.3.3-.3h2.25c.57,0,1.125.03,1.695.03.315,0,.33-.105.33-.48s-.015-.48-.33-.48c-.57,0-1.125.03-1.695.03h-1.98c-.135-.015-.255-.06-.255-.21a.242.242,0,0,1,.045-.135c.075-.165.27-.585.315-.66a.267.267,0,0,1,.165-.12c.165-.03.285-.03.285-.165,0-.24-1.26-.57-1.29-.57-.12,0-.15.1-.18.165a7.2,7.2,0,0,1-.585,1.35.547.547,0,0,1-.6.345H64.68c-.135-.015-.255-.045-.255-.195a.358.358,0,0,1,.045-.135c.135-.21.21-.375.285-.495.15-.285.195-.36.405-.42.09-.03.195-.075.195-.18,0-.15-.24-.195-.555-.285a4.593,4.593,0,0,0-.72-.18c-.105,0-.15.105-.2.18A13.218,13.218,0,0,1,61.2-8.58c-.06.075-.21.21-.21.315a1.034,1.034,0,0,0,.66.66c.255,0,.87-.765,1.05-.99a.163.163,0,0,1,.135-.06c.045,0,.12.03.135.165v2.46c0,.33-.03.645-.03.96,0,.54.3.6.765.6.36,0,.735-.015,1.1-.015h6.57c.57,0,1.14.03,1.71.03.3,0,.33-.105.33-.48,0-.36-.015-.48-.33-.48-.57,0-1.14.03-1.71.03H68.355c-.21,0-.3-.09-.3-.3V-5.97c0-.21.09-.3.3-.3h1.62c.555,0,1.1.03,1.65.03.285,0,.315-.105.315-.465,0-.375-.03-.45-.33-.45-.54,0-1.1.03-1.635.03h-1.62c-.21,0-.3-.09-.3-.315v-.27c0-.21.09-.3.3-.3H69.99c.54,0,1.1.03,1.635.03.315,0,.33-.12.33-.45,0-.36-.03-.465-.33-.465-.555,0-1.1.03-1.635.03H68.355c-.21,0-.3-.09-.3-.3Zm12.42-2.25c-.3,0-.48.84-.48.975,0,.24.285.3.84.435.5.135,3,.69,3.39.69s.465-.975.465-1.065c0-.195-.105-.225-.315-.24a15.845,15.845,0,0,1-3.66-.735A.706.706,0,0,0,80.475-11.715ZM82.71-8.64a7.83,7.83,0,0,0-3.84,1.215c-.18.105-.465.24-.465.465,0,.285.39,1.14.675,1.14a.5.5,0,0,0,.315-.165,4.967,4.967,0,0,1,3.27-1.44,2.12,2.12,0,0,1,2.28,2.31c0,2.085-2.19,3.84-4.02,4.44-.12.045-.3.105-.3.255,0,.24.465.99.81.99a3.9,3.9,0,0,0,1.2-.54c1.89-1.125,3.63-2.94,3.63-5.265A3.261,3.261,0,0,0,82.71-8.64ZM93.765-4.395c-.015,0-1.05.225-1.05.555a3.265,3.265,0,0,0,.54,1.365c.945,1.335,2.61,1.56,4.125,1.56a26.776,26.776,0,0,0,4.5-.435c.255-.09.3-.33.3-.57,0-.6-.06-.87-.285-.87a.638.638,0,0,0-.165.03,20.253,20.253,0,0,1-4.56.525,3.526,3.526,0,0,1-2.61-.81,2.173,2.173,0,0,1-.51-1.1C94-4.3,93.945-4.395,93.765-4.395Zm.81-5.82c-.18,0-.225.135-.27.27a6.3,6.3,0,0,0-.12.7.3.3,0,0,0,.12.285,10.989,10.989,0,0,0,3.36.4,21.067,21.067,0,0,0,2.745-.165c.3-.045.39-.09.39-.45,0-.24,0-.96-.345-.96-.06,0-.135.015-.18.015a11.991,11.991,0,0,1-2.73.3,8.932,8.932,0,0,1-2.6-.33A1.662,1.662,0,0,0,94.575-10.215ZM109.77-11.22a.342.342,0,0,0,.045.165,9.908,9.908,0,0,1,.3,1.1c.165.69.525,2.085.765,2.7a.7.7,0,0,1,.045.255c0,.2-.105.285-.255.39-1.245.8-2.715,1.845-2.715,3.48a2.531,2.531,0,0,0,1.305,2.2,5.435,5.435,0,0,0,2.985.63A40.011,40.011,0,0,0,116.4-.54c.24-.06.255-.255.255-.555,0-.33.015-.855-.195-.855a.51.51,0,0,0-.15.015,24.578,24.578,0,0,1-3.945.375,4.748,4.748,0,0,1-2.49-.51,1.228,1.228,0,0,1-.645-.99c0-1.29,1.755-2.3,2.745-2.865a31.378,31.378,0,0,1,4.515-2.2c.105-.03.285-.075.285-.21,0-.195-.585-1.245-.81-1.245a.706.706,0,0,0-.39.165,30.974,30.974,0,0,1-3.225,1.77c-.225,0-.285-.21-.33-.39a24.371,24.371,0,0,1-.555-2.985c-.03-.33-.015-.51-.4-.51-.18,0-.345.03-.525.045C110.19-11.445,109.77-11.43,109.77-11.22Zm11.865,1.89c0,.09.1,1.26.435,1.26a1.2,1.2,0,0,0,.225-.045c.765-.2,1.545-.315,2.325-.435.36-.045,2.145-.3,2.37-.3.075,0,.195.03.195.135,0,.075-.075.135-.285.345a6.87,6.87,0,0,0-1.89,4.635c0,2.775,2.145,3.63,4.56,3.63.225,0,.315-.03.4-.225a3.063,3.063,0,0,0,.21-.975c0-.21-.165-.21-.345-.21s-.39.015-.585.015a4.508,4.508,0,0,1-1.725-.255,2.173,2.173,0,0,1-1.185-2.085,5.984,5.984,0,0,1,.825-2.895A4.612,4.612,0,0,1,129.825-9a8.549,8.549,0,0,1,2.55-.3c.375,0,.585,0,.585-.33a4.959,4.959,0,0,0-.09-.81c-.03-.15-.06-.315-.255-.315a.878.878,0,0,0-.2.03c-1.035.18-2.37.315-3.435.45-2.175.255-4.35.495-6.54.615C121.83-9.63,121.635-9.66,121.635-9.33Zm11.175.6c-.165,0-.66.345-.66.51,0,.075.075.15.12.21a12.8,12.8,0,0,1,.975,1.215c.06.075.12.18.21.18.195,0,.675-.375.675-.57A6.217,6.217,0,0,0,132.81-8.73Zm-1.755.8c-.15,0-.645.33-.645.51,0,.06.09.15.12.2.345.4.69.81.99,1.23.045.075.1.165.195.165.2,0,.675-.36.675-.57,0-.165-.48-.69-.585-.81C131.52-7.545,131.205-7.935,131.055-7.935ZM7.128,12.084c.44,0,.66.088.66.572a5.7,5.7,0,0,1-.506,1.936A7.333,7.333,0,0,0,6.82,15.78a.1.1,0,0,0,.11.088,2.9,2.9,0,0,0,1.078-.946,10.424,10.424,0,0,1,1.342-1.5c.154-.132.264-.154.264-.308a.389.389,0,0,0-.2-.242c-.616-.4-.77-.462-.77-.638,0-.088.154-.154.242-.154H10.12c.352,0,.748-.044.748-.308,0-.374-1.276-1.342-1.672-1.342a.514.514,0,0,0-.352.22c-.44.55-.748.836-1.144.836H7.194c-.484,0-.484-.33-.484-.726a2.356,2.356,0,0,1,.33-1.276c.066-.11.154-.176.154-.33,0-.286-1.562-.616-1.738-.616a.222.222,0,0,0-.242.2.782.782,0,0,0,.044.22,2.906,2.906,0,0,1,.132,1.056v.506c0,.836-.044.968-.682.968-.352,0-1.056-.044-1.606-.088-.506-.044-.968-.066-1.078-.066-.044,0-.088.022-.088.066s.022.066.11.176l.44.506a.3.3,0,0,0,.2.11c.088,0,.462-.066.814-.088.748-.022,1.8-.022,2.4-.022Zm8.822,4.664a.468.468,0,0,1,.484.374,3.068,3.068,0,0,1,.088.9c0,2.2,0,4.026-.022,5.852-.022,1.342-.132,2.684-.132,4.048,0,.418.176.506.572.506a1.025,1.025,0,0,0,.9-.374,1.249,1.249,0,0,0,.22-.748c0-.374-.044-.77-.044-1.144C18,25.5,18,24.844,18,24.184V19.52c0-.726-.022-1.452.044-2.156.022-.286.176-.616.506-.616h1.8c.638,0,.9-.088.9-.308,0-.11-.066-.264-.4-.572-.264-.264-.924-.924-1.166-.924-.264,0-.66.572-.836.814a.984.984,0,0,1-.924.418H14.652c-.682,0-.748-.352-.748-.946,0-1.034-.044-2.09.022-3.146.022-.242.066-.462.308-.572.4-.176,5.1-.66,5.786-.682.2,0,.726-.044.726-.264,0-.154-.528-.528-1.078-.858a4.322,4.322,0,0,0-1.034-.572c-.11,0-.176.044-.352.2a13.216,13.216,0,0,1-4.51,1.716,2.216,2.216,0,0,1-.836-.2,2.266,2.266,0,0,0-.638-.2c-.11,0-.132.11-.132.2,0,.11.044.44.154,1.518.088,1.518.132,2.97.132,4.488a26.775,26.775,0,0,1-.528,6.512,10.948,10.948,0,0,1-1.584,3.212c-.484.726-1.056,1.188-1.056,1.276,0,.066.044.088.11.088a2.276,2.276,0,0,0,.66-.33,7.4,7.4,0,0,0,2.552-2.926,15.223,15.223,0,0,0,1.254-6.644c.022-.7.088-1.3.77-1.3ZM3.5,12.678a1.353,1.353,0,0,0,.066.242,7.867,7.867,0,0,1,.286,1.188c.22,1.408.242,1.54.77,1.54.506,0,.77-.572.77-1.012a2.376,2.376,0,0,0-1.76-2.068C3.564,12.568,3.5,12.59,3.5,12.678Zm1.144,3.3c-1.3,0-3.454-.154-3.52-.154s-.088.022-.088.044c0,.044.066.11.154.22l.33.4a.424.424,0,0,0,.264.176h.066a25.825,25.825,0,0,1,2.926-.11h5.654c1.122,0,1.3-.022,1.3-.33a.888.888,0,0,0-.286-.44c-.616-.616-.946-.88-1.078-.88-.154,0-.264.132-.352.264-.33.462-.638.814-1.188.814ZM7.3,19.432a.364.364,0,0,1-.418-.418v-.176a1.277,1.277,0,0,1,.242-.946.578.578,0,0,0,.154-.33c0-.286-.374-.4-.792-.484a3.735,3.735,0,0,0-.814-.11c-.176,0-.286.022-.286.132a1.754,1.754,0,0,0,.066.33,6.762,6.762,0,0,1,.066,1.5c0,.352-.154.528-.506.528A29.859,29.859,0,0,1,1.584,19.3H1.54c-.044,0-.088,0-.088.044s.088.132.22.286l.352.4c.066.066.11.11.176.11.132,0,.308-.044.55-.066.286-.022.638-.044.946-.044H4.2c.264,0,.572,0,.572.352,0,.924-1.562,3.7-2.376,4.752a6.889,6.889,0,0,0-.9,1.276c0,.066.044.088.11.088a8.658,8.658,0,0,0,1.606-1.342A14.667,14.667,0,0,0,5.06,22.776c.088-.154.2-.286.286-.286.22,0,.154.4.154,1.408,0,1.364-.11,2.706-.11,4.048a.434.434,0,0,0,.462.484,1.169,1.169,0,0,0,.968-.484,1.656,1.656,0,0,0,.066-.66v-.55c0-.748-.022-1.518-.022-2.288v-2.4c0-.55,0-.836.264-.836.374,0,1.232,1.452,1.474,2.046.22.506.44.77.748.77.506,0,.726-.528.726-.946,0-.836-.726-1.32-1.408-1.694-.462-.242-.924-.484-1.408-.726-.22-.11-.352-.176-.352-.374s.22-.264.4-.264h3.124c.594,0,.814-.044.814-.33,0-.11-.022-.176-.286-.44-.66-.66-.946-.9-1.078-.9-.154,0-.264.132-.352.264a1.525,1.525,0,0,1-1.188.814ZM25.19,25.526c0,.352.154.924.594.924.88-.022,1.408-1.188,2.024-2.64a42.2,42.2,0,0,0,2.2-7.7,2.043,2.043,0,0,1,.264-.814,1.017,1.017,0,0,1,.462-.2c1.716-.462,3.63-1.078,3.63-2.354,0-.462-.242-.682-.726-.682-.22,0-.528.044-.682.044-.352,0-1.98-.4-1.98-.792,0-.066.022-.11.11-.308a1.009,1.009,0,0,0,.132-.352c0-.176-.286-.484-.462-.638a1.928,1.928,0,0,0-1.3-.528c-.418,0-.99.22-.99.506,0,.132.286.462.44.616a2.112,2.112,0,0,1,.44,1.562,10.887,10.887,0,0,1-.132,1.474.427.427,0,0,1-.154.33.94.94,0,0,1-.44.132,7.429,7.429,0,0,1-1.078.066,5.908,5.908,0,0,1-2.266-.374.526.526,0,0,0-.2-.066.1.1,0,0,0-.088.088c0,.374.748.99,1.144,1.188a4.341,4.341,0,0,0,1.958.4h.484c.154,0,.308.022.308.22a13.76,13.76,0,0,1-.352,1.54,29.738,29.738,0,0,1-2.948,7.282A2.361,2.361,0,0,0,25.19,25.526Zm5.786-13.442a3.72,3.72,0,0,1,1.232.506c.154.11.176.154.176.2,0,.066-.022.132-.154.22a5.5,5.5,0,0,1-1.21.55,1.038,1.038,0,0,1-.33.044c-.11,0-.154-.088-.154-.22,0-.088.066-.352.11-.572C30.756,12.194,30.756,12.084,30.976,12.084Zm2.266,4.466a1.01,1.01,0,0,0,.22-.022,11.42,11.42,0,0,1,2.09-.154c.264,0,1.892.022,1.892.352,0,.2-.77.814-.968,1.012-.066.066-.176.176-.176.22,0,.066.066.066.11.066a1.329,1.329,0,0,0,.484-.132,5.035,5.035,0,0,1,2.068-.506c.2,0,.528.044.814.044.132,0,.286.022.418.022.352,0,.638-.132.638-.506,0-1.386-2.684-1.606-3.652-1.606a9.125,9.125,0,0,0-3.168.528c-.242.088-.968.374-.968.594C33.044,16.55,33.176,16.55,33.242,16.55Zm-1.188,5.83c-.242,0-.308.77-.308.968a3.03,3.03,0,0,0,1.8,2.816,10.936,10.936,0,0,0,4.73.858h.528c.968,0,2.156-.066,2.156-.748,0-.814-1.144-1.1-1.782-1.1-.484,0-.99.066-1.474.11-.286.022-.594.044-.9.044a6.52,6.52,0,0,1-3.168-.66,2.619,2.619,0,0,1-1.43-2.024C32.186,22.534,32.1,22.38,32.054,22.38ZM50.776,12.326a3.487,3.487,0,0,1-1.848-.55c-.286-.176-.374-.2-.44-.2-.132,0-.154.154-.154.264a1.44,1.44,0,0,0,.462.968,3.376,3.376,0,0,0,2.134.814c.4.022.484.088.484.33a19.982,19.982,0,0,1-1.034,3.3,17.892,17.892,0,0,1-2.244,4.136c-.4.528-.484.77-.484,1.012a.6.6,0,0,0,.66.616c.836,0,1.562-1.188,1.892-1.848A34.078,34.078,0,0,0,52.646,14c.066-.33.176-.4.484-.484,1.21-.33,2.816-.814,2.816-1.672,0-.638-.77-.858-1.254-.99a2.674,2.674,0,0,1-.9-.33,1.44,1.44,0,0,1-.264-.33,1.648,1.648,0,0,0-1.408-.726c-.33,0-.9.154-.9.44a.613.613,0,0,0,.154.286,1.993,1.993,0,0,1,.572,1.32c0,.286-.044.594-.2.682A2.207,2.207,0,0,1,50.776,12.326Zm2.442-.308c-.088,0-.132-.044-.132-.176,0-.154.176-.946.528-.946a1.7,1.7,0,0,1,.748.374.263.263,0,0,1,.088.176c0,.066-.022.11-.11.2a1.885,1.885,0,0,1-.748.308A1.484,1.484,0,0,1,53.218,12.018ZM58.5,24.91a4.885,4.885,0,0,1,1.826,1.1.907.907,0,0,0,.682.352c.44,0,.594-.4.594-.77,0-.946-1.738-1.8-2.53-2.09A1.5,1.5,0,0,1,58.234,23a13.672,13.672,0,0,1-.682-4.2,2.507,2.507,0,0,1,.55-1.848,2.57,2.57,0,0,1,1.562-.638,1.416,1.416,0,0,1,.528.11,4.335,4.335,0,0,0,1.166.33A1.053,1.053,0,0,0,62.414,15.6a2.366,2.366,0,0,0-1.606-2.244,7.164,7.164,0,0,0-1.3-.374c-.066,0-.154.022-.154.11s.11.176.176.242a1.9,1.9,0,0,1,.726,1.254c0,.44-.176.616-.748.968a7.177,7.177,0,0,0-1.98,1.408,5.381,5.381,0,0,0-.77,3.41c0,.66.044,1.144.066,1.848,0,.154.022.374.022.462,0,.264-.132.308-.44.308-.264,0-.682-.044-1.078-.044-1.386,0-3.476.506-3.476,2.134,0,1.606,1.8,2.6,3.322,2.6a2.865,2.865,0,0,0,3.1-2.4C58.322,25,58.344,24.91,58.5,24.91Zm-3.014-.88a4.9,4.9,0,0,1,1.122.132c.264.088.33.2.33.44a1.661,1.661,0,0,1-.352.924,2.31,2.31,0,0,1-1.958.858c-.7,0-2-.308-2-1.188,0-1.1,1.738-1.166,2.508-1.166Zm25.3-13.09c.374,0,.682.11.7.528.066.946.022,1.914.022,2.86,0,3.124.044,6.248.044,9.372v1.8c0,.792-.132,1.056-.968,1.056-.308,0-1.254-.044-1.738-.066h-.242c-.066,0-.176,0-.176.11,0,.132.308.22.44.264a2.528,2.528,0,0,1,1.694,1.386c.088.308.308.33.616.33a2.086,2.086,0,0,0,1.65-.88,2.718,2.718,0,0,0,.374-1.54c0-1.76-.11-3.52-.11-5.28,0-1.144-.066-9.152.044-9.57.066-.308.33-.374.594-.374H86.02c.418,0,.946-.044.946-.352,0-.11-.418-.462-.9-.858A4.5,4.5,0,0,0,84.964,9c-.264,0-.66.572-.792.77a1.281,1.281,0,0,1-1.254.572H71.082c-1.012,0-2-.022-3.014-.066-.308-.022-.858-.088-.968-.088-.044,0-.088.022-.088.066s.044.088.176.242l.352.4c.11.132.132.154.2.154.022,0,.22-.044.4-.066.264-.044,1.958-.044,2.838-.044ZM75.262,21.808c.506.022.7.176.7.682v.264c0,.352.132.616.528.616.726,0,1.034-.682,1.034-1.32,0-.4-.044-.792-.044-1.188-.044-1.21-.088-2.4-.088-3.608a1.758,1.758,0,0,1,.44-1.32c.132-.154.176-.242.176-.308,0-.154-.33-.484-.66-.7a4.292,4.292,0,0,0-.99-.616c-.066,0-.22.154-.286.242a1,1,0,0,1-.924.484H72.71a1.663,1.663,0,0,1-.858-.22,3.621,3.621,0,0,0-1.254-.506c-.2,0-.264.154-.264.33a3.468,3.468,0,0,0,.022.418c.088.814.176,2.552.176,3.388,0,1.188-.022,2.332-.066,3.52-.022.352-.022.726-.022,1.078,0,.44.176.792.682.792.616,0,.9-.616.924-1.144.022-.484.066-.88.66-.88Zm-2.552-.572a.628.628,0,0,1-.616-.286,36.51,36.51,0,0,1-.088-4.576c0-.484.11-.77.638-.77h2.64a.579.579,0,0,1,.616.4c.066.33.066,1.738.066,4.444,0,.418-.044.792-.638.792Zm24.244-8.052c0,.154-.088.2-.462.22-1.034.088-2.09.11-3.124.11H92.95c-.132,0-.4,0-.4-.2a2.448,2.448,0,0,1,.308-.66c.308-.506.682-1.21,1.034-1.8a2.233,2.233,0,0,1,.682-.682c.11-.088.352-.242.352-.374,0-.242-.33-.374-.528-.462-.4-.2-.7-.308-1.21-.528a1.036,1.036,0,0,0-.374-.088c-.132,0-.11.176-.11.264v.154a5.823,5.823,0,0,1-.154,1.144,15.994,15.994,0,0,1-.77,2.464c-.242.66-.352.77-.748.77a6.322,6.322,0,0,1-.924-.11,1.823,1.823,0,0,0-.44-.044c-.22,0-.33.11-.33.308,0,.418.264,1.65.638,1.65a.41.41,0,0,0,.22-.11,1.268,1.268,0,0,1,.55-.242c.11-.022.154-.022.352-.066,1.166-.22,2.31-.484,3.476-.726l1.518-.33a3.867,3.867,0,0,1,.814-.154c.242,0,.308.154.374.352.154.352.286,1.144.792,1.144.44,0,.66-.55.66-.9,0-1.452-2.266-3.124-2.772-3.124a.1.1,0,0,0-.088.088.488.488,0,0,0,.11.242A6.582,6.582,0,0,1,96.954,13.184Zm10.692-1.474c0-.132-.418-.572-.748-.814a2.669,2.669,0,0,0-.814-.484c-.11,0-.264.176-.528.462a14.642,14.642,0,0,1-3.168,2.354,2.008,2.008,0,0,1-.572.242c-.132,0-.176-.11-.2-.22a22.514,22.514,0,0,1,.044-2.442c.022-.22.242-.4.4-.55.066-.066.176-.154.176-.264,0-.22-.352-.352-.66-.44a7.669,7.669,0,0,0-1.32-.286c-.088,0-.176,0-.176.088a1.353,1.353,0,0,0,.022.286,11.254,11.254,0,0,1,.066,1.232c0,1.012-.022,2.046-.022,3.08,0,3.212.286,3.982,3.7,3.982a12.591,12.591,0,0,0,3.762-.418c.418-.2.88-.528.88-1.056,0-.088-.066-.22-.286-.462a1.5,1.5,0,0,1-.44-1.122v-.22c0-.22-.022-.506-.132-.506-.066,0-.132.088-.22.308a8.266,8.266,0,0,1-.7,1.474c-.462.594-1.76.594-2.464.594h-.462c-.77,0-1.826-.066-2.046-.77a4.2,4.2,0,0,1-.11-1.166c0-.506.2-.638.66-.77.484-.154.968-.352,1.452-.55A16.865,16.865,0,0,1,107.03,12C107.4,11.952,107.646,11.886,107.646,11.71ZM92.51,16.792a1.892,1.892,0,0,1-.858-.2,3.135,3.135,0,0,0-1.188-.506c-.088,0-.154.044-.154.132a4.335,4.335,0,0,0,.022.462c.154,1.32.154,3.388.154,4.62,0,1.518,0,3.036-.066,4.554-.022.7-.11,1.386-.11,2.068a.483.483,0,0,0,.528.55c.924,0,1.122-.748,1.122-1.5V23.524a.57.57,0,0,1,.638-.638H95.48c.352,0,.572.066.638.4a12.038,12.038,0,0,1,.044,1.43c0,.484,0,.946-.022,1.21-.044.748-.132.88-.682.88-.4,0-.792-.066-1.188-.066-.066,0-.154.044-.154.11,0,.11.154.176.286.22a1.915,1.915,0,0,1,1.144,1.188c.044.132.11.308.264.308a1.675,1.675,0,0,0,1.21-.484,2.045,2.045,0,0,0,.616-1.628c0-1.474-.088-2.926-.088-4.378,0-1.1.044-2.222.044-3.322v-.308a.9.9,0,0,1,.154-.594c.11-.154.352-.352.352-.55,0-.286-1.056-1.166-1.276-1.166-.11,0-.22.11-.374.286a.962.962,0,0,1-.814.374Zm3.058.594c.594,0,.616.22.616.88v.484c0,.594-.044.792-.7.792H92.62c-.616,0-.7-.33-.7-.748v-.616c0-.418.066-.792.66-.792ZM107.6,21.61c0-.132-.176-.264-.286-.352-.242-.176-1.056-.924-1.32-.924-.176,0-.286.132-.506.4-.4.506-3.19,2.618-3.7,2.618-.132,0-.176-.154-.176-.264v-.77c0-.352.022-.836.044-1.254.022-.682.044-.858.286-1.144.066-.066.176-.154.176-.264,0-.4-1.54-.682-1.87-.682-.088,0-.264,0-.264.088,0,.22.066.506.066.726v3.564c0,.616-.022,1.21-.022,1.826a2.912,2.912,0,0,0,.638,2.222c.7.682,2.046.726,3.08.726h1.276a8.367,8.367,0,0,0,2.86-.352c.462-.2,1.1-.682,1.1-1.232a.967.967,0,0,0-.22-.506,4.929,4.929,0,0,1-.594-1.848c-.022-.176-.044-.462-.176-.462-.11,0-.132.11-.2.308a10.919,10.919,0,0,1-.528,1.584c-.44.9-.99,1.056-2.332,1.078h-.748c-1.628,0-2.354-.044-2.552-1.012a6.517,6.517,0,0,1-.044-.99c0-.594.11-.748.66-.924,1.034-.33,2.024-.77,3.014-1.144a15.748,15.748,0,0,1,1.892-.726C107.536,21.83,107.6,21.764,107.6,21.61Zm-14.982.682c-.616,0-.682-.374-.682-.858v-.286c0-.572,0-1.012.682-1.012h2.86c.638,0,.682.242.682.858v.528c0,.44-.066.77-.682.77Zm28.644-8.228c-.264,0-.4-.088-.4-.33a4.655,4.655,0,0,1,.264-.858c.242-.66.4-.88.77-1.1.242-.154.33-.242.33-.374,0-.484-2-1.056-2.178-1.056-.154,0-.264.066-.264.176a3.012,3.012,0,0,0,.044.352,3.573,3.573,0,0,1,.044.4,7.428,7.428,0,0,1-.154,1.386,25.988,25.988,0,0,1-1.012,3.454c-.2.572-1.056,2.64-1.276,3.124a2.238,2.238,0,0,0-.176.462c0,.022.022.044.066.044.11,0,.352-.286.968-1.056a13.783,13.783,0,0,0,1.8-3.146c.352-.792.506-.9.968-.9h1.43c.352,0,.572.066.638.308a11.909,11.909,0,0,1,.088,2.728v1.716c0,.616-.154.792-.7.792-1.254,0-2.9-.044-3.5-.088-.22-.022-.484-.044-.594-.044-.022,0-.066,0-.066.022s.022.066.088.154l.418.506c.11.132.132.154.2.154l.418-.044c.44-.044,1.342-.066,3.014-.066.682,0,.7.066.7,1.848,0,1.32-.022,2.244-.022,3.564a.993.993,0,0,1-.154.55c-.132.132-.22.154-.528.154h-1.87c-.99,0-1.936-.022-2.442-.044-.638-.022-.88-.044-1.078-.066l-.462-.044c-.044,0-.066.022-.066.044s.022.066.088.154l.418.506c.088.11.132.154.2.154l.374-.044c.374-.044,1.32-.066,2.86-.066h9.79c.792,0,.924-.154.924-.308,0-.4-1.606-1.826-1.914-1.826-.11,0-.242.132-.858,1.078-.286.44-.4.462-1.342.462h-1.738c-.66,0-.7-.022-.7-1.694,0-1.21.022-2.046.022-3.256,0-.66.022-.858.132-.99a.693.693,0,0,1,.55-.176h4.268c.638,0,.858-.088.858-.286,0-.374-1.738-1.562-1.892-1.562-.088,0-.22.132-.66.792-.242.374-.462.462-1.254.462h-1.32c-.682,0-.7-.22-.7-1.474,0-.99,0-1.65.022-2.772.022-1.034.022-1.3.836-1.3h4.18c.528,0,.77-.088.77-.242a5.274,5.274,0,0,0-1.892-1.562c-.11,0-.286.132-.594.616-.374.572-.418.616-1.188.616H125.4c-.506,0-.66-.132-.66-.638V11.314c0-.748.044-1.144.374-1.386.286-.22.352-.33.352-.506a.377.377,0,0,0-.286-.374,13.61,13.61,0,0,0-1.958-.44c-.22,0-.374.11-.374.264a1.687,1.687,0,0,0,.11.374,2.066,2.066,0,0,1,.176.9v.374l.044,2.75c0,.594-.11.792-.682.792ZM116.226,9.4a.271.271,0,0,0-.154-.242,13.427,13.427,0,0,0-2.134-.484.18.18,0,0,0-.2.176l.044.308a4.349,4.349,0,0,1,.154.88c.022.286.022.462.022.726v1.012c.022,2.728.044,5.478.044,8.206,0,2.134,0,4.29-.132,6.446-.044.7-.066,1.034-.066,1.188,0,.55.132,1.012.7,1.012.7,0,.99-.7.99-1.3,0-.088,0-.374-.022-.682l-.044-.88v-7.81c0-.572.044-3.058.066-4.708,0-.682.022-1.32.022-1.826a10.518,10.518,0,0,1,.022-1.078.682.682,0,0,1,.308-.44C116.182,9.642,116.226,9.532,116.226,9.4Zm-3.256,6.27a11.007,11.007,0,0,0-.2-1.8c-.11-.506-.242-.726-.33-.726-.044,0-.066.044-.088.286a8.431,8.431,0,0,1-.836,2.6c-.748,1.342-.792,1.452-.792,1.826,0,.418.308.99.792.99C112.332,18.838,112.97,17.452,112.97,15.67Zm3.344-2.4a.058.058,0,0,0-.066.066c0,.022.088.286.154.572a15.338,15.338,0,0,1,.2,2.046v.132c0,.44.088.66.374.66a.972.972,0,0,0,.792-.55,1.591,1.591,0,0,0,.176-.726,2.115,2.115,0,0,0-.638-1.54A1.939,1.939,0,0,0,116.314,13.272ZM5.865,42.51c-.105,0-.15.09-.15.195v.06a3.279,3.279,0,0,1,.045.54A12.709,12.709,0,0,1,5.61,45c-.06.465-.045.645-.51.735-.735.135-1.92.435-2.6.495-.15.015-.39,0-.39.21,0,.135.255,1.245.555,1.245a.676.676,0,0,0,.165-.045,15.534,15.534,0,0,1,2.085-.63.166.166,0,0,1,.18.18A12.225,12.225,0,0,1,4.725,48.4a12.808,12.808,0,0,1-2.775,4.47c-.09.09-.21.21-.21.33,0,.285.72.735.945.735a.36.36,0,0,0,.255-.135,15.4,15.4,0,0,0,.99-1.335,17.8,17.8,0,0,0,2.46-5.4c.075-.33.15-.525,1.245-.525,1.05,0,1.11.705,1.11,1.575a9.007,9.007,0,0,1-.675,3.45,1.562,1.562,0,0,1-1.62,1.05c-.33,0-.6-.075-.735-.075s-.165.09-.165.2a2.082,2.082,0,0,0,.24.855.573.573,0,0,0,.615.315A2.954,2.954,0,0,0,9.12,52.335a10.935,10.935,0,0,0,.87-4.56c0-1.425-.57-2.355-2.1-2.355-.285,0-.72.015-.825.015a.26.26,0,0,1-.27-.27A.638.638,0,0,1,6.825,45c.06-.27.09-.51.12-.72.075-.525.12-.825.375-1.035a.3.3,0,0,0,.12-.21c0-.165-.255-.21-.375-.255C6.855,42.735,6.015,42.51,5.865,42.51Zm5.85.06c-.165,0-.63.39-.63.555,0,.075.09.15.135.195.375.375.72.75,1.065,1.155.045.06.12.165.21.165.2,0,.63-.4.63-.6,0-.12-.375-.525-.495-.645C12.495,43.26,11.85,42.57,11.715,42.57Zm1.38-1.02c-.15,0-.615.39-.615.555,0,.075.09.15.135.195.39.405.7.735,1.05,1.155.06.06.12.165.21.165.2,0,.645-.405.645-.615A6.246,6.246,0,0,0,13.1,41.55ZM10.77,44.205c-.21,0-.855.39-.855.615a.305.305,0,0,0,.135.24A10.544,10.544,0,0,1,12,48.21c.06.135.135.3.315.3.27,0,.99-.435.99-.69C13.305,47.445,11.3,44.205,10.77,44.205Zm8.7.42c-.06,0-.3-.015-.3-.255a.353.353,0,0,1,.03-.12c.12-.33.18-.57.24-.765.12-.435.165-.585.405-.705.09-.045.24-.1.24-.24,0-.18-.24-.225-.765-.36a6,6,0,0,0-.63-.135c-.135,0-.18.135-.21.24a12.873,12.873,0,0,1-2.46,5.385c-.075.09-.225.255-.225.375,0,.285.63.585.87.585.435,0,1.53-2.055,1.74-2.475a.537.537,0,0,1,.57-.345h2.46c.3,0,.42.12.42.42v1.95c0,.285-.12.4-.42.4h-2.1c-.57,0-1.155-.03-1.74-.03-.36,0-.36.195-.36.63,0,.42,0,.615.36.615.585,0,1.17-.045,1.74-.045h2.1c.3,0,.42.12.42.42v2.6c0,.285-.12.4-.42.4H18c-.6,0-1.2-.03-1.815-.03-.33,0-.345.15-.345.63s.015.63.345.63c.615,0,1.215-.045,1.815-.045h8.9c.615,0,1.215.045,1.83.045.345,0,.345-.18.345-.63,0-.465,0-.63-.36-.63-.6,0-1.2.03-1.815.03h-3.33c-.285,0-.4-.12-.4-.4v-2.6c0-.3.12-.42.4-.42H25.71c.585,0,1.17.045,1.755.045.345,0,.345-.165.345-.615,0-.465,0-.63-.345-.63-.585,0-1.17.03-1.755.03H23.565c-.285,0-.4-.12-.4-.4V46.23c0-.3.12-.42.4-.42H26.34c.6,0,1.2.045,1.8.045.33,0,.345-.165.345-.63s0-.63-.345-.63c-.6,0-1.2.03-1.8.03H23.565c-.285,0-.4-.12-.4-.42v-1.35c0-.45.015-.675.18-.8.135-.09.21-.12.21-.225,0-.195-.3-.195-.51-.21-.255-.015-.765-.09-.99-.09-.15,0-.27.045-.27.225,0,.045.015.09.015.135a8.7,8.7,0,0,1,.06,1.11v1.2c0,.3-.12.42-.42.42ZM36.54,51.51c.42,0,.81,0,.81.315,0,.945-.645,1.2-1.485,1.2-.45,0-1.185-.12-1.185-.72C34.68,51.54,36,51.51,36.54,51.51Zm.57-9.27c-.12,0-.21.03-.21.165a1.2,1.2,0,0,0,.045.225c.045.24.135,1.29.135,1.545,0,.405-.39.39-1.755.39-.93,0-2.07-.09-2.355-.09-.24,0-.255.165-.255.39,0,.84.1.93.72.93,1.425,0,2.9-.09,3.39-.09.3,0,.39.315.39,1.41,0,.42-.3.39-1.365.39-.7,0-1.725-.09-1.77-.09-.165,0-.225.1-.225.27a2.166,2.166,0,0,0,.195.87c.1.15.405.165.81.165.69,0,1.47-.045,2.085-.045.33,0,.36.27.36,1.35,0,.135.03.435-.255.435-.03,0-.45-.03-.72-.03-1.17,0-2.835.39-2.835,1.86,0,1.305,1.245,1.83,2.37,1.83s2.43-.4,2.64-1.665c.03-.18.045-.435.285-.435a5.877,5.877,0,0,1,1.71.99c.12.09.285.24.435.24.3,0,.735-.615.735-.93,0-.255-.51-.525-.72-.645a8.419,8.419,0,0,0-1.95-.87c-.45-.135-.525-.075-.525-1.83,0-.42.18-.435.57-.48a16.492,16.492,0,0,0,1.89-.3c.255-.06.3-.165.3-.675,0-.165.015-.645-.21-.645a1.351,1.351,0,0,0-.24.045,12.927,12.927,0,0,1-2.07.405c-.195,0-.33-.12-.33-1.38,0-.42.39-.42.69-.45.795-.105,1.68-.21,2.46-.375.42-.09.525-.075.525-.39,0-.21-.03-.96-.33-.96a1.288,1.288,0,0,0-.255.045,19.339,19.339,0,0,1-2.46.51,2.929,2.929,0,0,1-.345.03c-.21,0-.315-.15-.315-.36,0-.9.09-1.095.165-1.2a.3.3,0,0,0,.09-.21c0-.165-.255-.18-.5-.21C37.9,42.345,37.305,42.24,37.11,42.24Zm12.99-.3c-.15,0-.195.075-.195.21,0,.075.015.255.015.465,0,.6-.045,1.365-.09,1.965-.015.18.015.4-.105.54a7.969,7.969,0,0,1-2.58.735c-.18.015-.45.015-.45.225,0,.06.21,1.155.615,1.155a12.764,12.764,0,0,0,1.98-.66,1.046,1.046,0,0,1,.285-.09c.12,0,.18.09.18.21,0,.075-.045.615-.045.855a.907.907,0,0,1-.15.48,37.293,37.293,0,0,1-2.385,4.02.586.586,0,0,0-.15.285c0,.24.675.81.9.81a.181.181,0,0,0,.165-.12c.39-.72.795-1.41,1.245-2.085.03-.06.1-.165.18-.165s.12.1.12.18c0,.675-.03,1.35-.06,2.01,0,.15-.03.87-.03.9,0,.3.27.3.54.3.825,0,.84-.135.84-.255,0-.27-.075-1.485-.09-1.89-.03-.765-.045-1.515-.045-2.28v-.255a.719.719,0,0,1,.3-.6,19.039,19.039,0,0,1,1.935-1.875c.435-.36,1.185-1.035,1.77-1.035.525,0,.51.645.51,1.035,0,1.44-.18,2.88-.18,4.32,0,.87.12,2.085,1.26,2.085a3.635,3.635,0,0,0,1.98-.825c.18-.1.675-.45.675-.66s-.315-1.11-.54-1.11a.368.368,0,0,0-.255.165c-.315.345-1.005.99-1.485.99-.4,0-.375-.585-.375-1.035,0-1.485.165-2.97.165-4.455a2.628,2.628,0,0,0-.24-1.32,1.449,1.449,0,0,0-1.17-.585,4.021,4.021,0,0,0-2.43,1.275c-.375.315-1.08.975-1.41,1.32a.153.153,0,0,1-.12.075c-.12,0-.135-.09-.135-.18a.822.822,0,0,1,.06-.375l.51-.915c.09-.12.195-.21.195-.3s-.285-.63-.525-.645c-.15,0-.285-.03-.285-.195,0-.255.1-1.02.15-1.305.075-.6.1-.63.27-.795a.338.338,0,0,0,.12-.21c0-.105-.1-.15-.18-.18A12.261,12.261,0,0,0,50.1,41.94ZM67.575,52.365c0,.255-.12.6-.42.6-.51,0-1.335-.3-1.335-.915a.706.706,0,0,1,.735-.675A1,1,0,0,1,67.575,52.365ZM68.88,42.78a2.079,2.079,0,0,0-.525.135,14.577,14.577,0,0,1-3.78.555h-.27c-.42,0-.495.03-.495.375,0,.24.03,1.08.36,1.08a3.248,3.248,0,0,0,.375-.06c.945-.18,1.9-.345,2.835-.57a1.876,1.876,0,0,1,.285-.045c.1,0,.21.045.21.165s-.105.225-.18.315a72.653,72.653,0,0,1-5.22,5.31c-.1.1-.3.24-.3.4,0,.21.57.855.87.855.09,0,.15-.09.24-.195.51-.585,1.035-1.17,1.59-1.71a4.615,4.615,0,0,1,3.39-1.44c1.365,0,2.685.63,2.685,2.16a2.773,2.773,0,0,1-2.175,2.595.142.142,0,0,1-.15-.15,1.86,1.86,0,0,0,.06-.375c0-1.05-1.215-1.8-2.16-1.8A1.737,1.737,0,0,0,64.74,52.05a1.671,1.671,0,0,0,.72,1.32,3.506,3.506,0,0,0,2.145.6c2.34,0,4.635-1.365,4.635-3.915,0-2.055-1.725-3.21-3.645-3.21a3.337,3.337,0,0,0-.855.1,1.835,1.835,0,0,1-.255.045.168.168,0,0,1-.18-.15.394.394,0,0,1,.105-.225,18.522,18.522,0,0,1,2.49-2.37c.075-.045.285-.165.285-.255C70.185,43.755,69.45,42.78,68.88,42.78Zm17.3,2.04a.347.347,0,0,1,.36.36V45.5a.351.351,0,0,1-.36.375h-2.9a.351.351,0,0,1-.36-.375V45.18a.347.347,0,0,1,.36-.36Zm-2.9-.84a.347.347,0,0,1-.36-.36v-.3a.347.347,0,0,1,.36-.36h2.9a.347.347,0,0,1,.36.36v.3a.347.347,0,0,1-.36.36Zm4.41-.645c0-.24.015-.465.015-.69,0-.51-.24-.63-.705-.63-.315,0-.615.015-.915.015H83.37c-.3,0-.615-.015-.915-.015-.45,0-.705.135-.705.615,0,.24.015.465.015.7V45.5c0,.225-.015.465-.015.69,0,.5.255.63.705.63.315,0,.615-.03.915-.03h2.715c.315,0,.615.03.93.03.48,0,.69-.165.69-.66,0-.225-.015-.435-.015-.66ZM77.715,49.9a.509.509,0,0,1-.345.555,9.706,9.706,0,0,1-1.26.45c-.135.045-.33.06-.33.24a4.766,4.766,0,0,0,.285.81c.135.3.195.435.33.435s.165-.165.21-.27c.03-.1.06-.12.3-.225.765-.315,1.515-.66,2.265-1.005.105-.045,1.38-.675,1.425-.705a.37.37,0,0,0,.18-.345c0-.165-.075-.765-.3-.765a7.4,7.4,0,0,0-.885.42,1.4,1.4,0,0,1-.465.195c-.18,0-.225-.135-.225-.285V46.47c0-.3.12-.42.4-.42h.105c.36,0,.84.03,1.05.03.27,0,.285-.21.285-.585,0-.405-.015-.585-.285-.585-.24,0-.66.015-1.05.015h-.105c-.285,0-.4-.12-.4-.4V42.99c0-.525.015-.69.18-.795.135-.09.21-.12.21-.225,0-.165-.21-.195-.54-.21-.285-.015-.57-.06-.855-.06-.135,0-.255.03-.255.195,0,.045.015.12.015.165.03.405.06.84.06,1.245V44.52c0,.285-.12.4-.42.4H77.25c-.39,0-.825-.015-1.05-.015-.3,0-.285.195-.285.585,0,.375-.015.585.285.585.18,0,.69-.03,1.05-.03h.045c.3,0,.42.12.42.42Zm8.865.63c.435-.015.585-.015.585.3a10.463,10.463,0,0,1-.345,2.46c-.15.39-.36.42-.735.42a4.241,4.241,0,0,1-.615-.045c-.06,0-.15-.015-.225-.015-.195,0-.225.135-.225.315,0,.945.255.915.885.915.915,0,1.665-.045,2.01-1.035a15.318,15.318,0,0,0,.465-3.72c0-.465-.15-.69-.645-.69-.345,0-.69.03-1.05.03h-3.27c-.135-.015-.24-.06-.24-.21a.989.989,0,0,1,.165-.39.384.384,0,0,1,.42-.24h3.315c.57,0,1.14.03,1.71.03.315,0,.315-.225.315-.54,0-.345,0-.555-.315-.555-.57,0-1.14.03-1.71.03h-4.92c-.57,0-1.14-.03-1.71-.03-.3,0-.3.225-.3.555,0,.3-.015.54.3.54.5,0,.975-.03,1.47-.03.12,0,.255.045.255.21a.242.242,0,0,1-.045.135,7.8,7.8,0,0,1-2.43,2.52c-.15.1-.345.225-.345.375,0,.21.36.615.57.615a1.2,1.2,0,0,0,.5-.255,8.277,8.277,0,0,0,1.62-1.455.6.6,0,0,1,.57-.24H82.8c.1,0,.225.045.225.18a.209.209,0,0,1-.045.135,8.38,8.38,0,0,1-2.28,2.145c-.12.075-.36.195-.36.345a.8.8,0,0,0,.57.585.618.618,0,0,0,.315-.15,9,9,0,0,0,2.85-2.97c.15-.24.255-.27.54-.27H84.9c.15.015.285.045.285.225a.438.438,0,0,1-.03.135A9.148,9.148,0,0,1,82.44,54c-.105.09-.33.24-.33.39a.786.786,0,0,0,.585.555c.195,0,.825-.555.99-.7a9.784,9.784,0,0,0,2.49-3.45A.361.361,0,0,1,86.58,50.535Zm8.19-7.755a.342.342,0,0,0,.045.165,9.908,9.908,0,0,1,.3,1.1c.165.69.525,2.085.765,2.7a.7.7,0,0,1,.045.255c0,.195-.105.285-.255.39-1.245.8-2.715,1.845-2.715,3.48a2.531,2.531,0,0,0,1.305,2.2,5.435,5.435,0,0,0,2.985.63,40.01,40.01,0,0,0,4.155-.24c.24-.06.255-.255.255-.555,0-.33.015-.855-.195-.855a.51.51,0,0,0-.15.015,24.578,24.578,0,0,1-3.945.375,4.748,4.748,0,0,1-2.49-.51,1.228,1.228,0,0,1-.645-.99c0-1.29,1.755-2.295,2.745-2.865a31.379,31.379,0,0,1,4.515-2.205c.105-.03.285-.075.285-.21,0-.195-.585-1.245-.81-1.245a.706.706,0,0,0-.39.165,30.975,30.975,0,0,1-3.225,1.77c-.225,0-.285-.21-.33-.39a24.371,24.371,0,0,1-.555-2.985c-.03-.33-.015-.51-.4-.51-.18,0-.345.03-.525.045C95.19,42.555,94.77,42.57,94.77,42.78Zm18.03,9.015c.87,0,.915.135.915.51,0,.63-.285.96-.93.96-.45,0-1.215-.285-1.215-.825C111.57,51.87,112.38,51.795,112.8,51.795Zm.81-5.31c-.18,0-.3.075-.3.27v.18c.075.495.285,3.18.285,3.615,0,.18-.135.21-.285.21-.18,0-.375-.015-.555-.015-1.095,0-2.385.405-2.385,1.725,0,1.29,1.395,1.9,2.52,1.9,1.065,0,1.86-.45,1.965-1.575.015-.135.03-.375.195-.375a4.913,4.913,0,0,1,1.41.8.756.756,0,0,0,.375.195c.315,0,.75-.63.75-.87,0-.195-.69-.57-.87-.675a9.272,9.272,0,0,0-1.515-.7c-.24-.09-.345-.165-.375-.435-.09-.78-.15-2.265-.15-3.06,0-.3.03-.75.03-.81,0-.15-.12-.225-.255-.255A3.913,3.913,0,0,0,113.61,46.485Zm2.16-2.13c-.24,0-.795.615-.795.8,0,.1.105.195.195.255a8.106,8.106,0,0,1,1.83,1.89c.075.105.135.21.27.21.225,0,.9-.495.9-.8A7.206,7.206,0,0,0,115.77,44.355Zm-4.89-2.49c-.135,0-.135.135-.135.24a8.242,8.242,0,0,1-.24,1.71,3.162,3.162,0,0,1-.315.945,7.1,7.1,0,0,1-2.325.255c-.1,0-.225-.015-.345-.015-.165,0-.255.045-.255.225a5.162,5.162,0,0,0,.075.675c.045.255.105.39.345.39.195,0,1.305-.105,1.545-.135a2.033,2.033,0,0,1,.3-.03.173.173,0,0,1,.18.18,7.333,7.333,0,0,1-.375,1.02,24.757,24.757,0,0,1-1.86,3.6,1.959,1.959,0,0,0-.24.51c0,.27.795.615,1.05.615.135,0,.195-.075.255-.18.255-.435.48-.87.705-1.305a35.874,35.874,0,0,0,1.785-4.14c.165-.465.15-.54.645-.63,1.47-.27,1.65-.27,1.65-.615,0-.18-.03-.975-.255-.975a.676.676,0,0,0-.165.045,10.6,10.6,0,0,1-1.035.27.173.173,0,0,1-.18-.18c0-.045.045-.21.06-.285a6.482,6.482,0,0,1,.435-1.35c.12-.12.21-.18.21-.27s-.1-.15-.18-.18A11.677,11.677,0,0,0,110.88,41.865Zm16.695,10.5c0,.255-.12.6-.42.6-.51,0-1.335-.3-1.335-.915a.706.706,0,0,1,.735-.675A1,1,0,0,1,127.575,52.365Zm1.305-9.585a2.079,2.079,0,0,0-.525.135,14.577,14.577,0,0,1-3.78.555h-.27c-.42,0-.5.03-.5.375,0,.24.03,1.08.36,1.08a3.248,3.248,0,0,0,.375-.06c.945-.18,1.9-.345,2.835-.57a1.876,1.876,0,0,1,.285-.045c.1,0,.21.045.21.165s-.105.225-.18.315a72.653,72.653,0,0,1-5.22,5.31c-.1.1-.3.24-.3.4,0,.21.57.855.87.855.09,0,.15-.09.24-.195.51-.585,1.035-1.17,1.59-1.71a4.615,4.615,0,0,1,3.39-1.44c1.365,0,2.685.63,2.685,2.16a2.773,2.773,0,0,1-2.175,2.595.142.142,0,0,1-.15-.15,1.86,1.86,0,0,0,.06-.375c0-1.05-1.215-1.8-2.16-1.8a1.737,1.737,0,0,0-1.785,1.665,1.671,1.671,0,0,0,.72,1.32,3.506,3.506,0,0,0,2.145.6c2.34,0,4.635-1.365,4.635-3.915,0-2.055-1.725-3.21-3.645-3.21a3.336,3.336,0,0,0-.855.1,1.835,1.835,0,0,1-.255.045.168.168,0,0,1-.18-.15.394.394,0,0,1,.105-.225,18.522,18.522,0,0,1,2.49-2.37c.075-.045.285-.165.285-.255C130.185,43.755,129.45,42.78,128.88,42.78ZM138.225,51a1.38,1.38,0,1,1-1.38,1.38A1.376,1.376,0,0,1,138.225,51Zm0-.675a2.055,2.055,0,1,0,2.055,2.055A2.049,2.049,0,0,0,138.225,50.325Z" transform="translate(-29.912 1070.48)" fill="#fff"/>
    <path id="パス_9677" data-name="パス 9677" d="M7.776-57.78c4.752-4.1,10.26-10.044,10.26-16.848a6.268,6.268,0,0,0-6.264-6.264,6.339,6.339,0,0,0-6.264,6.264A6.3,6.3,0,0,0,9.288-68.8c1.188.432,1.836.756,1.836,2.16,0,2.7-3.024,5.616-4.968,7.128Zm16.416,0c4.752-4.1,10.26-10.044,10.26-16.848a6.268,6.268,0,0,0-6.264-6.264,6.339,6.339,0,0,0-6.264,6.264A6.3,6.3,0,0,0,25.7-68.8c1.188.432,1.836.756,1.836,2.16,0,2.7-3.024,5.616-4.968,7.128Z" transform="translate(100.088 1187.48)" fill="#fff" opacity="0.4"/>
    <path id="パス_9676" data-name="パス 9676" d="M32.184-80.892c-4.752,4.212-10.26,10.044-10.26,16.848a6.268,6.268,0,0,0,6.264,6.264,6.268,6.268,0,0,0,6.264-6.264,6.418,6.418,0,0,0-3.78-5.832c-1.08-.432-1.836-.756-1.836-2.16,0-2.7,3.024-5.616,5.076-7.128Zm-16.416,0C11.016-76.68,5.508-70.848,5.508-64.044a6.268,6.268,0,0,0,6.264,6.264,6.268,6.268,0,0,0,6.264-6.264,6.418,6.418,0,0,0-3.78-5.832c-1.08-.432-1.836-.756-1.836-2.16,0-2.7,3.024-5.616,5.076-7.128Z" transform="translate(-40.912 1127.48)" fill="#fff" opacity="0.4"/>
  </g>
</svg>
