<svg xmlns="http://www.w3.org/2000/svg" width="465.688" height="213.624" viewBox="0 0 465.688 213.624">
  <g id="グループ_8" data-name="グループ 8" transform="translate(30.131 -1094.796)">
    <path id="パス_9624" data-name="パス 9624" d="M14.558-16.994c-.058,0-4.06.87-4.06,2.146,0,1.508,1.276,4.06,2.088,5.278,3.654,5.162,10.092,6.032,15.95,6.032,3.248,0,14.79-.754,17.4-1.682.986-.348,1.16-1.276,1.16-2.2,0-2.32-.232-3.364-1.1-3.364a2.467,2.467,0,0,0-.638.116,78.313,78.313,0,0,1-17.632,2.03c-3.364,0-7.714-.464-10.092-3.132a8.4,8.4,0,0,1-1.972-4.234C15.486-16.646,15.254-16.994,14.558-16.994ZM17.69-39.5c-.7,0-.87.522-1.044,1.044a24.371,24.371,0,0,0-.464,2.726,1.162,1.162,0,0,0,.464,1.1C18.56-33.35,27.028-33.06,29.638-33.06A81.458,81.458,0,0,0,40.252-33.7c1.16-.174,1.508-.348,1.508-1.74,0-.928,0-3.712-1.334-3.712-.232,0-.522.058-.7.058a46.363,46.363,0,0,1-10.556,1.16A34.538,34.538,0,0,1,19.14-39.208,6.428,6.428,0,0,0,17.69-39.5Zm54.868,22.5c-.058,0-4.06.87-4.06,2.146,0,1.508,1.276,4.06,2.088,5.278,3.654,5.162,10.092,6.032,15.95,6.032,3.248,0,14.79-.754,17.4-1.682.986-.348,1.16-1.276,1.16-2.2,0-2.32-.232-3.364-1.1-3.364a2.467,2.467,0,0,0-.638.116,78.313,78.313,0,0,1-17.632,2.03c-3.364,0-7.714-.464-10.092-3.132a8.4,8.4,0,0,1-1.972-4.234C73.486-16.646,73.254-16.994,72.558-16.994ZM75.69-39.5c-.7,0-.87.522-1.044,1.044a24.371,24.371,0,0,0-.464,2.726,1.162,1.162,0,0,0,.464,1.1C76.56-33.35,85.028-33.06,87.638-33.06A81.458,81.458,0,0,0,98.252-33.7c1.16-.174,1.508-.348,1.508-1.74,0-.928,0-3.712-1.334-3.712-.232,0-.522.058-.7.058a46.363,46.363,0,0,1-10.556,1.16A34.538,34.538,0,0,1,77.14-39.208,6.428,6.428,0,0,0,75.69-39.5Zm74.878-5.336a3.71,3.71,0,0,0-1.508.58c-3.538,1.972-11.948,2.61-16.124,2.726-.986,0-1.74-.058-1.74,1.1,0,.58.522,4.234,1.972,4.234s8.99-1.45,10.73-1.856a6.744,6.744,0,0,1,1.044-.232.533.533,0,0,1,.58.522c0,.29-.232.522-.406.754-1.218,1.392-2.378,2.784-3.6,4.118-4.582,5.278-8.874,10.9-13.282,16.356-.58.7-1.1,1.276-1.508,1.8-1.044,1.218-1.508,1.74-1.508,2.262,0,1.276,3.016,3.19,3.886,3.19.7,0,1.044-.812,1.566-1.8a28.293,28.293,0,0,1,6.032-7.83,18.824,18.824,0,0,1,12.122-4.466c5.22,0,10.324,2.726,10.324,8.526,0,7.6-8.99,10.846-15.37,10.846h-1.218c-.638,0-1.682,0-1.682.7,0,.464,1.276,4.466,2.842,4.466a32.245,32.245,0,0,0,9.57-2.146c6.148-2.436,11.078-6.554,11.078-13.63,0-8.062-6.322-13.224-14.094-13.224a17.974,17.974,0,0,0-5.8,1.044,3.792,3.792,0,0,1-1.334.348.531.531,0,0,1-.58-.464c0-.928,9.106-10.5,11.252-12.006.754-.522,1.508-.928,1.508-1.566C155.324-41.644,151.96-44.834,150.568-44.834ZM216.456-35.9c-.812,0-2.842,2.2-2.842,3.016,0,.58.58.928.986,1.276a86.9,86.9,0,0,1,7.482,6.38c.348.29.754.7,1.218.7.986,0,2.958-2.32,2.958-3.248a14.645,14.645,0,0,0-3.016-2.958c-1.508-1.16-4.408-3.654-5.742-4.64A1.8,1.8,0,0,0,216.456-35.9ZM194.242-10.208c0,.812.232,2.9.232,3.248,0,.174-.058.406-.348.406a1.828,1.828,0,0,1-.986-.522c-.754-.348-2.494-1.914-3.074-1.914a1.08,1.08,0,0,0-1.1.986c0,.406.406.754.7.986a11.828,11.828,0,0,1,3.422,4.64c.406.928.812,2.088,2.03,2.088,1.392,0,4.35-1.044,4.35-3.712,0-.406-.464-6.148-.522-7.192-.116-1.044-.232-3.248-.232-4.176a1.87,1.87,0,0,1,.7-1.508,23.785,23.785,0,0,1,11.194-3.19c3.538,0,7.714,1.972,7.714,6.09,0,4.756-5.22,6.032-9.048,6.032a37.768,37.768,0,0,1-4.872-.58c-.638,0-.87.522-.87,1.1a11.228,11.228,0,0,0,.87,3.654c.29.406,1.45.464,2.32.464,3.712,0,8.816-.348,12.006-2.378a9.581,9.581,0,0,0,4.64-8.352c0-6.786-6.09-10.556-12.354-10.556a28.548,28.548,0,0,0-10.5,2.378,3.784,3.784,0,0,1-1.276.464c-.7,0-.754-1.1-.754-2.262,0-4.872-.232-5.336,2.32-5.742,4.872-.812,5.568-.87,5.568-2.262,0-.812-.174-3.712-1.218-3.712a4.345,4.345,0,0,0-.928.232,37.653,37.653,0,0,1-4.35,1.16.822.822,0,0,1-.87-.87v-.638a14.281,14.281,0,0,0,.116-1.508c.174-1.8.29-2.958.986-3.712.29-.232.7-.58.7-.986,0-.464-.7-.58-1.044-.7-.928-.174-4.06-.87-4.814-.87a.685.685,0,0,0-.7.754c0,.174.058.464.058.58.058.638.116,1.45.116,2.088,0,.58-.174,5.742-.232,6.032-.232.928-.928,1.218-1.856,1.334-2.088.232-4.292.522-6.38.58-1.1.058-1.334.058-1.334,1.566,0,3.422.812,3.422,1.45,3.422a7.2,7.2,0,0,0,1.566-.174c.58-.116,4.988-.87,5.162-.87.87,0,1.218.638,1.218,1.392,0,2.2-.058,4.35-.058,6.5,0,1.566-.29,1.682-2.668,3.132-3.19,1.914-6.264,4.06-9.512,5.974-.638.348-1.16.522-1.16,1.1,0,1.1,1.8,4.408,2.842,4.408.29,0,.58-.29.812-.464,1.1-.928,8.468-6.844,9.28-6.844C194.3-13.108,194.184-12.238,194.242-10.208ZM275.384-42.63c-.638,0-2.61,1.1-2.61,1.682,0,.348.232.638.58,1.16a36.256,36.256,0,0,1,2.494,4.06c.638,1.1.754,1.508,1.276,1.508.7,0,2.726-1.1,2.726-1.914,0-.7-1.74-3.016-2.2-3.886C277.3-40.542,275.964-42.63,275.384-42.63Zm5.858-3.712c-.638,0-2.668,1.044-2.668,1.74,0,.29.29.58.406.754a47.055,47.055,0,0,1,3.132,5.162c.232.406.406.754.87.754.7,0,2.726-1.16,2.726-1.972,0-.522-1.74-3.074-2.146-3.654C282.576-45.066,281.764-46.342,281.242-46.342Zm-32.306,3.654a1.544,1.544,0,0,0,.174.7,34.449,34.449,0,0,1,1.218,4.176c.58,2.61,2.03,8.178,2.9,10.5a2.73,2.73,0,0,1,.232.928c0,.986-.754,1.334-1.45,1.8-4.524,2.9-9.048,6.67-9.048,12.47A9.67,9.67,0,0,0,248.008-3.6C251.72-1.45,255.49-1.16,259.666-1.16c2.726,0,13.456-.406,15.718-.87,1.16-.232,1.218-.87,1.218-2.436,0-1.044.058-3.074-.754-3.074a1.973,1.973,0,0,0-.58.058,94.953,94.953,0,0,1-15.2,1.45,25.052,25.052,0,0,1-8.062-1.044c-1.914-.7-4.118-2.494-4.118-4.756,0-4.814,5.974-8.294,9.57-10.382,4-2.32,11.31-6.148,15.544-7.54.406-.116,1.1-.232,1.1-.812,0-.754-2.2-4.814-3.132-4.814a3.248,3.248,0,0,0-1.508.7c-1.334.812-9.628,5.858-10.556,5.858s-1.16-.928-1.276-1.508a79.2,79.2,0,0,1-2.146-11.542c-.116-1.218,0-1.972-1.508-1.972-.87,0-3.074.29-3.886.406C249.632-43.384,248.936-43.21,248.936-42.688ZM319.29-6.322c0,.986-.464,2.32-1.624,2.32-1.972,0-5.162-1.16-5.162-3.538a2.728,2.728,0,0,1,2.842-2.61A3.85,3.85,0,0,1,319.29-6.322Zm5.046-37.062a8.038,8.038,0,0,0-2.03.522c-3.654,1.276-10.73,2.146-14.616,2.146h-1.044c-1.624,0-1.914.116-1.914,1.45,0,.928.116,4.176,1.392,4.176a12.56,12.56,0,0,0,1.45-.232c3.654-.7,7.366-1.334,10.962-2.2a7.252,7.252,0,0,1,1.1-.174c.406,0,.812.174.812.638,0,.522-.406.87-.7,1.218-6.554,7.018-12.934,14.21-20.184,20.532-.406.406-1.16.928-1.16,1.566,0,.812,2.2,3.306,3.364,3.306.348,0,.58-.348.928-.754,1.972-2.262,4-4.524,6.148-6.612a17.845,17.845,0,0,1,13.108-5.568c5.278,0,10.382,2.436,10.382,8.352,0,7.192-7.192,10.034-8.41,10.034a.548.548,0,0,1-.58-.58,7.193,7.193,0,0,0,.232-1.45c0-4.06-4.7-6.96-8.352-6.96-3.6,0-6.9,2.726-6.9,6.438a6.461,6.461,0,0,0,2.784,5.1,13.557,13.557,0,0,0,8.294,2.32c9.048,0,17.922-5.278,17.922-15.138,0-7.946-6.67-12.412-14.094-12.412a12.9,12.9,0,0,0-3.306.406,7.1,7.1,0,0,1-.986.174.65.65,0,0,1-.7-.58,1.524,1.524,0,0,1,.406-.87c2.262-2.494,6.9-7.366,9.628-9.164.29-.174,1.1-.638,1.1-.986C329.382-39.614,326.54-43.384,324.336-43.384ZM43.21,51.5A1.34,1.34,0,0,1,44.6,52.9v1.218a1.356,1.356,0,0,1-1.392,1.45H32.016a1.356,1.356,0,0,1-1.392-1.45V52.9A1.34,1.34,0,0,1,32.016,51.5ZM32.016,48.256a1.34,1.34,0,0,1-1.392-1.392V45.7a1.34,1.34,0,0,1,1.392-1.392H43.21A1.34,1.34,0,0,1,44.6,45.7v1.16a1.34,1.34,0,0,1-1.392,1.392Zm17.052-2.494c0-.928.058-1.8.058-2.668,0-1.972-.928-2.436-2.726-2.436-1.218,0-2.378.058-3.538.058h-10.5c-1.16,0-2.378-.058-3.538-.058-1.74,0-2.726.522-2.726,2.378,0,.928.058,1.8.058,2.726v8.352c0,.87-.058,1.8-.058,2.668,0,1.914.986,2.436,2.726,2.436,1.218,0,2.378-.116,3.538-.116h10.5c1.218,0,2.378.116,3.6.116,1.856,0,2.668-.638,2.668-2.552,0-.87-.058-1.682-.058-2.552ZM10.5,71.166a1.969,1.969,0,0,1-1.334,2.146,37.531,37.531,0,0,1-4.872,1.74c-.522.174-1.276.232-1.276.928a18.431,18.431,0,0,0,1.1,3.132c.522,1.16.754,1.682,1.276,1.682s.638-.638.812-1.044c.116-.406.232-.464,1.16-.87,2.958-1.218,5.858-2.552,8.758-3.886.406-.174,5.336-2.61,5.51-2.726a1.43,1.43,0,0,0,.7-1.334c0-.638-.29-2.958-1.16-2.958A28.622,28.622,0,0,0,17.748,69.6a5.4,5.4,0,0,1-1.8.754c-.7,0-.87-.522-.87-1.1V57.884c0-1.16.464-1.624,1.566-1.624h.406c1.392,0,3.248.116,4.06.116,1.044,0,1.1-.812,1.1-2.262,0-1.566-.058-2.262-1.1-2.262-.928,0-2.552.058-4.06.058h-.406c-1.1,0-1.566-.464-1.566-1.566V44.428c0-2.03.058-2.668.7-3.074.522-.348.812-.464.812-.87,0-.638-.812-.754-2.088-.812-1.1-.058-2.2-.232-3.306-.232-.522,0-.986.116-.986.754,0,.174.058.464.058.638.116,1.566.232,3.248.232,4.814v4.7c0,1.1-.464,1.566-1.624,1.566H8.7c-1.508,0-3.19-.058-4.06-.058-1.16,0-1.1.754-1.1,2.262,0,1.45-.058,2.262,1.1,2.262.7,0,2.668-.116,4.06-.116h.174c1.16,0,1.624.464,1.624,1.624ZM44.776,73.6c1.682-.058,2.262-.058,2.262,1.16A40.458,40.458,0,0,1,45.7,84.274c-.58,1.508-1.392,1.624-2.842,1.624a16.4,16.4,0,0,1-2.378-.174c-.232,0-.58-.058-.87-.058-.754,0-.87.522-.87,1.218,0,3.654.986,3.538,3.422,3.538,3.538,0,6.438-.174,7.772-4,1.16-3.422,1.8-10.672,1.8-14.384,0-1.8-.58-2.668-2.494-2.668-1.334,0-2.668.116-4.06.116H32.538c-.522-.058-.928-.232-.928-.812a3.826,3.826,0,0,1,.638-1.508,1.484,1.484,0,0,1,1.624-.928H46.69c2.2,0,4.408.116,6.612.116,1.218,0,1.218-.87,1.218-2.088,0-1.334,0-2.146-1.218-2.146-2.2,0-4.408.116-6.612.116H27.666c-2.2,0-4.408-.116-6.612-.116-1.16,0-1.16.87-1.16,2.146,0,1.16-.058,2.088,1.16,2.088,1.914,0,3.77-.116,5.684-.116.464,0,.986.174.986.812a.936.936,0,0,1-.174.522,30.152,30.152,0,0,1-9.4,9.744c-.58.406-1.334.87-1.334,1.45,0,.812,1.392,2.378,2.2,2.378a4.657,4.657,0,0,0,1.914-.986A32,32,0,0,0,27.2,74.53a2.323,2.323,0,0,1,2.2-.928h.754c.406,0,.87.174.87.7a.81.81,0,0,1-.174.522,32.4,32.4,0,0,1-8.816,8.294c-.464.29-1.392.754-1.392,1.334a3.111,3.111,0,0,0,2.2,2.262,2.388,2.388,0,0,0,1.218-.58A34.784,34.784,0,0,0,35.09,74.646c.58-.928.986-1.044,2.088-1.044h1.1c.58.058,1.1.174,1.1.87a1.694,1.694,0,0,1-.116.522A35.374,35.374,0,0,1,28.768,87c-.406.348-1.276.928-1.276,1.508a3.038,3.038,0,0,0,2.262,2.146c.754,0,3.19-2.146,3.828-2.726a37.831,37.831,0,0,0,9.628-13.34A1.4,1.4,0,0,1,44.776,73.6Zm40.252-34.22c-.58,0-.638.464-.812,1.1a32.388,32.388,0,0,1-2.958,7.192c-.638,1.1-1.682,1.1-5.568,1.1-1.682,0-3.538-.116-4.524-.116-1.16,0-1.334.406-1.334,2.2,0,2.378.232,2.61,1.218,2.61,2.2,0,3.944-.232,5.046-.232.87,0,1.334.174,1.334.58a1.807,1.807,0,0,1-.406,1.044c-2.2,3.48-7.366,11.426-9.976,14.21a1.842,1.842,0,0,0-.638,1.044c0,.986,2.842,2.842,3.77,2.842a1.047,1.047,0,0,0,.812-.58,46.921,46.921,0,0,1,4.7-6.438c2.378-2.61,8.294-5.568,11.89-5.568A2.876,2.876,0,0,1,90.654,63.1a10.781,10.781,0,0,1,.232,1.914c0,.7-.522,1.044-1.1,1.334-1.276.58-2.552,1.392-3.77,2.088-3.944,2.262-8.236,5.046-8.236,10.092,0,3.828,2.32,6.5,5.742,7.888a21.384,21.384,0,0,0,8.758,1.392c2.262,0,9.106-.232,11.078-.754.928-.232,1.1-.638,1.1-2.2,0-1.276-.058-3.074-1.044-3.074a7.252,7.252,0,0,0-1.1.174A41.46,41.46,0,0,1,91.64,83.346c-3.248,0-9.164-.522-9.164-4.93,0-3.016,3.248-4.93,5.568-6.264a6.336,6.336,0,0,1,2.03-.928c.638,0,.812.464.812,1.044,0,1.566-.116,3.132-.116,4.7,0,1.392.986,1.45,2.668,1.45,1.914,0,2.146-.232,2.146-2.088,0-2.146-.058-4.35-.058-6.5,0-1.218.348-1.566,1.392-2.03,2.146-.87,4.292-1.8,6.5-2.668.406-.174.812-.232,1.1-.348,1.392-.406,2.03-.7,2.03-1.392,0-.87-.986-4.234-2.03-4.234a4.474,4.474,0,0,0-1.45.58c-.986.522-6.554,3.48-7.25,3.48-.638,0-.754-.638-.812-1.16-.58-3.828-2.552-5.742-6.5-5.742a17.043,17.043,0,0,0-7.308,2.03,2.188,2.188,0,0,1-.928.29.508.508,0,0,1-.522-.464,13.482,13.482,0,0,1,1.682-2.842,8.511,8.511,0,0,0,.522-.87c.928-1.45,1.1-1.74,2.378-1.914,3.712-.406,7.424-1.044,11.078-1.8,1.1-.232,2.784-.464,2.784-1.392,0-.406-.232-3.886-1.566-3.886a5.443,5.443,0,0,0-1.392.348,49.2,49.2,0,0,1-7.714,1.8c-.348,0-.638-.116-.638-.522a5.6,5.6,0,0,1,.638-1.508c.87-1.45,1.1-1.914,2.088-2.32.29-.116.7-.29.7-.7C90.306,41.876,85.608,39.382,85.028,39.382Zm36.54,18.792c0,1.334,2.146,4.582,3.6,4.582a3.054,3.054,0,0,0,1.392-.464c7.192-3.538,16.7-7.946,24.824-7.946a10.405,10.405,0,0,1,5.278,1.218,8.809,8.809,0,0,1,4.35,7.772c0,5.8-4.582,10.092-9.454,12.47a34.256,34.256,0,0,1-11.89,3.248c-.7.058-1.914.058-1.914,1.044,0,.464.87,4.176,2.726,4.176,2.436,0,8.758-1.972,11.136-2.958,7.482-3.132,14.616-9.28,14.616-17.98a14.464,14.464,0,0,0-3.886-9.86c-2.842-2.958-6.786-4.06-10.788-4.06-7.366,0-14.616,2.9-21.46,5.336-2.262.812-4.93,1.8-7.25,2.378C122.264,57.246,121.568,57.478,121.568,58.174Zm82.592,20.3c3.364,0,3.538.522,3.538,1.972,0,2.436-1.1,3.712-3.6,3.712-1.74,0-4.7-1.1-4.7-3.19C199.4,78.764,202.536,78.474,204.16,78.474Zm3.132-20.532c-.7,0-1.16.29-1.16,1.044v.7c.29,1.914,1.1,12.3,1.1,13.978,0,.7-.522.812-1.1.812-.7,0-1.45-.058-2.146-.058-4.234,0-9.222,1.566-9.222,6.67,0,4.988,5.394,7.366,9.744,7.366,4.118,0,7.192-1.74,7.6-6.09.058-.522.116-1.45.754-1.45,1.1,0,4.524,2.378,5.452,3.074a2.922,2.922,0,0,0,1.45.754c1.218,0,2.9-2.436,2.9-3.364,0-.754-2.668-2.2-3.364-2.61a35.852,35.852,0,0,0-5.858-2.726c-.928-.348-1.334-.638-1.45-1.682-.348-3.016-.58-8.758-.58-11.832,0-1.16.116-2.9.116-3.132,0-.58-.464-.87-.986-.986A15.129,15.129,0,0,0,207.292,57.942Zm8.352-8.236c-.928,0-3.074,2.378-3.074,3.074,0,.406.406.754.754.986a31.342,31.342,0,0,1,7.076,7.308c.29.406.522.812,1.044.812.87,0,3.48-1.914,3.48-3.074C224.924,57.362,217.094,49.706,215.644,49.706Zm-18.908-9.628c-.522,0-.522.522-.522.928a31.869,31.869,0,0,1-.928,6.612c-.29,1.16-.7,3.074-1.218,3.654-.87.928-7.424.986-8.99.986-.406,0-.87-.058-1.334-.058-.638,0-.986.174-.986.87a19.96,19.96,0,0,0,.29,2.61c.174.986.406,1.508,1.334,1.508.754,0,5.046-.406,5.974-.522a7.86,7.86,0,0,1,1.16-.116.669.669,0,0,1,.7.7,28.355,28.355,0,0,1-1.45,3.944,95.731,95.731,0,0,1-7.192,13.92,7.573,7.573,0,0,0-.928,1.972c0,1.044,3.074,2.378,4.06,2.378.522,0,.754-.29.986-.7.986-1.682,1.856-3.364,2.726-5.046a138.712,138.712,0,0,0,6.9-16.008c.638-1.8.58-2.088,2.494-2.436,5.684-1.044,6.38-1.044,6.38-2.378,0-.7-.116-3.77-.986-3.77a2.615,2.615,0,0,0-.638.174,40.989,40.989,0,0,1-4,1.044.67.67,0,0,1-.7-.7c0-.174.174-.812.232-1.1.232-.87,1.16-4.756,1.682-5.22.464-.464.812-.7.812-1.044,0-.406-.406-.58-.7-.7A45.152,45.152,0,0,0,196.736,40.078ZM273.3,51.04c-.638,0-2.436,1.45-2.436,2.088a1.139,1.139,0,0,0,.522.754q2.088,2.175,4,4.524c.174.232.464.638.812.638.754,0,2.494-1.566,2.494-2.32C278.69,56.086,273.876,51.04,273.3,51.04Zm6.728-4.292c-.58,0-2.436,1.508-2.436,2.146,0,.29.348.58.522.754a42.691,42.691,0,0,1,4.06,4.524c.232.232.464.58.812.58.754,0,2.494-1.508,2.494-2.32C285.476,51.794,280.662,46.748,280.024,46.748Zm-13.8-4.35a1.215,1.215,0,0,0-.87.638c-2.61,3.19-7.424,7.25-10.73,9.976-1.856,1.508-5.858,4.756-7.192,6.5a6.631,6.631,0,0,0-1.276,3.886c0,2.436,1.16,4.06,2.726,5.858,2.842,3.306,5.916,6.38,8.99,9.454,2.378,2.378,4.814,4.814,7.018,7.424.348.464,1.044,1.334,1.624,1.334,1.276,0,4-2.494,4-3.712,0-.87-1.45-1.972-2.262-2.668-4.118-3.654-8.294-7.308-12.18-11.252-1.276-1.334-4.292-4.408-4.292-6.322a3.77,3.77,0,0,1,1.566-2.61c2.958-2.784,6.09-5.51,9.28-8.12,1.624-1.334,3.248-2.668,4.93-4a4.7,4.7,0,0,1,2.262-1.16c.406,0,1.276.058,1.276-.58,0-.58-2.726-3.016-3.306-3.538C267.38,43.152,266.742,42.4,266.22,42.4Zm35.67,33a5.336,5.336,0,1,1-5.336,5.336A5.322,5.322,0,0,1,301.89,75.4Zm0-2.61a7.946,7.946,0,1,0,7.946,7.946A7.921,7.921,0,0,0,301.89,72.79Z" transform="translate(11.753 1192.48)" fill="#fff"/>
    <path id="パス_9629" data-name="パス 9629" d="M22.752-169.06c13.9-12.008,30.02-29.388,30.02-49.3a18.341,18.341,0,0,0-18.328-18.328,18.547,18.547,0,0,0-18.328,18.328c0,7.268,4.424,14.536,11.06,17.064,3.476,1.264,5.372,2.212,5.372,6.32,0,7.9-8.848,16.432-14.536,20.856Zm48.032,0c13.9-12.008,30.02-29.388,30.02-49.3a18.341,18.341,0,0,0-18.328-18.328,18.547,18.547,0,0,0-18.328,18.328c0,7.268,4.424,14.536,11.06,17.064,3.476,1.264,5.372,2.212,5.372,6.32,0,7.9-8.848,16.432-14.536,20.856Z" transform="translate(334.753 1477.48)" fill="#fff" opacity="0.4"/>
    <path id="パス_9628" data-name="パス 9628" d="M94.168-236.684c-13.9,12.324-30.02,29.388-30.02,49.3A18.341,18.341,0,0,0,82.476-169.06,18.341,18.341,0,0,0,100.8-187.388a18.779,18.779,0,0,0-11.06-17.064c-3.16-1.264-5.372-2.212-5.372-6.32,0-7.9,8.848-16.432,14.852-20.856Zm-48.032,0c-13.9,12.324-30.02,29.388-30.02,49.3A18.341,18.341,0,0,0,34.444-169.06a18.341,18.341,0,0,0,18.328-18.328,18.779,18.779,0,0,0-11.06-17.064c-3.16-1.264-5.372-2.212-5.372-6.32,0-7.9,8.848-16.432,14.852-20.856Z" transform="translate(-46.247 1331.48)" fill="#fff" opacity="0.4"/>
  </g>
</svg>
